<svg id="Layer_1" data-name="Layer 1" xmlns="http://www.w3.org/2000/svg" viewBox="0 0 70 70"><defs><style>.cls-1{fill:#fff;}</style></defs><title>aguacate</title><g id="_Group_" data-name="&lt;Group&gt;"><path id="_Compound_Path_" data-name="&lt;Compound Path&gt;" class="cls-1" d="M10.65,44.19a64,64,0,0,1,1.57-8.35,21.87,21.87,0,0,1,5.23-8.95,50.11,50.11,0,0,1,9.8-7.26c2.12-1.29,4.48-2.18,6.69-3.34A14.53,14.53,0,0,0,38.78,12c1.36-1.83,3-3.08,5.34-3a1.2,1.2,0,0,0,.61,0c1.66-1.08,3.1,0,4.53.56a20.36,20.36,0,0,1,3.83,2.08,11.57,11.57,0,0,1,5.65,7.73,8.65,8.65,0,0,1-1.59,7A15.5,15.5,0,0,0,53.84,35a28.48,28.48,0,0,1-1.9,9.21,17.18,17.18,0,0,1-1.1,3.19,48.82,48.82,0,0,1-3.92,5.47,34.16,34.16,0,0,1-4.29,4.36,22.56,22.56,0,0,1-4.24,2.66c-2.41,1.24-5.08,1.68-7.68,2.34a10.9,10.9,0,0,1-4.84.29c-2.63-.53-5.38-1-7.33-3.28-.79-.92-2-1.42-3-2.24a8.93,8.93,0,0,1-2.39-2.61C11.71,51.19,10.07,48,11,44.21Zm2.11,1.52.36.07a7.91,7.91,0,0,0,1.54,5.3c2.38,3.23,5.4,5.19,9.55,5a2.38,2.38,0,0,1,.75.05,6.53,6.53,0,0,0,4.65-.51c2.36-1.13,5-1.68,7-3.59a44.79,44.79,0,0,0,4-3.74A42.55,42.55,0,0,0,44,43a13.25,13.25,0,0,0,1.92-6.23c.1-2.67-.17-5.36.78-7.95.19-.53.35-1.08.59-1.59.83-1.75,1.73-3.47,2.51-5.24a43.88,43.88,0,0,0,1.62-4.28c.41-1.27.71-2.59-.61-3.61-.95-.72-1.92-1.42-2.82-2.2-1.12-1-2.47-.33-3.65-.63-1.66-.43-2.35.67-3.19,1.62a21.94,21.94,0,0,1-1.61,2,29.64,29.64,0,0,1-4.19,3.38c-2,1.2-4.23,2-6.25,3.16-2.31,1.34-4.53,2.86-6.72,4.4a17.55,17.55,0,0,0-7.15,9.09C14.12,38.44,13.55,42.11,12.76,45.71ZM54.55,16.13c-.43,1.53-.72,2.88-1.2,4.18a26.69,26.69,0,0,1-2,4.65c-1.46,2.4-2.69,4.92-2.62,7.71a23.89,23.89,0,0,1-2.27,11.58A22.61,22.61,0,0,1,44.24,48c-1.15,1.49-2.52,2.81-3.82,4.19a13.51,13.51,0,0,1-5.2,3.74c-1.16.42-2.2,1.16-3.36,1.58-1.63.58-3.14,1.58-5,1.36a35.28,35.28,0,0,0-3.86,0c.55.34.87.7,1.21.72a31.12,31.12,0,0,0,5.92.1c2.15-.31,4.2-1.22,6.33-1.73a10,10,0,0,0,4.52-2.56c1.59-1.47,3.15-3,4.61-4.6a16,16,0,0,0,3.83-6.29c.87-3.08,1.44-6.24,2.06-9.38.22-1.13.09-2.35.35-3.47A22.45,22.45,0,0,1,55,24.91c.72-1.14,1.57-2.19,1.53-3.72A8.36,8.36,0,0,0,54.55,16.13Z"/><path id="_Compound_Path_2" data-name="&lt;Compound Path&gt;" class="cls-1" d="M16.94,43.86c.88-2.58.84-5.37,2.52-7.7,1-1.32,1.54-2.91,2.49-4.25a29.63,29.63,0,0,1,3.27-3.83A15,15,0,0,1,28,26a8.32,8.32,0,0,1,6.29-.94,16.6,16.6,0,0,1,3.93,1,5,5,0,0,1,2.66,3.14c.92,3-.14,5.58-.88,8.33-.95,3.56-3.25,6.16-5.69,8.69a26.65,26.65,0,0,1-4.66,4.26,8.09,8.09,0,0,1-8.16.63A9.42,9.42,0,0,1,18.41,49a1.57,1.57,0,0,1-.41-.59C17.63,46.92,17.3,45.42,16.94,43.86Zm2.81.78a9.8,9.8,0,0,0,1,3c1,1.46,2.83,1.78,4.38,1.78a6.78,6.78,0,0,0,4.6-2.17C31,46,32.16,44.6,33.41,43.33A17.87,17.87,0,0,0,38.59,32c.19-2.27-.68-3.46-2.54-3.89-.92-.21-2.09.56-2.73-.76,0-.09-.4,0-.6,0-3-.28-4.87,1.6-6.6,3.51a53.9,53.9,0,0,0-3.44,4.94A16.52,16.52,0,0,0,19.75,44.65Z"/></g></svg>