<svg id="Layer_1" data-name="Layer 1" xmlns="http://www.w3.org/2000/svg" viewBox="0 0 70 70"><defs><style>.cls-1{fill:#fff;}</style></defs><title>banano</title><path id="_Compound_Path_" data-name="&lt;Compound Path&gt;" class="cls-1" d="M11.75,44c-.49-.46-1.1-1-1.66-1.57-.3-.31-.51-.71-.78-1.05a3.54,3.54,0,0,0-1.59-1.33c-1.13-.41-1.4-2.25-.57-3.18.23-.27.68-.33,1-.51A2.42,2.42,0,0,0,8.8,36a25.11,25.11,0,0,1,1.78-1.9c.31-.26.86-.2,1.28-.34,1.19-.38,2.4-.72,3.55-1.2a63.33,63.33,0,0,0,6.38-2.85,20.56,20.56,0,0,0,4.46-3.32c1.65-1.62,3.5-3,5.23-4.56a11.62,11.62,0,0,1,3.58-2.29,10.77,10.77,0,0,1,2-.44,6.69,6.69,0,0,1,3.2.3c.6.19,1.36-.27,1.84.74.22-.88.09-1.77,1-1.41.35-.92.74-1.78,1-2.68.18-.68.13-1.42.26-2.12.17-.9.39-1.8.63-2.68.11-.42.23-1.06.5-1.19a6.34,6.34,0,0,1,2.3-.53,33.21,33.21,0,0,1,4.08.17,19.12,19.12,0,0,1,2.4.53c.1-.16.16-.34.28-.41.28-.17.75-.48.85-.39a2.29,2.29,0,0,1,.76,1.15c.19,1.05.24,2.14.35,3.21a15.53,15.53,0,0,1-1,7.15c-.52,1.39-.92,2.84-1.33,4.27a.79.79,0,0,0,.28.65,9.15,9.15,0,0,1,2.85,4.67,19.29,19.29,0,0,1,.62,8.32,37.26,37.26,0,0,1-3.22,10.5,12.14,12.14,0,0,1-3.58,5c-.83.64-1.4,1.62-2.22,2.29-1.3,1.06-2.69,2-4.08,3a25.92,25.92,0,0,1-6.72,3,17.12,17.12,0,0,1-3.6.73,15.64,15.64,0,0,1-7.68-1.57c-.83-.35-1.32-.51-2.08,0-.27.19-1,0-1.32-.25a4.45,4.45,0,0,1-1.3-1.44c-.15-.27.06-.82.21-1.2.08-.19.37-.32.58-.44.4-.24.5-.6.19-.89a3.3,3.3,0,0,0-1.18-.73c-.82-.28-1.68-.44-2.51-.68-.24-.07-.59-.23-.63-.42-.16-.74-.75-.61-1.19-.61a2,2,0,0,1-2-1.4,23.6,23.6,0,0,1-.22-2.36,4.72,4.72,0,0,1-2.55-1.78,1,1,0,0,0-.61-.24,2.23,2.23,0,0,1-1.88-2.09,3.81,3.81,0,0,1,.06-1.57A8.67,8.67,0,0,1,11.75,44ZM14,48.42a7.44,7.44,0,0,0,1.78,1.1,11.79,11.79,0,0,0,2.48.2,1,1,0,0,0,.38-.07,36.9,36.9,0,0,1,3.6-1.31,17,17,0,0,0,5-2.38,26.73,26.73,0,0,0,2.34-1.79c.7-.57,1.39-1.17,2.06-1.79,1.07-1,2.05-2.1,3.18-3,1.91-1.55,3-3.71,4.11-5.8a42,42,0,0,0,1.73-4.66,12,12,0,0,1,2.14-4.2,6.62,6.62,0,0,1,1.5-1.15c.21-.12.57.08.87.13a4.1,4.1,0,0,1-.33.79,13.62,13.62,0,0,0-1.42,2c-1,2.35-2,4.72-2.92,7.12a18.33,18.33,0,0,1-4.18,6.61c-.79.8-1.62,1.58-2.46,2.32-1.24,1.1-2.6,2.08-3.75,3.27a16.27,16.27,0,0,1-4.37,2.95,28.59,28.59,0,0,1-3.55,1.42c-.86.32-1.75.55-2.63.85s-1,.46-.57,1.51a3.76,3.76,0,0,1,.29,1.13,1.12,1.12,0,0,0,1.32,1.12,2.87,2.87,0,0,1,.77.13,4.74,4.74,0,0,0,3.69-.26,10.45,10.45,0,0,1,2.51-1.12c1.33-.39,2.71-.57,4-1a15,15,0,0,0,4.64-2.37,32.75,32.75,0,0,1,3.08-2.29,9.34,9.34,0,0,0,3.25-3.55,14.48,14.48,0,0,0,2.16-4.4,1.65,1.65,0,0,1,.19-.36,14.66,14.66,0,0,0,1.71-7.78A16.25,16.25,0,0,1,47.42,26a5.19,5.19,0,0,1,1.27-1.86c.15-.16.67.06,1.11.11,0-.23.21-.51.14-.71a1.35,1.35,0,0,1,.43-1.5,1.33,1.33,0,0,0,.26-.5c.39-1.19.79-2.38,1.15-3.58a.84.84,0,0,0-.17-.64c-.3-.38-.68-.69-1-1.07a15.16,15.16,0,0,0-1.82-2.16,21.6,21.6,0,0,0-2.9-1.69,10.46,10.46,0,0,1,0,1.52,23.7,23.7,0,0,1-1.32,6.16A2.09,2.09,0,0,1,42,21.34a11,11,0,0,0-4-.79,8.53,8.53,0,0,0-5.26,2.1c-1.12.81-2.06,1.88-3.14,2.75-1.84,1.48-3.33,3.39-5.38,4.62-.88.53-1.73,1.13-2.64,1.59-1.13.57-2.3,1.05-3.47,1.52q-2.54,1-5.11,1.93c-.53.19-1.14.15-1.66.35a2.85,2.85,0,0,0-1.23,3.3c.06.15,0,.34,0,.51a2.36,2.36,0,0,0,.24,1c.56.73,1.19,1.39,1.8,2.08a10,10,0,0,0,1.12-.5c.44-.27.82-.66,1.27-.88.71-.34,1.48-.54,2.21-.86,1.31-.58,2.58-1.3,3.92-1.8A17.37,17.37,0,0,0,26,35a40.52,40.52,0,0,0,3.92-4.14c1.26-1.44,2.13-3.16,3.5-4.56a20.6,20.6,0,0,1,4.49-3.55,3.57,3.57,0,0,1,3.65.22c.16.08.24.37.28.58s-.2.26-.32.27a17.11,17.11,0,0,0-1.88.06,3.78,3.78,0,0,0-1.55.59,28.79,28.79,0,0,0-3.26,2.62,27.87,27.87,0,0,0-2.53,3c-.92,1.19-1.69,2.5-2.69,3.61a40.76,40.76,0,0,1-3.49,3.24,11.77,11.77,0,0,1-2.06,1.54c-1.37.75-2.8,1.39-4.22,2-1,.47-2.09.85-3.12,1.31a15.34,15.34,0,0,0-2.37,1.25,4.18,4.18,0,0,0-.92,1.25c-.25.39-.4.71.05,1.17A2.3,2.3,0,0,1,14,48.42Zm41.15-32.3L54.9,16c-.24.26-.44.65-.74.76-1,.36-1.17,1.07-1.35,2C52.43,20.9,52,23,50.46,24.63a3.65,3.65,0,0,0-1,1.68c-.21.81-.79,1.54-1,2.35a27.73,27.73,0,0,0-.33,3.44c0,.26,0,.52,0,.78a19.26,19.26,0,0,1-.32,3.7,32.25,32.25,0,0,1-1.65,3.84,25.77,25.77,0,0,1-2,4.36,15.15,15.15,0,0,1-3,3.81,60.65,60.65,0,0,1-5,3.53,18.55,18.55,0,0,1-3.32,1.62c-.91.35-1.91.41-2.83.72-1.47.49-2.93,1.07-4.37,1.65-.44.18-.89.47-.79,1.1,0,0,.05.06.09.11l.78-.5c-.8,1.33-.07,2.15.41,3s1.2.83,2,.89a11.54,11.54,0,0,1,2.9.37,7.42,7.42,0,0,0,4.36.37,31.94,31.94,0,0,0,3.68-1.07,26.88,26.88,0,0,0,4.64-2.07,21.87,21.87,0,0,0,5.34-4.08,22.12,22.12,0,0,0,2.56-2.86A50.69,50.69,0,0,0,54.82,45a22.07,22.07,0,0,0,1.6-7.11A21,21,0,0,0,56.17,32a11.68,11.68,0,0,0-2.62-5.18,3,3,0,0,1-.83-2.63C53.27,22.1,54.1,20,54.78,18A14.08,14.08,0,0,0,55.12,16.11Zm-8-5.35-.17.35c.57.4,1.12.83,1.7,1.21a8,8,0,0,1,1.47.88c.71.73,1.26,1.63,2,2.37a1,1,0,0,0,1,.09c.51-.43,1.15-.84,1-1.73s-.18-1.54-.26-2.32Z"/></svg>