<svg id="Layer_1" data-name="Layer 1" xmlns="http://www.w3.org/2000/svg" viewBox="0 0 70 70"><defs><style>.cls-1{fill:#fff;}</style></defs><title>cafe</title><path class="cls-1" d="M52.66,31.5c.11-1.15.18-2.29.21-3.42a.49.49,0,0,0-.41-.54.56.56,0,0,0-.31-.26A49,49,0,0,0,31.41,25a85,85,0,0,0-9.52,1.45c-2.19.45-6.5.61-7.94,2.41a.3.3,0,0,0,0,.35l.09.16a.36.36,0,0,0-.13.24.3.3,0,0,0-.31.25,19.93,19.93,0,0,0,5.24,17C14,46.86,5.73,49.46,9,55.54c3.59,6.65,14.24,6.75,20.66,6.57A73.86,73.86,0,0,0,43,60.49c3.1-.66,6.79-1.42,9-3.92a6.33,6.33,0,0,0,1.37-6.41c-1-2.38-3.5-3-5.85-3.14.29-.39.56-.79.82-1.2,4.15,4.4,12.56,2,13.73-3.92C63,37,58.26,28.48,52.66,31.5Zm-.42,3.14c3.28.32,7,1.66,6.48,5.78-.57,4.36-6,4.71-8.82,2.42h0A34.14,34.14,0,0,0,52.25,34.64ZM22.18,27.48A80.57,80.57,0,0,1,32.68,26a46.58,46.58,0,0,1,19,2.36v.07c-4.56,4.31-10.86,4.83-16.89,4.91a64.68,64.68,0,0,1-10.29-.69c-3.32-.49-7.41-.87-9.93-3.3l-.07,0C15.34,28.41,21.14,27.69,22.18,27.48ZM51.39,49.59c1.66,1.71,1,4.46-.38,6-1.5,1.75-3.93,2.48-6.08,3a69.43,69.43,0,0,1-15.26,2.16c-4.55.15-9.4.1-13.71-1.55-3.31-1.27-8.76-5.12-5-8.9,2.09-2.1,5.8-2.6,8.65-2.74a21.59,21.59,0,0,0,2.2,1.85c-2.32.8-4.58,2.87-2.85,5.4,2.3,3.37,8.9,2.94,12.37,3.1,4.51.21,11.2.59,14.9-2.62,2.31-2,1.37-4.6-1.08-5.72a16.64,16.64,0,0,0,1.48-1.51.66.66,0,0,0,.23.07C48.33,48.36,50.29,48.44,51.39,49.59Zm-6.87.58c3.89,4.06-1.83,5.81-4.65,6.33a36.68,36.68,0,0,1-8,.36,38.77,38.77,0,0,1-8.4-.78c-1.95-.51-2.49-.54-3-2.73s.24-2.47,1.92-3.42a20.94,20.94,0,0,0,10.89,3.65A16,16,0,0,0,44.52,50.17ZM48,44.32a15.3,15.3,0,0,1-14.11,8c-12.16-.16-20-10.54-19.6-22.09,1.85,2.09,4.64,2.55,7.33,3.07a65,65,0,0,0,12.51,1.17c5.64,0,13-.26,17.35-4.37C50.89,35,50.44,39.91,48,44.32Zm12.64-1.55c-1.66,4.49-8.39,5.17-11.66,2q.37-.67.7-1.38c2.91,3.17,8.9,2.31,10.06-2.14,1.11-4.22-3.14-8.42-7.33-7.48.06-.45.13-.89.18-1.34C58.41,30.21,62.45,37.83,60.61,42.77Z"/><path class="cls-1" d="M27.67,23.58c-1.91-.59-4.51-.73-4.86-3-.25-1.68,1-2.66,1.14-4.34.13-2.47-2.61-4-4.52-5-.53-.26-1.12.4-.65.85,1.87,1.79,4.63,3,3.14,6.1-.53,1.11-1.12,1.94-.63,3.19.88,2.29,4.19,2.9,6.29,2.93A.35.35,0,0,0,27.67,23.58Z"/><path class="cls-1" d="M34.56,7.46c-.41-.34-1.11.09-.78.6s1.61,2.31,1.63,2.35c1.23,2.42-.25,3.48-1.95,4.87-.72.58-1.41.9-1.75,1.82-.8,2.21,1.7,4,3.22,5.2.4.31.83-.33.52-.68A14.18,14.18,0,0,1,33.19,19c-.81-2.47,1.26-2.59,2.42-3.39a3.62,3.62,0,0,0,1.5-1.89C37.95,11.34,36.33,8.92,34.56,7.46Z"/><path class="cls-1" d="M49.22,11.32a.59.59,0,0,0-1.07.45c.32,1,.76,1.86,1.12,2.8s.69,1.7-.33,2.21a4,4,0,0,1-1.69.08c-1.65-.11-3.24-1.12-4.85-.29A3,3,0,0,0,42,21.69c.26.18.59-.17.43-.43-.8-1.27-1.05-3.19.88-3.72,1-.27,2.19.37,3.16.54A5.61,5.61,0,0,0,50,17.8C52.29,16.42,50.07,12.9,49.22,11.32Z"/></svg>