<svg id="Layer_1" data-name="Layer 1" xmlns="http://www.w3.org/2000/svg" viewBox="0 0 70 70"><defs><style>.cls-1{fill:#fff;}</style></defs><title>cerdo</title><path class="cls-1" d="M29.66,54.47c-2.28.1-4.1-.39-6-.23a1.1,1.1,0,0,1-1-.68c-1-1.81-2.74-2.88-4.15-4.29a7,7,0,0,0-3.27-1.49C12,46.88,9.94,44.62,8.12,42a24.55,24.55,0,0,1-2.77-5.51,36,36,0,0,1-1.93-5.71c-.75-3.8.46-7.09,2.82-10,.69-.86,1.43-1.67,2.14-2.51a2.94,2.94,0,0,1,1.84-.93,84.45,84.45,0,0,1,13.86-1.66c5.6-.1,10.72,1.87,15.44,4.85A20.2,20.2,0,0,0,43,22.41a13.7,13.7,0,0,1,5.07,3.75A8.24,8.24,0,0,0,56.18,29c2.11-.39,4.14-1.16,6.33-1.2a2.34,2.34,0,0,1,2.08.77C65.78,30,67,31.36,67.07,33.38a2.59,2.59,0,0,1-2.4,2.9c-1.75.31-3.53.07-5.27.45a3.1,3.1,0,0,0-1.19.45,54.56,54.56,0,0,0-7,5.73A41.7,41.7,0,0,1,41,50.38a28.28,28.28,0,0,0-2.58,2A8,8,0,0,1,33.73,54C32.22,54,30.76,54.67,29.66,54.47ZM57.87,35l-.27.33c.22.13.36.05.43-.18l.35-.35,1.87-2.42c.31-.4.68-.79,1.17-.44s.05.85-.19,1.2c-.49.7-1,1.36-1.67,2.17a1.33,1.33,0,0,0,1.15-.7c.52-.69,1.07-1.35,1.63-2,.3-.35.63-.9,1.14-.48s.06.89-.22,1.32-1,1-1.27,1.66c1.3,0,1.09-.22,2.41-1.85,1.16-1.43.42-2.2-.36-3.16a2,2,0,0,0-1.8-.79,30.06,30.06,0,0,0-5.16,1,9.66,9.66,0,0,1-9.81-2.94,14.23,14.23,0,0,0-5.48-3.93,17.39,17.39,0,0,1-3.16-1.79A30.85,30.85,0,0,0,25.72,17.1c-2.66-.31-5.19.39-7.88.69a.52.52,0,0,0,.37.25,15.78,15.78,0,0,1,5.94,2.66C26,21.86,28,23,28.83,25.16s1.62,4.15,2.23,6.28a28.5,28.5,0,0,0,4.51,8.74,8,8,0,0,1,.41-.92c.26-.42.2-1.3,1-1s.37,1,.18,1.49a6.8,6.8,0,0,0-.6,2.73c.52-1.14,1-2.13,1.43-3.11.18-.37.39-.85,1-.53s.39.69.18,1.12C38.56,41,38,42.18,37.48,43.3a1.76,1.76,0,0,0,.08,2,4.74,4.74,0,0,0,.26-.45c.57-1.28,1.12-2.57,1.69-3.85.18-.4.46-.67.92-.42s.38.65.21,1-.43.75-.59,1.14C38.79,45.9,37,48.83,36,52.1c.35.07.63-.06.73-.57a3.6,3.6,0,0,1,.32-1q2.42-4.62,4.88-9.22a7.18,7.18,0,0,1,.61-.87c.26-.35.6-.57,1-.3s.2.65,0,1c-1.63,2.91-3.24,5.83-4.86,8.74.94-.4,2-.65,2.52-1.57a49.83,49.83,0,0,0,3.36-6.72,7.68,7.68,0,0,1,1-1.86c.25-.33.56-.76,1.06-.59s.33.71.29,1.12c-.79.51-.94,1.38-1.29,2.15-.71,1.59-1.5,3.14-2.39,5,.71-.52,1.32-.61,1.48-1.29A41.46,41.46,0,0,1,47,40.41c.28-.51.58-1,.82-1.54s.49-1,1.12-.58.27.77,0,1.21a15.57,15.57,0,0,0-1.54,3.16.63.63,0,0,0,.61-.44c1-1.92,2.07-3.84,3.08-5.77.24-.47.45-1.07,1.06-.79s.39.9.11,1.41l-3,5.35c.76.11.9-.46,1.11-.89.83-1.68,1.86-3.25,2.59-5A6.77,6.77,0,0,1,54,35a.67.67,0,0,1,1,0c.35.3.07.55-.1.8a11.13,11.13,0,0,0-1.28,2.49c0,.1-.07.24,0,.28s.19,0,.23-.11c1-1.46,2.09-2.91,3.12-4.37.25-.36.53-.59,1-.42s.33.55.27.9ZM6.78,34.36c.41,1.48.21,3.35,1.46,4.69a44.54,44.54,0,0,1,3.58,4.35,1,1,0,0,0,1.25.49,1.5,1.5,0,0,1,2,.92,2,2,0,0,0,2.29,1.66,1.57,1.57,0,0,1,.77.25,42.13,42.13,0,0,1,6.62,3.63c1.16.86,2.59,1.64,4.26.66a2.85,2.85,0,0,1,3.36.33A1,1,0,0,0,34,51.2a2.26,2.26,0,0,0-.22-2.82c-.55-.52-.67-1.15,0-1.43,1-.43.74-1.1.59-1.8a11.56,11.56,0,0,0-.48-1.81c-.69-1.73-1.24-3.6-2.95-4.63a2.08,2.08,0,0,1-1.05-2.26A4.08,4.08,0,0,0,28.41,33a5.9,5.9,0,0,1-2.07-4.27,2.9,2.9,0,0,0-.56-1.75,16.74,16.74,0,0,1-1.6-2.43,6.14,6.14,0,0,0-3.12-2.55c-.55-.19-1.27-.44-1.33.65,0,.77-.82.38-1.23.61a.62.62,0,0,1-.86-.38,4.07,4.07,0,0,0-1.72-2.26,4.12,4.12,0,0,0-1.48-.88c-1.24-.4-2.31.1-3.44.31-.7.13-1.23.31-1,1.26s-.33,1.59-1.38,1.5A1.86,1.86,0,0,0,7,23.5a7.37,7.37,0,0,0-1.6,7,.82.82,0,0,0,.71.66c1.14.2,1.36.86.91,1.87A6.07,6.07,0,0,0,6.78,34.36Z"/><path class="cls-1" d="M53.81,38.46c0,.11-.13.2-.23.11s0-.18,0-.28Z"/><path class="cls-1" d="M15.2,29.84c.07-1.61-.34-2.88-.23-4.17,0-.49,0-1,.66-1s.71.51.75,1A17.47,17.47,0,0,0,17,30.19c.2.56.61.73,1.21,1,1.36.54,2.94.39,4.14,1.32.43.33.54.2.72-.22a8.89,8.89,0,0,1,.81-1.42c.2-.29.46-.57.89-.38a.82.82,0,0,1,.49.87,6.86,6.86,0,0,1-.47,1.93,22.39,22.39,0,0,0-1.21,3.91,2.3,2.3,0,0,0,1.16,2.68c1,.62,2,1.36,3,2s1,1.76,1.07,2.8a.6.6,0,0,1-.57.64.63.63,0,0,1-.76-.54c-.47-1.89-2.34-2.43-3.55-3.6-.38-.36-1,0-.94.67,0,1.61.09,3.22.1,4.83,0,.48.17,1.12-.54,1.26s-1-.55-1.15-1.08A4.42,4.42,0,0,1,21.29,44a2,2,0,0,0,.09-.58c0-3.07-.06-3.16-3.09-2.83-1.18.13-2.38-.36-3.54.21-.29.14-.68-.11-.84-.49s.1-.68.35-.91c.65-.62,1.54-.44,2.41-.65-.93-1.33-1.86-2.5-3.59-2.49-.48,0-.82-.22-.84-.64s.37-.74.86-.79a8,8,0,0,0,.92-.15c1.51-.33,1.57-.4,1.12-1.9a5.9,5.9,0,0,0-2.35-3A5.86,5.86,0,0,1,10.38,27c-.14-.45-.33-1,.14-1.3s.91.06,1.32.39A23.33,23.33,0,0,1,15.2,29.84Zm3.66,3.64c-1-.34-.86.38-.77,1a13.78,13.78,0,0,1,.38,1.7c0,1,1,1.26,1.28,2,.09.22.33.16.5,0s.4-.24.36-.54A17.75,17.75,0,0,0,19.93,34,.76.76,0,0,0,18.86,33.48Z"/></svg>