<svg id="Layer_1" data-name="Layer 1" xmlns="http://www.w3.org/2000/svg" viewBox="0 0 70 70"><defs><style>.cls-1{fill:#fff;}</style></defs><title>coliflor</title><g id="_Group_" data-name="&lt;Group&gt;"><path id="_Compound_Path_" data-name="&lt;Compound Path&gt;" class="cls-1" d="M53.23,43.82c-.75,1.23-2,1.32-3.27,1.55a4,4,0,0,0-2.49,1.25c-.06.07-.22.17-.26.14-.87-.51-.86.28-1,.72s-.48,1.13-.67,1.71a3.28,3.28,0,0,0,0,2.2,6.91,6.91,0,0,1-.07,3.33,7.35,7.35,0,0,0,.95,4.9,1.63,1.63,0,0,1,.14,1.66,1.22,1.22,0,0,0-.18.63c0,.51-.24.67-.73.8a16.16,16.16,0,0,0-3.66,1.06,1.73,1.73,0,0,1-.8.22,8.08,8.08,0,0,0-4.28.73,1.69,1.69,0,0,1-1.68-.07c-.07,0-.15-.11-.22-.1-2.09.25-4.06-.76-6.22-.43a10.44,10.44,0,0,1-5.07-.81.88.88,0,0,1-.64-.73c0-.72-.29-1.39-.27-2.13a21,21,0,0,0-1.14-8.32c-.65-1.65-.87-3.45-1.54-5.1-.18-.46,0-1.16-.88-1.13-.07,0-.19-.2-.21-.33-.07-.33-.24-.47-.58-.42a.52.52,0,0,1-.33,0c-1.55-1-3.21-.71-4.88-.46A3.31,3.31,0,0,1,10,42.21c0-.08,0-.17,0-.25-.21-.85-.09-1.76-1.47-2-1.09-.16-1.85-1.87-1.65-3,.07-.41,0-.53-.39-.59a1.09,1.09,0,0,1-1-1.23,15.22,15.22,0,0,1,.66-4.94c.49-1.23.38-2.65,1.13-3.82.15-.23-.12-.34-.24-.48-1.4-1.64-1.19-3.43-.49-5.27,0-.13.12-.3.23-.34,1-.45,1-1.39,1.28-2.31a7.59,7.59,0,0,1,3.4-4.38c.45-.27,1.22-.27,1.13-1.19,0-.47.49,0,.73-.22a3.37,3.37,0,0,1,2.42-.71.65.65,0,0,0,.62-.31A5.54,5.54,0,0,1,19.37,9a8.36,8.36,0,0,1,4-.64,5.32,5.32,0,0,0,2.13-.59,1.34,1.34,0,0,1,1.14,0c1.15.79,2.1.17,3-.38a6.34,6.34,0,0,1,3-.86c1.26-.1,2.57.25,3.79-.33a.86.86,0,0,1,.5-.06c1.64.32,3.19-.29,4.77-.5A1.46,1.46,0,0,1,43,5.93c.39.38.93.35,1.4.49a18.41,18.41,0,0,1,2.42.89,1.92,1.92,0,0,1,1.14,1.05,1,1,0,0,0,1.3.8,2.78,2.78,0,0,1,2.28.61,2.67,2.67,0,0,0,1.53.58c1,.08,1.2,1.12,1.65,1.82a2.21,2.21,0,0,1,.19.89A1.36,1.36,0,0,0,56,14.4c2,.22,2.77,1.74,3.74,3.12a4.2,4.2,0,0,1,.82,2.73c0,.26.18.39.29.57a2,2,0,0,1,.24,1.89c-.48,1.21-.22,1.75,1,2.34s1.5,1.19,1,2.41a9.8,9.8,0,0,1-1.29,2.84c.64.21.91.72,1.23,1.32,1,2,.66,3.85-.12,5.78-.46,1.14-.7,2.44-1.82,3.09a22,22,0,0,0-2.68,2c-.76.6-1.8.77-2.57,1.47a1.54,1.54,0,0,1-1.52,0,8.14,8.14,0,0,0-.88-.24c0-.73.47-.7.94-.58s.87.28,1.12,0c.69-.74,1.8-.75,2.43-1.35a28.17,28.17,0,0,1,2.86-2c1.24-.92,1.35-2.47,1.76-3.78a5.94,5.94,0,0,0-.11-4.09c-.24-.59-.77-.94-.93-1.53-.57.3-.92.65-.63,1.37a1,1,0,0,1-.3,1.21A7.18,7.18,0,0,0,59,34.67a4.49,4.49,0,0,0-1.19,2.73c.07,2.2-1.7,3.18-2.86,4.57a.66.66,0,0,1-.31.13C53.3,42.52,53.3,42.52,53.23,43.82ZM15.17,12.5l-.22.12a1.17,1.17,0,0,0-.4.06c-1.12.62-2.27,1.2-3.33,1.91a5.41,5.41,0,0,0-2.43,3.75c-.14,1.07-.09,2-1.25,2.43a.56.56,0,0,0-.22.24A4,4,0,0,0,8,25.77c.24.21.5.42.54.71.06.48.48.56.75.68s.83.15.6-.53a5.57,5.57,0,0,1,.2-3.61A2.42,2.42,0,0,1,12,21.34c.19,0,.34,0,.42.15s-.09.31-.25.35a1.9,1.9,0,0,0-1.28,1.42,4.45,4.45,0,0,0-.27,2.47,11.44,11.44,0,0,1,.11,3.82c0,.28,0,.5.35.47.77-.06,1,.49,1,1.07a6.25,6.25,0,0,0,.5,1.93,2.51,2.51,0,0,0,3.1,1.53,1.29,1.29,0,0,1,1.43.38c.23.23.43.5.83.48a6.66,6.66,0,0,0,3.43-1.11c.7-.49,1.18-1.12,2.2-.79a2.43,2.43,0,0,1-1.75-2.19,6.74,6.74,0,0,0-.4-2.12c-.07-.13.06-.45.19-.61.76-.93.52-1.48-.47-2.17a2.53,2.53,0,0,1-.06-3.92c.17-.12.36-.37.57-.13s0,.42-.17.58c-.33.33-.7.59-.64,1.18A2.26,2.26,0,0,0,22,26c.89.53,1.3,1.39.87,2.1a3.56,3.56,0,0,0-.24,2.22,2.39,2.39,0,0,0,1.83,2.54,10.78,10.78,0,0,1,1.41.47c.34.14.6.31.68-.26a.53.53,0,0,1,.47-.42c.31,0,.26.18.29.38.05.42.29.09.41.06.53-.12,1.19-.38,1.59-.12a4.41,4.41,0,0,0,2.35.37c.47,0,1-.15,1.39.15.66.46,1.15.24,1.53-.37a1.67,1.67,0,0,1,1.24-.84c1.38-.24,1.79-1.32,1-2.49a1.52,1.52,0,0,1,.05-2.1A4.13,4.13,0,0,0,37.88,24c-.06-.23-.32-.52,0-.66s.44.24.55.48a5.12,5.12,0,0,1,.17.55,3.84,3.84,0,0,1-1,3.74,1,1,0,0,0-.07,1.39c1.09,1.65.45,3.26-1.48,3.67a1.57,1.57,0,0,0-1.2.84c.25.22.51.43.75.66A2.78,2.78,0,0,0,38,35.76a3.36,3.36,0,0,1,1.49,0c1.16.4,2.2-.05,3.28-.26.27-.05.59-.5.79-.15s-.27.61-.53.83a1.46,1.46,0,0,1-.52.24,4.58,4.58,0,0,1-3.19.17c-.33-.13-.79-.32-.8.39,0,.14-.23.3-.38.43a1,1,0,0,0-.3,1c.06.74.7.74,1.09,1.07,1.39,1.21,3.3,1.4,4.76,2.46.2.15.47,0,.73,0a1.78,1.78,0,0,1,2,.4c.37-.25.36-1,.9-.82.3.12-.19.54-.26.84,0,.07,0,.1.08.12a3.32,3.32,0,0,1,1.52-.12c1.63.16,3.3.69,4.73-.64.05,0,.16,0,.24-.05,1.48-.22,2-1.53,2.83-2.51a1.57,1.57,0,0,0,.45-1.06,4.32,4.32,0,0,1,.63-2.68c-.39,0-.71.15-.93.05-1.18-.5-2.09.05-3,.65a1.16,1.16,0,0,1-1.1.21,6.38,6.38,0,0,1-2.62-1.4c-.27-.3-.49-.28-.87-.19a3.66,3.66,0,0,1-3.06-.18c-.15-.1-.47-.37-.79-.07s-.59.9-1,.51.39-.62.6-1a2,2,0,0,1,.43-.4,1.37,1.37,0,0,0,.54-1.34c-.27-.83.16-1.2.69-1.6s.77-.55,1.17-.81c.77-.51,1.41-1.07,1.25-2.15a2.43,2.43,0,0,1,.1-1.32c.07-.16.12-.35.3-.36s.22.19.28.35a3.4,3.4,0,0,1-1.36,4.16,1.43,1.43,0,0,1-.29.16c-1.28.44-1.5,1.52-1.67,2.66,0,.21.11.22.18.31.53.69,1.31.48,1.88.29a2.32,2.32,0,0,1,2.54.59c.82.7,1.86,1.28,3.07.36a3.06,3.06,0,0,1,2.64-.47c0,.07.06.16.14.09s0-.13,0-.2c.11-.82.54-1.11,1-.6s.72.27,1-.1a3.08,3.08,0,0,1,.68-.74,1.16,1.16,0,0,0,.46-1.68.63.63,0,0,1,.3-.92,4.08,4.08,0,0,0,1.88-2c.92-1.58.82-2-.75-2.89a1.72,1.72,0,0,1-1-1.7c.06-1,.54-2.11-.48-3-.06,0,0-.22,0-.33a3.12,3.12,0,0,0-.64-2.25c-.94-1.31-1.66-2.78-3.53-3a1.44,1.44,0,0,1-.84-.53,2.31,2.31,0,0,0-2.61-.47c-.26.08-.54.18-.58.52a3.22,3.22,0,0,1-1.21,1.76c-.33.34-.68.66-1,1s-.2,1-.32,1.52c-.08.32.39.16.6.26s.14.32,0,.49a.61.61,0,0,1-.72.31.87.87,0,0,1-.61-.91,3.79,3.79,0,0,1,.55-2.3c.44-.55.93-1,1.42-1.55.32-.33.65-.72.49-1.18a4.89,4.89,0,0,0-1.18-2.26,26,26,0,0,1-2.22-2.66,4,4,0,0,0-1.88-1.46,14.27,14.27,0,0,1-2.75-.92,2.44,2.44,0,0,0-2-.24A6.28,6.28,0,0,1,38.16,7a4.76,4.76,0,0,0-2.52.42,2.53,2.53,0,0,0-1.75,3.19c.39,1.33.28,2.71.71,4.07a20.92,20.92,0,0,0,1.95,3.61c.18.34.73.47.93.11a3.21,3.21,0,0,1,2.6-1.53A2.63,2.63,0,0,1,42.82,18c.16.24.21.61.73.45.29-.09.28.23.14.46-.32.51-.92.47-1.37-.15a2.24,2.24,0,0,0-1.09-1,3,3,0,0,0-2.92,1.06,1.09,1.09,0,0,1-1.57.59,1.78,1.78,0,0,0-.41-.1.63.63,0,0,0-.61.19c-.23.25,0,.4.13.57q.36.71.75,1.4c.1.18.24.32,0,.49s-.35.08-.52-.05a2.53,2.53,0,0,1-.79-1.07,2.32,2.32,0,0,0-2-1.44c-1.29-.19-2.57-.5-3.75.47a1.28,1.28,0,0,1-1.76.06c-.16-.13-.48-.09-.73-.11a4.05,4.05,0,0,1-1.31-.19,2.45,2.45,0,0,0-3.17,1c-.12.19-.13.68-.53.43s-.08-.5,0-.75A3.22,3.22,0,0,1,26,18.79a2.52,2.52,0,0,0,.82.14c1.26.12,2.57.57,3.64-.57a.55.55,0,0,1,.4-.1c.81.07,1.61.18,2.42.25.42,0,.94.46,1.21-.29.08-.22.28-.07.4,0a.48.48,0,0,0,.61.07,10.56,10.56,0,0,0-.72-1.13A8.75,8.75,0,0,1,33.25,13C33,11.5,32.68,10.86,31,10.32l0,0a.52.52,0,0,0-.33-.76c-.8-.09-1.51-.63-2.34-.5a2,2,0,0,1-1.44-.27,1.77,1.77,0,0,0-1.57-.15c-1,.29-2,.86-3.21.44a2.41,2.41,0,0,0-1.78.29c-.83.37-1.64.78-2.44,1.22-.26.14-.68.56-.58.65.59.58-.09.7-.3.94s-.63.47-.88.76c-.65.77-1,1.6-.08,2.49a1.79,1.79,0,0,1,.46,1.23,4.57,4.57,0,0,1-.33,1.86,5.11,5.11,0,0,1,3.16,1c.18.1.35.26.27.46s-.35.14-.57.1a6.72,6.72,0,0,1-1.57-.54c-.26-.12-.62-.32-.79-.17A8.38,8.38,0,0,1,13.58,21c-.22.07-.3.59-.63.36s-.07-.55,0-.83a1.15,1.15,0,0,1,1-.72c1.59-.25,1.73-.41,1.91-2a2,2,0,0,0-.4-1.66,2.46,2.46,0,0,1-.29-3.33l.14-.15c0-.08.17-.16,0-.23S15.22,12.45,15.17,12.5ZM39.42,60.34c.85-.24,1.67-.77,2.57-.51a14.67,14.67,0,0,1,3.33,1c.18.1.4.31.59.07a.66.66,0,0,0,0-.64,2.32,2.32,0,0,0-.23-.35,8.25,8.25,0,0,1-1-5c.15-1.41.51-2.81-.12-4.19-.1-.22,0-.44,0-.66a25.58,25.58,0,0,1,1.21-4,5.48,5.48,0,0,1,1.63-2.59c.14-.13.31-.32.5-.16s.07.34-.06.52c-.29.4-.56.82-.86,1.26.2,0,.36.09.51.11a.36.36,0,0,0,.23-.06c1.13-.76,2.46-.76,3.72-1.08a1.44,1.44,0,0,0,1.08-.93,12,12,0,0,1-3.68-.12,2.77,2.77,0,0,0-3,1.18c-.12.2-.18.49-.55.49-.11-.37.17-.61.32-.89s.63-.54.28-1a1,1,0,0,0-1.21-.3,1.85,1.85,0,0,1-1.94-.41,1.28,1.28,0,0,0-1.13-.46,3.1,3.1,0,0,1,.1,1.54c-.14,1,0,1.19,1,1.18a.89.89,0,0,0,.89-.47,3.43,3.43,0,0,1,.56-.72c.13-.14.32-.24.51,0a.31.31,0,0,1,0,.45,33.79,33.79,0,0,0-2,3.49,12.57,12.57,0,0,0-2.17,6.23c0,.17,0,.37-.23.36a.27.27,0,0,1-.25-.29c.15-.94-.28-1.83-.1-2.8s.8-1.58.64-2.48a9.73,9.73,0,0,1,.52-5.58c.14-.33.2-.83-.15-1A11,11,0,0,0,39,40.3a19.46,19.46,0,0,1-1.52,4.85,12.92,12.92,0,0,0-1.09,2.43c-.06.28-.14.65-.54.66s-.54-.41-.56-.71c-.11-1.58-1-3-.65-4.83L33,43.48l0,0c-.43,0-.85.26-1.31.06s-.54,0-.54.45a26.94,26.94,0,0,1-.53,3.29c0,.19-.09.39-.33.42s-.41-.2-.44-.4a4,4,0,0,0-.49-1.14A6.49,6.49,0,0,1,29,43.25a.25.25,0,0,1,.25-.28c.17,0,.24.08.26.25s.1.6.15.91a4.68,4.68,0,0,0,.53,2c.12-.89.24-1.59.31-2.3s-.27-1.16-1.09-1.21c-.17,0-.34,0-.5,0-2.07-.16-3,.63-2.95,2.66,0,.36.07.72.09,1.09,0,.64.06,1.29.08,1.93a.59.59,0,0,1-.49.68c-.31,0-.37-.28-.46-.51-.17-.44-.33-.89-.5-1.33-.82-2-2.36-3.7-3.16-5.76,0-.07-.11-.12-.18-.17a2.23,2.23,0,0,0-3,0,32.4,32.4,0,0,1,2.61,5.48c.59,1.68.9,3.45,1.52,5.1,1.08,2.89,1,5.87,1.05,8.86,0,.26,0,.46.27.48.82.05,1.66.33,2.43-.21a3.62,3.62,0,0,1,3-.52c1.56.38,3.2.09,4.73.65h0c.64.48,1.24,1,1.92,1.43a.74.74,0,0,0,1.1-.25A3.19,3.19,0,0,1,38.52,61a1.45,1.45,0,0,0,.91-.63ZM38,36.64a3.43,3.43,0,0,1-3-1.75c-.17-.22-.48-.62-.53-.59-.79.42-1.43-.12-2.14-.22-1-.15-2.11.31-3.09-.33,0,0-.17,0-.22.08-.58.7-1.52.65-2.26.92a2.34,2.34,0,0,1-2.47-.42,2.29,2.29,0,0,0-1.84-.05,5,5,0,0,1-3.22,1.78c-.47.1-.51.3-.45.69a5.2,5.2,0,0,0,.95,2.18c.31.44.56.66,1,.3.19-.15.44-.22.6,0a.49.49,0,0,1-.09.68c-.12.11-.27.2-.49.35,1.59.55,2.75,2,4.64,1.73a.9.9,0,0,1,.6.25.93.93,0,0,0,1.16,0,3.42,3.42,0,0,1,3.41.1,2.9,2.9,0,0,0,2.84.18A13.58,13.58,0,0,0,36.79,40a1,1,0,0,0,.15-1.47c-.17-.21-.46-.65,0-.87S37.54,36.93,38,36.64ZM7.63,26.77a19.44,19.44,0,0,1-.49,3,23.69,23.69,0,0,0-.83,4.64c-.05.43-.33,1,.47,1.21,1,.22,1.14.47,1,1.55a1.86,1.86,0,0,0,1.9,2.23,8.2,8.2,0,0,1,2.93.23c.84.28,1.72.91,2.71.36.06,0,.16,0,.25,0,1.31.06,2.64.42,3.94-.34a4.62,4.62,0,0,1-1.28-3c0-.29-.26-.26-.43-.38a4.52,4.52,0,0,0-3.36-.67c-.07,0-.15-.06-.23-.09a4.21,4.21,0,0,1-2.85-3.68c-.09-.55-.05-1-.86-1-.43,0-.7-.42-.64-.91a5.59,5.59,0,0,0,.12-.74c0-.38.23-.89-.08-1.1s-.45.39-.76.49c-.1,0-.2.13-.3.13s-.46-.13-.22-.33c.47-.4.19-.57-.17-.68S7.87,27.24,7.63,26.77Zm37.7,35.11c-1.21-.83-2.44-.78-3.51-1.22a1,1,0,0,0-.74,0c-1.57.77-3.35,1.17-4.54,2.61a.39.39,0,0,1-.51.15,3.64,3.64,0,0,1-1.17-.59A4.61,4.61,0,0,0,32,61.56a17.44,17.44,0,0,1-3.15-.35,2.58,2.58,0,0,0-1.94.31,3,3,0,0,1-2.76.36c-.16-.06-.41-.16-.49.11a.44.44,0,0,0,.23.5,1.88,1.88,0,0,0,.55.19,14.62,14.62,0,0,0,4.94.52,11.74,11.74,0,0,1,3.8.37c.92.17,1.91-.17,2.77.43.09.06.35.06.4,0,.5-.72,1.45-.33,2-.84A.71.71,0,0,1,39,63C41.2,63.52,43,62.16,45.33,61.89ZM11.06,40.16c-.79,0-.88.14-.76.78.06.3.11.6.17.9C10.71,43,12.16,44.2,13.22,44c1.33-.3,2.65.16,4-.13a.76.76,0,0,1,.83.28.42.42,0,0,0,.66.08c.22-.16.05-.41,0-.59a11.53,11.53,0,0,0-1.24-2.16c-.22-.27-.5-.55-.8-.47-.72.2-1.52-.46-2.19.27-.2.22-.59,0-.75-.18C12.94,40.13,11.68,40.95,11.06,40.16ZM49.2,9.69a8,8,0,0,0,.72,1.22,4.94,4.94,0,0,1,1.25,1.85c.17.66.35,1.24,1.27.77a3.63,3.63,0,0,1,1.24-.16c.18,0,.37.06.41-.26a2.26,2.26,0,0,0-1.48-2,2.68,2.68,0,0,1-1.35-.57C50.66,10.06,50.1,9.48,49.2,9.69ZM29.56,8.31a1.78,1.78,0,0,0,1,.29,1.37,1.37,0,0,1,1.15.7,1.42,1.42,0,0,0,1.31.81c-.41-1.38.65-2.06,1.48-3.05C32.68,7.46,30.91,6.93,29.56,8.31Zm5.75,33.93c.25.23.5.45.73.68a.74.74,0,0,0,1.25-.09,7.64,7.64,0,0,0,1-2.79c0-.2-.13-.3-.27-.37s-.21.08-.27.19C37.14,40.88,36.08,41.39,35.31,42.24Zm6.18,2.48a8.23,8.23,0,0,0-.08,3.51c.29-.5.59-1,.86-1.49.63-1.21.62-1.21-.5-1.86Zm-19.11-3c1.3,2.51,1.85,2.67,3.35.94C24.48,42.61,23.2,42.91,22.37,41.74ZM36,46.24c.33-.7.6-1.24.85-1.8.06-.14.27-.34-.07-.45-.49-.16-1-.34-1.56-.55A18.46,18.46,0,0,0,36,46.24Zm-10.7.58V44.09c-.45.32-.91.18-1.43.3A10.61,10.61,0,0,1,25.27,46.83Zm1.34-12.77c-.61.18-1.17-.51-1.87-.08A2.39,2.39,0,0,0,26.61,34.06Z"/><path id="_Path_" data-name="&lt;Path&gt;" class="cls-1" d="M45.33,61.89C43,62.16,41.2,63.52,39,63a.71.71,0,0,0-.64.13c-.58.51-1.52.12-2,.84,0,.07-.3.07-.4,0-.86-.6-1.85-.26-2.77-.43a11.74,11.74,0,0,0-3.8-.37,14.62,14.62,0,0,1-4.94-.52,1.88,1.88,0,0,1-.55-.19.44.44,0,0,1-.23-.5c.08-.27.33-.17.49-.11a3,3,0,0,0,2.76-.36,2.58,2.58,0,0,1,1.94-.31,17.44,17.44,0,0,0,3.15.35,4.61,4.61,0,0,1,2.9,1.31,3.64,3.64,0,0,0,1.17.59.39.39,0,0,0,.51-.15c1.18-1.44,3-1.84,4.54-2.61a1,1,0,0,1,.74,0C42.89,61.11,44.13,61.06,45.33,61.89Z"/><path id="_Path_2" data-name="&lt;Path&gt;" class="cls-1" d="M26.61,34.06A2.39,2.39,0,0,1,24.74,34C25.44,33.55,26,34.24,26.61,34.06Z"/><path id="_Path_3" data-name="&lt;Path&gt;" class="cls-1" d="M56.69,34.31c0,.07.05.18,0,.2s-.12,0-.14-.09Z"/><path id="_Path_4" data-name="&lt;Path&gt;" class="cls-1" d="M15.3,12.59l-.14.15L15,12.62l.22-.12Z"/><path id="_Path_5" data-name="&lt;Path&gt;" class="cls-1" d="M15.17,12.5s.12-.15.14-.14,0,.15,0,.23Z"/><path id="_Path_6" data-name="&lt;Path&gt;" class="cls-1" d="M48.06,20.35c0,.1-.06.23-.2.22a.57.57,0,0,1-.23-.09,10.92,10.92,0,0,0-3-1.39c-.22,0-.38-.19-.29-.41a.57.57,0,0,1,.41-.24A4.07,4.07,0,0,1,48,20.19,1.34,1.34,0,0,1,48.06,20.35Z"/><path id="_Path_7" data-name="&lt;Path&gt;" class="cls-1" d="M16.84,23c0,.35-.84.83-1.22.61a1.42,1.42,0,0,0-1.76.18c-.13.1-.25.26-.43.08s-.07-.38.08-.51c.52-.47,1.05-1,1.85-.58a.84.84,0,0,0,.85-.05C16.53,22.52,16.72,22.69,16.84,23Z"/><path id="_Path_8" data-name="&lt;Path&gt;" class="cls-1" d="M29.45,29.34c.27.06.28.3.4.44.41.48.69,1.34,1.57.53.28-.26.73.11,1.08-.11,0,0,.16.06.17.12a.29.29,0,0,1-.13.37c-.61.23-1.26.68-1.83.6s-1.11-.79-1.38-1.46C29.27,29.64,29.25,29.44,29.45,29.34Z"/><path id="_Path_9" data-name="&lt;Path&gt;" class="cls-1" d="M17.86,25.4a1.5,1.5,0,0,1,.58.17.45.45,0,0,1,.09.72c-.22.25-.32.21-.53-.09-.36-.52-1.46-.13-1.79.61-.08.18-.06.42-.34.31s-.18-.31-.12-.5A2.12,2.12,0,0,1,17.86,25.4Z"/><path id="_Path_10" data-name="&lt;Path&gt;" class="cls-1" d="M27.82,18.48c-.16-.72-.33-1.24-1-1.35-.25,0-.38-.39-.47-.66s-.13-.44,0-.55.3.14.43.27.36.44.76.24.71.11.67.57A2.79,2.79,0,0,1,27.82,18.48Z"/><path id="_Path_11" data-name="&lt;Path&gt;" class="cls-1" d="M51.91,36.66a4.71,4.71,0,0,1,.58.07c.26.06.5.21.39.52s-.26.36-.59.2c-.76-.38-1.36.27-2.05.39-.2,0-.42.3-.56,0s.13-.37.3-.44C50.62,37.14,51.14,36.58,51.91,36.66Z"/><path id="_Path_12" data-name="&lt;Path&gt;" class="cls-1" d="M47.07,37.75s-.11-.09-.11-.13c0-1-.4-1.66-1.58-1.38a.17.17,0,0,1-.22-.18c0-.15,0-.27.21-.3s.59-.14.89-.17c.7-.09,1.06.26,1.08,1A1.59,1.59,0,0,1,47.07,37.75Z"/><path id="_Path_13" data-name="&lt;Path&gt;" class="cls-1" d="M30.82,22.58c.38,0,.75.24,1.17,0,.16-.07.32.11.36.27a.37.37,0,0,1-.26.46.86.86,0,0,1-.49.07c-.64-.23-1.28-.53-1.79.23,0,0-.15,0-.21-.07s-.07-.25,0-.37A1.1,1.1,0,0,1,30.82,22.58Z"/><path id="_Path_14" data-name="&lt;Path&gt;" class="cls-1" d="M24.26,10.95c-.16.25-.3.51-.64.27-.65-.46-1.18-.16-1.7.25-.13.11-.23.25-.4.06s-.05-.23,0-.37c.34-.75,2.13-1,2.62-.43A1.45,1.45,0,0,1,24.26,10.95Z"/><path id="_Path_15" data-name="&lt;Path&gt;" class="cls-1" d="M57.53,29.88a.93.93,0,0,1,.79.54c.11.2,0,.3-.08.43a.26.26,0,0,1-.42,0c-.55-.5-1-.21-1.37.23-.11.12-.15.33-.36.17S56,31,56,30.83C56.25,30.05,57,30.09,57.53,29.88Z"/><path id="_Path_16" data-name="&lt;Path&gt;" class="cls-1" d="M54,21.22c.23,0,.52,0,.57.3s-.23.4-.43.38c-.61,0-.88.38-1.17.78-.12.17-.22.35-.45.19s-.12-.28,0-.45C52.77,21.78,53.11,21.18,54,21.22Z"/><path id="_Path_17" data-name="&lt;Path&gt;" class="cls-1" d="M19.61,29.13c.33,0,.58,0,.72.29a.4.4,0,0,1,0,.47c-.24.26-.49-.09-.63-.05-.52.14-1,.05-1.55.15-.16,0-.37.09-.44-.09s.13-.32.32-.41C18.56,29.26,19.17,29.4,19.61,29.13Z"/><path id="_Path_18" data-name="&lt;Path&gt;" class="cls-1" d="M25.48,29.51a.71.71,0,0,1-.63-.35c-.14-.17-.37-.37-.18-.58s.39,0,.53.18c.29.38.5.23.69-.09a3.28,3.28,0,0,1,.26-.42c.19-.24.46-.59.74-.38s0,.51-.25.71C26.27,28.92,26.18,29.59,25.48,29.51Z"/><path id="_Path_19" data-name="&lt;Path&gt;" class="cls-1" d="M52.58,16.87a.79.79,0,0,1,.74.31.4.4,0,0,1,0,.53c-.09.1-.22.25-.34.13-.6-.59-.68.08-.92.36-.1.12-.15.34-.36.28s-.15-.33-.12-.5C51.66,17.4,51.92,16.94,52.58,16.87Z"/><path id="_Path_20" data-name="&lt;Path&gt;" class="cls-1" d="M28.94,13c0,.2,0,.6-.39.63s-.25-.36-.28-.6c-.06-.49-.12-1-.63-1.28-.13-.07-.22-.22-.14-.35s.28-.12.44,0A2.08,2.08,0,0,1,28.94,13Z"/><path id="_Path_21" data-name="&lt;Path&gt;" class="cls-1" d="M36.06,11.42a1.41,1.41,0,0,1,1.43-1.23.37.37,0,0,1,.25.18.29.29,0,0,1-.18.4c-.57.17-1,.4-1,1.12,0,0-.19.18-.24.16C36.08,11.94,36.07,11.67,36.06,11.42Z"/><path id="_Path_22" data-name="&lt;Path&gt;" class="cls-1" d="M56,36.6c-.36-.05-.76.48-.91,0s.42-.52.73-.65c.53-.22.92.06.84.6a2.91,2.91,0,0,1-.37,1.38C55.89,37.55,56.23,37,56,36.6Z"/><path id="_Path_23" data-name="&lt;Path&gt;" class="cls-1" d="M46.22,16.87a1,1,0,0,1-.82-.35.34.34,0,0,1,0-.46c.11-.14.24-.25.42-.12A.76.76,0,0,0,47,15.78c.12-.14.25-.22.42-.07s0,.24,0,.37C47.2,16.65,46.73,16.79,46.22,16.87Z"/><path id="_Path_24" data-name="&lt;Path&gt;" class="cls-1" d="M24.32,22.1c.26,0,.55.06.55.37s-.24.23-.48.25a1.31,1.31,0,0,0-1.28.84c-.06.18-.11.33-.32.23s-.19-.24-.15-.42A2,2,0,0,1,24.32,22.1Z"/><path id="_Path_25" data-name="&lt;Path&gt;" class="cls-1" d="M39,29.15c.15-.51.3-.95.88-1l.66-.09c.22,0,.48-.41.63-.06s-.25.57-.51.62c-.54.1-1.14,0-1.28.76a.16.16,0,0,1-.27.06A.72.72,0,0,1,39,29.15Z"/><path id="_Path_26" data-name="&lt;Path&gt;" class="cls-1" d="M18.48,33.2c-.32,0-.32-.28-.23-.47a1.72,1.72,0,0,1,1.28-.93.45.45,0,0,1,.51.34.58.58,0,0,1-.1.62c-.21.2-.34.1-.54-.08s-.48,0-.64.21S18.67,33.17,18.48,33.2Z"/><path id="_Path_27" data-name="&lt;Path&gt;" class="cls-1" d="M38.22,14c-.05.4,0,.67.32.76.19.05.42.11.26.38a.47.47,0,0,1-.49.26,1.15,1.15,0,0,1-.81-1.42c.1-.24.23-.49.53-.43S38.22,13.85,38.22,14Z"/><path id="_Path_28" data-name="&lt;Path&gt;" class="cls-1" d="M58.16,20.3a.37.37,0,0,1-.05.14c-.05.06-.16.15-.18.13-.61-.42-1,.36-1.43.29s-.06-.56.09-.83a.72.72,0,0,1,1-.25C57.82,19.88,58.2,19.88,58.16,20.3Z"/><path id="_Path_29" data-name="&lt;Path&gt;" class="cls-1" d="M13.89,15.4c-.14.42-.35.79-.53.59-.4-.44-.64-.21-1,0-.14.09-.33.15-.46,0s0-.36.17-.48c.43-.36.87-.76,1.47-.28A1.29,1.29,0,0,0,13.89,15.4Z"/><path id="_Path_30" data-name="&lt;Path&gt;" class="cls-1" d="M41.51,14.87c.79,0,1.37.56,2.11.58.06,0,.16.16.17.25s-.17.17-.3.18c-.85,0-1.56-.57-2.41-.6,0,0-.14-.21-.11-.27C41.09,14.72,41.35,14.92,41.51,14.87Z"/><path id="_Path_31" data-name="&lt;Path&gt;" class="cls-1" d="M39.39,34.52c0,.06-.07.14-.11.21-.15.25-.39.19-.6.13a1.2,1.2,0,0,1-.91-1,.57.57,0,0,1,.22-.6.24.24,0,0,1,.38.17.68.68,0,0,0,.77.76C39.27,34.22,39.37,34.35,39.39,34.52Z"/><path id="_Path_32" data-name="&lt;Path&gt;" class="cls-1" d="M55.41,28.22a.42.42,0,0,1-.19.35.22.22,0,0,1-.36,0c-.23-.56-.57-.69-1.08-.34-.06,0-.22,0-.29-.07s-.05-.2,0-.29a1.16,1.16,0,0,1,1.09-.46A1.13,1.13,0,0,1,55.41,28.22Z"/><path id="_Path_33" data-name="&lt;Path&gt;" class="cls-1" d="M11.19,18.26a.65.65,0,0,1-.73.5c-.41,0-.76,0-.89.46a.22.22,0,0,1-.33.14A.49.49,0,0,1,9.13,19c0-.59,1.38-1.28,1.9-1C11.11,18.09,11.15,18.2,11.19,18.26Z"/><path id="_Path_34" data-name="&lt;Path&gt;" class="cls-1" d="M46.48,23.4c-.08.23,0,.67-.39.68s-.25-.41-.24-.64a1.1,1.1,0,0,0-.5-1.06c-.13-.09-.28-.24-.14-.41s.29,0,.45,0A1.53,1.53,0,0,1,46.48,23.4Z"/><path id="_Path_35" data-name="&lt;Path&gt;" class="cls-1" d="M43,7.8l.61.17c.23.07.45.18.31.46a.34.34,0,0,1-.55.16,1.26,1.26,0,0,0-1.12-.06c-.18,0-.37.24-.46-.05A.38.38,0,0,1,42,8,7.6,7.6,0,0,1,43,7.8Z"/><path id="_Path_36" data-name="&lt;Path&gt;" class="cls-1" d="M58.25,26.8c-.3,0-.35-.2-.27-.42a3.09,3.09,0,0,1,1.73-1.08c.32,0,.4.31.19.46C59.38,26.16,58.68,26.28,58.25,26.8Z"/><path id="_Path_37" data-name="&lt;Path&gt;" class="cls-1" d="M39.23,8.33c.27.08.72.21,1.16.36.16.06.4.15.3.4a.37.37,0,0,1-.49.2,8.56,8.56,0,0,0-1.56-.51c-.13,0-.21-.11-.16-.23S38.82,8.31,39.23,8.33Z"/><path id="_Path_38" data-name="&lt;Path&gt;" class="cls-1" d="M43.92,37.7a1.36,1.36,0,0,1,.38.08c.24.11.61.2.44.56s-.4.36-.67.08a.35.35,0,0,0-.58,0c-.13.14-.26.47-.5.19s0-.47.14-.67A.78.78,0,0,1,43.92,37.7Z"/><path id="_Path_39" data-name="&lt;Path&gt;" class="cls-1" d="M9.12,21.95c0,.07-.1.24-.17.24-.56.05-.69.38-.71.89a.23.23,0,0,1-.43.09.93.93,0,0,1,.08-1.08.87.87,0,0,1,1-.46C9,21.65,9.09,21.76,9.12,21.95Z"/><path id="_Path_40" data-name="&lt;Path&gt;" class="cls-1" d="M13.86,31.68a.82.82,0,0,1,.33-.75.38.38,0,0,1,.53,0c.17.15.09.3,0,.42-.29.28-.16.62-.11.94s.24.36-.05.48-.37-.1-.46-.27A1.32,1.32,0,0,1,13.86,31.68Z"/><path id="_Path_41" data-name="&lt;Path&gt;" class="cls-1" d="M51.71,40.59a.26.26,0,0,1-.29-.15.24.24,0,0,1,0-.3,2.12,2.12,0,0,1,1.69-.72c.32,0,.3.29.09.47C52.8,40.28,52.14,40.2,51.71,40.59Z"/><path id="_Path_42" data-name="&lt;Path&gt;" class="cls-1" d="M43.92,32.37c-.32.19-.7.44-1.11.64a.55.55,0,0,1-.67-.21c-.12-.15-.08-.53.06-.5.57.11,1-.25,1.57-.24C43.89,32.06,44,32.13,43.92,32.37Z"/><path id="_Path_43" data-name="&lt;Path&gt;" class="cls-1" d="M34.83,25.06c.21,0,.61.05.54.5s-.41.09-.63.09a2.72,2.72,0,0,0-1,.3c-.13.05-.3.08-.37-.06s0-.31.18-.4A2.79,2.79,0,0,1,34.83,25.06Z"/><path id="_Path_44" data-name="&lt;Path&gt;" class="cls-1" d="M48.36,12.77c0,.49-.19.79-.58.9-.21.05-.51.23-.64-.13s.15-.37.36-.44.44-.29.22-.62c-.11-.17-.25-.46,0-.57s.31.24.43.4A.63.63,0,0,1,48.36,12.77Z"/><path id="_Path_45" data-name="&lt;Path&gt;" class="cls-1" d="M40.61,12.55a.85.85,0,0,1,.52-1c.23-.1.59-.25.75.05s-.15.51-.41.57-.35.22-.4.45-.12.36-.3.33S40.65,12.62,40.61,12.55Z"/><path id="_Path_46" data-name="&lt;Path&gt;" class="cls-1" d="M22.65,17c-.17-.13-.5,0-.54-.29s.21-.33.45-.33a.75.75,0,0,0,.7-.37c.12-.19.29-.29.48-.13s.07.35,0,.53C23.47,16.84,23,16.89,22.65,17Z"/><path id="_Path_47" data-name="&lt;Path&gt;" class="cls-1" d="M31,10.32c.11.31.23.61.31.93s.05.42-.21.46-.23-.15-.29-.31c-.13-.35-.17-.78-.62-.9-.25-.06-.45-.15-.32-.43s.39-.22.62-.08.36.25.53.37Z"/><path id="_Path_48" data-name="&lt;Path&gt;" class="cls-1" d="M45.49,11.17a3.08,3.08,0,0,1-.41-.12c-.26-.11-.72-.13-.62-.51s.47,0,.72,0a1.06,1.06,0,0,1,.42,0c.25,0,.68-.36.71.18S45.91,11.16,45.49,11.17Z"/><path id="_Path_49" data-name="&lt;Path&gt;" class="cls-1" d="M48.54,22.4c-.14.38.18,1.1-.21,1.08s-.31-.72-.3-1.13-.23-1.08.19-1.06C48.78,21.32,48.34,22,48.54,22.4Z"/><path id="_Path_50" data-name="&lt;Path&gt;" class="cls-1" d="M17.9,15.84c.09.06.25.12.25.17a2.26,2.26,0,0,0,.53,1.25c.1.17,0,.3-.26.28-.51-.06-1-1.14-.73-1.54A1.05,1.05,0,0,1,17.9,15.84Z"/><path id="_Path_51" data-name="&lt;Path&gt;" class="cls-1" d="M31.52,14.61A1.74,1.74,0,0,1,31,15.79c-.17.2-.5.45-.72.2s.19-.35.31-.53.34-.63.52-.94a.26.26,0,0,1,.35-.14C31.5,14.43,31.51,14.58,31.52,14.61Z"/><path id="_Path_52" data-name="&lt;Path&gt;" class="cls-1" d="M34,20.57c.42-.08.69.24.87.7.08.2.11.39-.13.49s-.42,0-.45-.21-.11-.45-.45-.46-.59.19-.57-.22S33.58,20.6,34,20.57Z"/><path id="_Path_53" data-name="&lt;Path&gt;" class="cls-1" d="M44.44,29.72c-.25.11-.35,0-.41,0s0-.26.05-.38c.34-.42.91-.33,1.33-.58,0,0,.15.07.19.14s0,.26-.09.36A2.25,2.25,0,0,1,44.44,29.72Z"/><path id="_Path_54" data-name="&lt;Path&gt;" class="cls-1" d="M46.4,26.15c-.13.27-.6.49-1,.73,0,0-.05,0-.08,0s-.28-.17-.18-.38c.25-.49.81-.6,1.17-1C46.27,25.52,46.54,25.69,46.4,26.15Z"/><path id="_Path_55" data-name="&lt;Path&gt;" class="cls-1" d="M12.25,27.85a.3.3,0,0,1-.27-.26c-.07-.33.59-1.36.92-1.39a.38.38,0,0,1,.26.15A4.06,4.06,0,0,1,12.25,27.85Z"/><path id="_Path_56" data-name="&lt;Path&gt;" class="cls-1" d="M40.7,20.58a.85.85,0,0,1,.23.15.26.26,0,0,1,0,.37,1,1,0,0,1-.5.25c-.33,0-.66.67-.89.26s.42-.57.7-.82A1.92,1.92,0,0,1,40.7,20.58Z"/><path id="_Path_57" data-name="&lt;Path&gt;" class="cls-1" d="M50.92,27c.29,0,.63,0,.6.32s-.28.45-.6.23c0,0-.05,0-.08,0-.33-.05-.87.4-.92-.19C49.9,27.07,50.58,27.06,50.92,27Z"/><path id="_Path_58" data-name="&lt;Path&gt;" class="cls-1" d="M24.23,12.82c-.24,0-.3-.11-.26-.31a.23.23,0,0,1,.08-.14c.4-.26.72-.69,1.26-.68,0,0,.14.14.12.18C25.18,12.39,24.61,12.5,24.23,12.82Z"/><path id="_Path_59" data-name="&lt;Path&gt;" class="cls-1" d="M42.47,22c0-.12-.12-.38.13-.44s.35.19.36.43a.94.94,0,0,0,0,.25c.08.23.52.35.22.68a.31.31,0,0,1-.39,0,.71.71,0,0,1-.34-.78S42.47,22.05,42.47,22Z"/><path id="_Path_60" data-name="&lt;Path&gt;" class="cls-1" d="M55.08,16c.24.07.69-.16.69.32s-.38.29-.6.26-.82.09-.84-.3S54.79,16.09,55.08,16Z"/><path id="_Path_61" data-name="&lt;Path&gt;" class="cls-1" d="M19.43,21.34a1.09,1.09,0,0,1-.89.42c-.17,0-.37-.14-.29-.3.18-.34.57-.39.9-.48S19.43,21.11,19.43,21.34Z"/><path id="_Path_62" data-name="&lt;Path&gt;" class="cls-1" d="M40.88,25.13c-.22,0-.52.06-.55-.21s.25-.3.48-.3H41c.24-.05.42-.43.71-.11a.2.2,0,0,1,0,.29A.91.91,0,0,1,40.88,25.13Z"/><path id="_Path_63" data-name="&lt;Path&gt;" class="cls-1" d="M26.43,25.28c-.23,0-.39-.07-.34-.19.18-.47.67-.47,1.06-.61.17-.06.38,0,.31.25C27.28,25.23,26.7,25,26.43,25.28Z"/><path id="_Path_64" data-name="&lt;Path&gt;" class="cls-1" d="M57.47,23.22a.19.19,0,0,1,.15.23c-.05.51-.54.36-.84.48-.13.05-.39.07-.35-.18C56.5,23.28,56.92,23.32,57.47,23.22Z"/><path id="_Path_65" data-name="&lt;Path&gt;" class="cls-1" d="M45,13c-.08.27-.21.44-.37.4-.34-.08-.39-.43-.5-.69a.17.17,0,0,1,.23-.21A5.17,5.17,0,0,1,45,13Z"/><path id="_Path_66" data-name="&lt;Path&gt;" class="cls-1" d="M19.26,13.66c-.21,0-.27-.17-.23-.31a.69.69,0,0,1,.67-.51c.13,0,.34,0,.3.17C19.91,13.42,19.44,13.39,19.26,13.66Z"/><path id="_Path_67" data-name="&lt;Path&gt;" class="cls-1" d="M52.59,32c-.08.3-.3.34-.52.36s-.35,0-.34-.24.32-.21.49-.29S52.51,31.89,52.59,32Z"/><path id="_Path_68" data-name="&lt;Path&gt;" class="cls-1" d="M31.53,52.55c-.07.55.09,1.39-.36,1.44s-.32-.77-.4-1.18a25.65,25.65,0,0,1-.27-2.87.3.3,0,0,1,.17-.35c.28-.09.33.16.39.32A12.34,12.34,0,0,1,31.53,52.55Z"/><path id="_Path_69" data-name="&lt;Path&gt;" class="cls-1" d="M40.42,56.5a2.67,2.67,0,0,1,.36-1.76c.13-.18.28-.41.53-.28s.09.33,0,.5c-.54,1-.15,2-.28,3,0,.14,0,.28,0,.42s0,.37-.24.37-.23-.21-.24-.37C40.48,57.78,40.45,57.14,40.42,56.5Z"/><path id="_Path_70" data-name="&lt;Path&gt;" class="cls-1" d="M36.35,57.19c0-.09,0-.26,0-.42s0-.29.2-.31a.25.25,0,0,1,.3.22,17,17,0,0,1,.42,3.78c0,.14,0,.31-.19.33s-.25-.18-.28-.33C36.68,59.4,36.52,58.33,36.35,57.19Z"/><path id="_Path_71" data-name="&lt;Path&gt;" class="cls-1" d="M27.64,58.48a.35.35,0,0,1,0,.08c-.08.3.19.84-.22.85s-.23-.53-.27-.83c-.14-1.08-.25-2.16-.35-3.25,0-.2-.1-.53.22-.54s.26.29.28.52c.12,1.05.24,2.11.37,3.16Z"/><path id="_Path_72" data-name="&lt;Path&gt;" class="cls-1" d="M36.41,52.75a8.87,8.87,0,0,1,.07-1.91c0-.19,0-.42.27-.44s.29.19.32.4a14.17,14.17,0,0,1-.25,3.29c0,.13-.13.34-.35.26s-.16-.19-.14-.35C36.37,53.58,36.39,53.17,36.41,52.75Z"/><path id="_Path_73" data-name="&lt;Path&gt;" class="cls-1" d="M25.11,56.39c0,.69,0,1.25,0,1.8,0,.17-.06.34-.3.29s-.14-.11-.12-.25a12.13,12.13,0,0,0-.29-4c0-.19-.16-.42.12-.47s.21.19.27.36A5.13,5.13,0,0,1,25.11,56.39Z"/><path id="_Path_74" data-name="&lt;Path&gt;" class="cls-1" d="M40.54,41.93a21.31,21.31,0,0,1-1.48,4.83C38.87,46.1,39.81,43,40.54,41.93Z"/><path id="_Path_75" data-name="&lt;Path&gt;" class="cls-1" d="M43.32,50.46c.44.45.3.92.25,1.36-.07.6-.19,1.2-.3,1.8,0,.13-.08.28-.26.25a.21.21,0,0,1-.17-.25C43,52.57,43.16,51.51,43.32,50.46Z"/><path id="_Path_76" data-name="&lt;Path&gt;" class="cls-1" d="M33.88,61a17.07,17.07,0,0,0-.4-2.86c0-.14-.12-.25,0-.33a.28.28,0,0,1,.37.09,10.67,10.67,0,0,1,.31,2.94c-.07.12-.28,0-.32.15Z"/><path id="_Path_77" data-name="&lt;Path&gt;" class="cls-1" d="M43.75,59.54a4.11,4.11,0,0,1-.48-3.35C43.73,57.4,43.52,58.5,43.75,59.54Z"/><path id="_Path_78" data-name="&lt;Path&gt;" class="cls-1" d="M29,53.31a14.55,14.55,0,0,1-.66-3s.08-.14.14-.18.24.08.24.13A8.57,8.57,0,0,1,29,53.31Z"/><path id="_Path_79" data-name="&lt;Path&gt;" class="cls-1" d="M29.64,58.87c0-.48.07-.76-.15-1s0-.38.18-.47.31.06.36.23a7.13,7.13,0,0,1,.19,2,.33.33,0,0,1-.17.25c-.17.06-.26-.09-.29-.22C29.69,59.3,29.66,59,29.64,58.87Z"/><path id="_Path_80" data-name="&lt;Path&gt;" class="cls-1" d="M39.43,60.32a.55.55,0,0,1-.53-.6c0-.59.23-1.22-.21-1.77,0,0,0-.17.06-.21s.27,0,.37.06a.89.89,0,0,1,.21.69q0,.92.09,1.84Z"/><path id="_Path_81" data-name="&lt;Path&gt;" class="cls-1" d="M38.88,52.87c-.26-.88.16-1.75,0-2.62,0-.1,0-.23.2-.2s.16.1.16.15A4.82,4.82,0,0,1,38.88,52.87Z"/><path id="_Path_82" data-name="&lt;Path&gt;" class="cls-1" d="M21.22,43.21c0,.19,0,.3-.14.31s-.26,0-.3-.09c-.28-.53-.55-1.07-.81-1.62,0,0,0-.15.08-.19a.2.2,0,0,1,.29.06C20.65,42.2,20.95,42.73,21.22,43.21Z"/><path id="_Path_83" data-name="&lt;Path&gt;" class="cls-1" d="M27.74,45.3c.08-.27-.32-.83.18-.85.35,0,.24.62.21,1s.26,1-.21,1.05c-.31,0-.13-.66-.18-1C27.73,45.4,27.74,45.37,27.74,45.3Z"/><path id="_Path_84" data-name="&lt;Path&gt;" class="cls-1" d="M33.1,51.88l-.27-2.37A2,2,0,0,1,33.1,51.88Z"/><path id="_Path_85" data-name="&lt;Path&gt;" class="cls-1" d="M33,43.48c.23.11.64,0,.46.55s-.11,1.18-.24,1.77c-.39-.76-.07-1.57-.2-2.34Z"/><path id="_Path_86" data-name="&lt;Path&gt;" class="cls-1" d="M23.59,48.91c.05.3.06.42-.08.45a.19.19,0,0,1-.24-.15c-.14-.41-.29-.82-.43-1.23a.18.18,0,0,1,.12-.26.2.2,0,0,1,.26.14C23.37,48.27,23.51,48.68,23.59,48.91Z"/><path id="_Path_87" data-name="&lt;Path&gt;" class="cls-1" d="M32.56,35.61a1.46,1.46,0,0,1,.23.07c.3.14.89,0,.83.48s-.57.29-.91.22a1.36,1.36,0,0,0-1.07.31c-.13.09-.25.27-.41.08a.33.33,0,0,1,0-.46A2.38,2.38,0,0,1,32.56,35.61Z"/><path id="_Path_88" data-name="&lt;Path&gt;" class="cls-1" d="M34.35,39.24c-.41-.4-.49.09-.69.31s-.23.29-.41.16-.09-.3,0-.46A1.2,1.2,0,0,1,35,38.63.23.23,0,0,1,35,39,.57.57,0,0,1,34.35,39.24Z"/><path id="_Path_89" data-name="&lt;Path&gt;" class="cls-1" d="M28,39.09c-.44-.26-.55-.06-.59.28,0,.16-.12.26-.28.19a.36.36,0,0,1-.19-.24.84.84,0,0,1,.25-.76.86.86,0,0,1,.82-.28.47.47,0,0,1,.37.56C28.39,39,28.22,39.18,28,39.09Z"/><path id="_Path_90" data-name="&lt;Path&gt;" class="cls-1" d="M24.28,36.76c0,.28-.29.38-.51.46s-.44,0-.56.25-.2.33-.38.2-.11-.36,0-.53c.23-.49.77-.48,1.18-.69C24.14,36.36,24.26,36.56,24.28,36.76Z"/><path id="_Path_91" data-name="&lt;Path&gt;" class="cls-1" d="M13.38,37.53c-.36.12-.9-.23-1.16.34,0,0-.22,0-.29,0a.24.24,0,0,1,0-.37c.22-.29.43-.57.87-.57a4.87,4.87,0,0,0,1-.1c.25,0,.48-.17.67.12a.33.33,0,0,1,0,.39.52.52,0,0,1-.65.24C13.67,37.52,13.54,37.43,13.38,37.53Z"/><path id="_Path_92" data-name="&lt;Path&gt;" class="cls-1" d="M8.75,33.84a.78.78,0,0,1,.68.42.3.3,0,0,1-.06.38.38.38,0,0,1-.61-.16s-.18-.08-.2-.06-.25.5-.54.17c-.11-.12,0-.26.07-.38A.71.71,0,0,1,8.75,33.84Z"/><path id="_Path_93" data-name="&lt;Path&gt;" class="cls-1" d="M8.41,31.87c-.2,0-.36,0-.33-.2.09-.48.53-.53.89-.61s.51,0,.46.32C9.34,32.05,8.63,31.5,8.41,31.87Z"/></g></svg>