<svg id="Layer_1" data-name="Layer 1" xmlns="http://www.w3.org/2000/svg" viewBox="0 0 70 70"><defs><style>.cls-1{fill:#fff;fill-rule:evenodd;}</style></defs><title>fresa</title><g id="_Group_" data-name="&lt;Group&gt;"><path id="_Compound_Path_" data-name="&lt;Compound Path&gt;" class="cls-1" d="M39.57,20.57c.7-2.48,3-4.63,4.89-7a42.7,42.7,0,0,1,3.73-3.63,1.51,1.51,0,0,1,2.33.06c1,.9,2.05,1.74,3,2.71a4.84,4.84,0,0,1,.63,1.66c-.43.15-.86.28-1.28.44a27,27,0,0,0-3,1.19,36.28,36.28,0,0,0-3.27,2.06,8.19,8.19,0,0,0-1.34,1.11c-1,1.09-2,2.22-3.09,3.35,1.77.66,3.8,1.06,5.4,2.11a41.15,41.15,0,0,1,5.38,4.78c1.11,1.05,1.18,2.47,1.24,3.91s.51,2.79.46,4.17a14.23,14.23,0,0,1-3.91,9.2,34.76,34.76,0,0,1-8.5,7c-1.08.61-1.93,1.64-3,2.25A77.76,77.76,0,0,1,31.79,60c-2.23,1-4.47.86-6.7,1.29a10.67,10.67,0,0,1-2,.49,9.25,9.25,0,0,1-5.61-2.26c-3.36-2.66-3.11-6.41-2.91-10.06.15-2.66.67-5.3,1-8s.6-5.39,1.1-8A47.06,47.06,0,0,1,18.73,25c.66-1.69,2.24-3,3.49-4.48A19.47,19.47,0,0,1,25,18a9.21,9.21,0,0,1,2.31-1.17c2.26-.88,4.55-.42,6.69.28,1.3.42,2.34,1.59,3.54,2.37C38.21,19.92,39,20.26,39.57,20.57Zm-.06,2.71c-2-1.52-4-3.08-6.11-4.55a4.06,4.06,0,0,0-1.56-.3c-.08,1.09-1,.57-1.53.8s-1.22.45-1.78.76c-1.12.62-1.94.39-2.41-.92-1.71,1.78-3.69,3.3-4.94,5.28s-1.7,4.35-2.38,6.23l2.62.71a17.21,17.21,0,0,1-.51,1.92c-.41,1-.86,2-1.35,2.94a.78.78,0,0,1-.71.22c-1.15-.4-1.12.29-1.17,1.1a48.37,48.37,0,0,1-.65,8,35.08,35.08,0,0,0-.66,8.25,18.17,18.17,0,0,0,.38,2.61,18.33,18.33,0,0,0,.51-2.66c.11-.46.61-.84.94-1.25.4.43,1.09.82,1.13,1.28.13,1.37,0,2.76,0,4.14,0,.36.05.89.28,1a17.85,17.85,0,0,0,2.13,1.06,4.36,4.36,0,0,1,.75-1.12,4.13,4.13,0,0,1,1.3-.52c.65-.19,1.31-.33,2-.49l.46,1.89a25,25,0,0,0,3.11-.64,30,30,0,0,0,3.15-1.43c-1-.35-1.18-1.1-.58-1.75A22.77,22.77,0,0,1,35.14,53a6.88,6.88,0,0,1,2.1-.68c.1.69.2,1.39.29,2.08,0,.12,0,.24,0,.73,1.17-.85,2.15-1.53,3.1-2.24.47-.35,1.28-.73,1.3-1.14C42,50.1,43.15,49.15,44,48.06c1.25-1.52,2.19-1.74,4.28-1,.89-1.28,1.79-2.65,2.77-4,1.94-2.58,1.8-5.55,1.67-8.52,0-.18-.24-.34-.33-.52-.27-.59-.53-1.19-.77-1.79s-.41-1.16-.61-1.75l-.63.22c.81-1.28-.17-1.57-.77-2.23a12.37,12.37,0,0,0-6.5-3.78c-1.33-.31-2.69-.44-4.11-.66ZM51.35,13.19a11.93,11.93,0,0,0-1.18-1.25c-.51-.41-1.09-.85-1.72-.11-2.11,2.46-4.23,4.92-6.32,7.39-.12.14-.06.44-.09.66C44.57,16.74,48.18,15.26,51.35,13.19Z"/><path id="_Path_" data-name="&lt;Path&gt;" class="cls-1" d="M37.86,39.72c.77.22,1.5.42,2.22.64a1.29,1.29,0,0,1,.6,2.1,37.9,37.9,0,0,1-2.74,2.88,3.47,3.47,0,0,1-1.9.87c-1.08.08-1.33-.53-.85-1.52.58-1.2,1-2.46,2.2-3.27C37.74,41.19,37.7,40.37,37.86,39.72Z"/><path id="_Path_2" data-name="&lt;Path&gt;" class="cls-1" d="M24.69,38.68c.28-2.24,1.23-4.32,3.89-4.18a1.66,1.66,0,0,1,1.08.67,1.31,1.31,0,0,1,0,1.05c-.41,1-.91,2-1.35,3s-1.12,2-2.36,1.45C25.34,40.39,25.1,39.37,24.69,38.68Z"/><path id="_Path_3" data-name="&lt;Path&gt;" class="cls-1" d="M24.47,52.37c.66-1.12,1.22-2.18,1.9-3.16.42-.6,1.17-1,1.54-1.6.61-1,1.39-.11,2-.34a5.34,5.34,0,0,1,.44,1.68,4.45,4.45,0,0,1-3.83,4A7.56,7.56,0,0,1,24.47,52.37Z"/><path id="_Path_4" data-name="&lt;Path&gt;" class="cls-1" d="M17.48,45.18c.31-.95.58-1.91.95-2.84s1.65-1.2,2.77-.89,1.07,1.26.83,2a13.57,13.57,0,0,1-1.65,3.14c-.36.54-1.13,1.3-1.54,1.2-.9-.2-1.22-1.12-1.13-2.09,0-.13,0-.27,0-.4Z"/><path id="_Path_5" data-name="&lt;Path&gt;" class="cls-1" d="M49.5,35.92c-.68,1,.55,2.85-.94,3.85a9.9,9.9,0,0,1-2.89.85c-.09-.49-.43-1.25-.24-1.41,1.17-1,.89-2.39,1.17-3.63.19-.9.58-1.62,1.64-1.57S49.66,34.62,49.5,35.92Z"/><path id="_Path_6" data-name="&lt;Path&gt;" class="cls-1" d="M35.26,22.28a7.18,7.18,0,0,1,1.74.46,1.49,1.49,0,0,1,.62,1c0,.26-.37.59-.64.81-1.14.93-2.27,1.87-3.47,2.71a6.53,6.53,0,0,1-1.7.59,5.94,5.94,0,0,1,.29-1.6A23.87,23.87,0,0,1,34,23C34.24,22.64,34.87,22.5,35.26,22.28Z"/><path id="_Path_7" data-name="&lt;Path&gt;" class="cls-1" d="M37.9,29c.51.33,1.43.64,1.82,1.28.23.37-.27,1.36-.67,1.9a13,13,0,0,1-2.22,2.29,1.26,1.26,0,0,1-1.21-.22,4.52,4.52,0,0,1,1.2-5C37,29.08,37.33,29.11,37.9,29Z"/><path id="_Path_8" data-name="&lt;Path&gt;" class="cls-1" d="M27.88,23.07a9.47,9.47,0,0,1,1.62,2A1.4,1.4,0,0,1,28.78,27c-.65.32-1.19.86-1.83,1.21-.36.2-1,.45-1.2.29a1.48,1.48,0,0,1-.44-1.24,10.14,10.14,0,0,1,.94-2.68C26.52,24,27.15,23.7,27.88,23.07Z"/><path id="_Path_9" data-name="&lt;Path&gt;" class="cls-1" d="M43.23,31c-.06-1-.09-2.1-.2-3.14-.1-.89.44-1.06,1.11-1.14,1.17-.13,2.38.52,2.17,1.35a16.46,16.46,0,0,1-1.63,3.76,1.42,1.42,0,0,1-1.27.34c-.23-.06-.3-.73-.45-1.13Z"/></g></svg>