<svg id="Layer_1" data-name="Layer 1" xmlns="http://www.w3.org/2000/svg" viewBox="0 0 70 70"><defs><style>.cls-1{fill:#fff;}</style></defs><title>frijoles</title><path id="_Compound_Path_" data-name="&lt;Compound Path&gt;" class="cls-1" d="M41.15,25.64c2.75.6,5.95.54,8.81,2.11,1.19.65,2.59.82,3.83,1.46a40,40,0,0,1,9,6.27c.84.78,2,.55,3,.71.36.06.74,0,1.09,0,.55.12.63.77.27.86-.8.21-1.38,1.15-2.07,1-3.71-.71-6.88,1.36-10.34,1.87-1,.14-1.93.08-2.9.22-2.73.4-5.15,1.82-7.87,2.25-3.73.6-7.34,1.84-11.2,1.81a84.9,84.9,0,0,0-10.39.51c-1.38.16-2.62-.4-3.94-.54-2.95-.32-6-.12-8.82-1.18a11.35,11.35,0,0,1-6.71-6c-.32-.7.44-1.24,1-1.55,3.74-1.88,7.45-3.86,11.27-5.56a26.91,26.91,0,0,1,9.64-2.54A92.72,92.72,0,0,0,36,26.13C37.57,25.85,39.2,25.81,41.15,25.64Zm-30,7.6c-1.63.2-2.63,1.56-4.22,2.15,2.08.39,3.16-.93,4.36-2l.43-.32c1.4,0,2.94-.47,4.08.61.76.72,1.19.46,1.81,0,1.2-.92,2.53-1.6,4.05-1.09a3.33,3.33,0,0,0,3.61-.4,5.69,5.69,0,0,1,5.48-.33,1.49,1.49,0,0,0,1.91-.35A5.28,5.28,0,0,1,35,30.32c2.16-.52,4.07-.26,5.56,1.52.46-.55.62-1.17,1.21-1.48a4.36,4.36,0,0,1,5.77.85c.19.18.41.68.76.23C49.37,30,50.94,30,52.56,30c-1-.47-2.09-.67-3-1.18-2.45-1.39-5.18-1.61-7.83-1.88-3.39-.34-6.75.59-10.13.88-2.66.23-5.28.73-8,.8a12,12,0,0,0-3.81.65c-2.82,1-5.56,2.32-8.27,3.64C11.38,33,11.17,33,11.11,33.24Zm49.37,4c-2.44-.51-4.73-1.5-7.09-1.68a108.45,108.45,0,0,0-15.19.22c-2.58.17-5.15.5-7.74.67a44.34,44.34,0,0,0-7.69.88,31.63,31.63,0,0,1-9.89.75,13.18,13.18,0,0,1-5.6-1.19,3.68,3.68,0,0,0-2.38-.14c-.48.08-.6.3-.36.83C5.19,39,6.46,39.82,7.6,40.76c1.66,1.37,3.8,1.42,5.73,2,1.27.42,2.51-.2,3.82.12a16.16,16.16,0,0,0,5.74.72,74.76,74.76,0,0,1,9.67-.52c3.63,0,7-1.05,10.53-1.6a18.41,18.41,0,0,0,4.64-1.29A14.76,14.76,0,0,1,53,39C55.6,38.89,58,37.89,60.48,37.23ZM35.27,35a24.25,24.25,0,0,0,3.59-.37c.37,0,.9.33,1.11-.36a1.51,1.51,0,0,0-.29-1.66,5,5,0,0,0-6.48-.21c-.16.15-.36.48-.29.62.27.63.37,1.3.6,1.91.06.17.89,0,1.37.05Zm8.41-.5c.53,0,1.05,0,1.58,0a13,13,0,0,0,1.68-.23c.35-.07.87.3,1-.26a1.25,1.25,0,0,0-.47-1.3c-.27-.25-.57-.45-.82-.71a3.18,3.18,0,0,0-4.29-.64,2.44,2.44,0,0,0-.94,2.79c.2.91,1,.12,1.51.34A1.85,1.85,0,0,0,43.68,34.49ZM28.39,32.55a6.94,6.94,0,0,0-2.67.53c-.82.27-1,1-.83,1.89s.76.78,1.4.71c1.44-.16,2.89-.26,4.33-.44.36,0,1,.33,1.06-.35s.23-1.45-.68-1.73A6.94,6.94,0,0,0,28.39,32.55ZM18.64,37a16.45,16.45,0,0,0,3.77-.75c.4-.14,1.08.25,1.16-.51a1.52,1.52,0,0,0-.93-1.66,4.27,4.27,0,0,0-5,.87c-.6.63,0,1.21.06,1.8S18.35,36.81,18.64,37ZM51.1,31.2a5,5,0,0,0-1.29.35c-1,.57-.74,1.42-.61,2.26s.82.41,1.25.46c1.12.12,2.26.12,3.38.23.64.06.84-.15.82-.78C54.59,32.35,53,31.18,51.1,31.2ZM9.54,36.35c1.72.74,3.56.67,5.36.81.36,0,1,.25,1.07-.21a2.05,2.05,0,0,0-.13-1.74,2.1,2.1,0,0,0-1.12-.89c-1.18-.27-2.37-.55-3.39.49C10.78,35.38,10.13,35.85,9.54,36.35ZM60,35.67A4.87,4.87,0,0,0,56.56,33c-.26,0-.78,0-.65.28.25.6-.27,1.57.55,1.79C57.59,35.4,58.72,35.94,60,35.67ZM56.06,32c-.63-.57-1.11-1.07-1.9-1C54.87,31.08,54.93,32.27,56.06,32Z"/></svg>