<svg id="Layer_1" data-name="Layer 1" xmlns="http://www.w3.org/2000/svg" viewBox="0 0 70 70"><defs><style>.cls-1{fill:#fff;}</style></defs><title>huevo</title><path class="cls-1" d="M42.51,23.91c-.46-3.53-4-8.2-7.81-6.12a9.27,9.27,0,0,0-8.81,9.14c-.09,5.3,4.45,7.74,9.39,6.86A8.92,8.92,0,0,0,42.51,23.91ZM41,27.28a7.8,7.8,0,0,1-7.45,5.41c-4.48,0-7.22-3.09-6.23-7.48.8-3.53,3.46-5.65,6.69-6.73a.52.52,0,0,0,.75.44C39.81,16.68,42.06,23.82,41,27.28Z"/><path class="cls-1" d="M35.58,20a5,5,0,0,0-5.36,3.06c-.08.21.24.4.38.22a5.67,5.67,0,0,1,3.72-2.27c2-.21,2.83,1,3,2.8,0,.39.59.65.82.22C39.12,22.32,37.25,20.36,35.58,20Z"/><path class="cls-1" d="M55,11.16a12.6,12.6,0,0,0-8.73-1.89c-4.61.52-12.74,5.54-16.3,1.24a.23.23,0,0,0-.39.07,3.51,3.51,0,0,0-3.59-.2c-1.81,1.09-2.25,4.62-3.1,6.28-2.06,4-4.82,5.11-8.68,6.9a10.37,10.37,0,0,0-5.48,5.33c-1.84,4.16-1.61,10.4,2,13.59,2,1.78,4.66,2,7.12,2.75,4.44,1.42,5.25,5.06,6.17,9.09s2.44,8,7.09,8.61c5.43.74,10.55-3.24,12.54-8.05,2.63-6.37,1.68-13.41,8.25-17.54,4.56-2.87,9.72-4.66,10.76-10.63S59.84,14.41,55,11.16Zm.43,22.72c-3.52,2-7.21,3.62-9.18,7.39-2.13,4.06-2,8.83-3.76,13-2.7,6.62-13.67,11.49-16.68,2.38-1.06-3.2-1.05-6.95-3.18-9.73-3.25-4.27-10.08-2.37-12.7-7.38a12.18,12.18,0,0,1,.82-11.83c2-3,5.47-3.29,8.32-5a12.63,12.63,0,0,0,4-4,18.68,18.68,0,0,0,1.56-3.1A9.72,9.72,0,0,1,25.19,14c.85-1.29,4-2.54,5.41-1.55a.42.42,0,0,0,.51,0c2.17,1.44,5.2.61,7.81-.18,3-.91,6.18-2,9.4-2,4.3.07,7.52,2.54,10,5.84C63,22.35,62.44,29.85,55.43,33.87Z"/></svg>