<svg id="Layer_1" data-name="Layer 1" xmlns="http://www.w3.org/2000/svg" viewBox="0 0 70 70"><defs><style>.cls-1{fill:#fff;}</style></defs><title>leche</title><path id="_Compound_Path_" data-name="&lt;Compound Path&gt;" class="cls-1" d="M48.62,17.82v0a.34.34,0,0,0,0-.42,10.1,10.1,0,0,0-4.29-3.84c0-1.75-.26-3.53-.38-5.28.34-.16.29-.76-.15-.74-7.22.3-14.51.09-21.72.58a.18.18,0,0,0-.2,0l-.13.07,0,0a2.61,2.61,0,0,0-.66.7c-.27.37-.55.74-.8,1.12l0,0a.29.29,0,0,0-.09.29,20.61,20.61,0,0,0,1,2.77c.25.61.42,1.44,1,1.75a.09.09,0,0,0,.13-.05c.25-.69-.26-1.55-.51-2.2,2-.17,4.71-.43,5.43,1.86l-4.59.17a.26.26,0,0,0-.26.26.25.25,0,0,0-.33.21c-.52,2.76-1.29,5.49-1.89,8.24a.29.29,0,0,0,0,0,.27.27,0,0,0-.11.19C18.71,36,19.52,49,20,61.57a.47.47,0,0,0,.14.33.37.37,0,0,0,.36.31c7.6.45,15.33,0,22.93-.23h0a.33.33,0,0,0,.5-.1,80.06,80.06,0,0,0,5.54-10.13.47.47,0,0,0-.11-.55A146.73,146.73,0,0,0,48.62,17.82Zm-1.05-.52.12.15a.42.42,0,0,0-.37.14,43.62,43.62,0,0,0-3,3.38l.22-.68c.19-.57,1.27-2.91.86-3.32a.23.23,0,0,0,.36-.09.25.25,0,0,0,.07-.13c.26.08.51.16.76.26A2.55,2.55,0,0,0,47.56,17.29Zm-.71-.85-.1,0a8.36,8.36,0,0,0-1.07-.18,10.31,10.31,0,0,0-.64-1c-.26-.4-.53-.79-.8-1.17A16.37,16.37,0,0,1,46.85,16.45Zm-2.69-1.58c.13.23.25.47.38.7a8.55,8.55,0,0,0,.63,1.09c-.44.32-.57,1.1-.74,1.56-.27.72-.58,1.46-.85,2.21A34.1,34.1,0,0,0,44.16,14.86Zm-.42-1.31c-.22-.67-.46-1.34-.67-2s-.35-1.44-.62-2.12h0a11.66,11.66,0,0,1,.89-.76A29.26,29.26,0,0,0,43.73,13.56ZM21.55,9.32a3.21,3.21,0,0,0,.55-.76c6.83.57,13.9.16,20.75-.21a6.91,6.91,0,0,0-.7.78.27.27,0,0,0-.3.13c-6.87.09-13.91,0-20.76.58Zm0,2.47c-.19-.49-.4-1-.63-1.43a149.55,149.55,0,0,0,21-.33,11.42,11.42,0,0,0,1.36,3.69c-5.12.39-10.23.53-15.34.7C27.58,11.48,23.85,11.26,21.51,11.79Zm1.15,3.45a.32.32,0,0,0,0-.08h0c1.94.13,3.89.18,5.85.19a1.35,1.35,0,0,1-1.64,1.26,4.68,4.68,0,0,0-1.29-.17,2.09,2.09,0,0,0-.89.43c-.36.28-1.79,2.37-2.51,1.29C22.36,17.2,22.52,16.23,22.66,15.24ZM22,18.86a1.24,1.24,0,0,0,.85.28c1.59,0,1.72-2,3.57-1.84.83.07,1.51.47,2.19-.24a2.17,2.17,0,0,0,.51-1.7c4.76,0,9.55-.32,14.26-.72h0c-.2,1.26-.35,2.53-.49,3.8-2-1.43-4.92-1.58-6.2.81-.78,1.46-1.43,2-3.15,2.09a6.81,6.81,0,0,0-2.22.18,2.19,2.19,0,0,0-1.57,1.91c-3,0-5.93-.07-8.93-.23h-.05A29.16,29.16,0,0,0,22,18.86ZM42.44,23c-4,.29-7.88.44-11.79.46A8.2,8.2,0,0,1,34,22.32c.25,0,.5,0,.76,0a3.22,3.22,0,0,0,1.84-.76c.53-.49.63-1.2,1-1.77,1.25-1.89,3.48-1.58,5.25-.55C42.7,20.46,42.58,21.72,42.44,23Zm.18,10.7C39.81,33.21,40,29.34,37.87,28c-2.4-1.5-6.07.55-6.64-3.27,3.71-.07,7.43-.41,11-.69C42.42,27.24,42.53,30.45,42.62,33.67ZM32.76,61a.48.48,0,0,0-.13.18c-3.89,0-7.78.07-11.66.26q-.27-7.58-.35-15.17a5,5,0,0,1,5.25-2.74c2.78.62,3.19,3.26,2.59,5.59-.29,1.12-1.45,3.9.35,4.3A5.71,5.71,0,0,0,31,54.55c1.51.53,2.8,1.19,3.14,2.9A3.59,3.59,0,0,1,32.76,61Zm1.26.17a4.38,4.38,0,0,0,.78-4.83,4.53,4.53,0,0,0-1.48-1.79c-1.24-.88-2.93-.84-4.11-1.73l0,0c-1.17-.65.68-4.75.56-6.07A4.7,4.7,0,0,0,27,42.9C24.43,41.71,22,43,20.6,45.09c0-.84,0-1.69,0-2.53,0-6.25.33-12.53,0-18.77a.29.29,0,0,0,.12.06,44.34,44.34,0,0,0,9.9.87c-.34,2.59,2.17,3.41,4.4,3.57a4.12,4.12,0,0,1,4,2.94,8.53,8.53,0,0,0,1,2,2.54,2.54,0,0,0,2.63,1.17c.24,8.86.31,17.72.56,26.58C40.15,61.1,37.08,61.12,34,61.14Zm14.65-9.85c-.42.66-.83,1.35-1.24,2h0c-.6-.16-1.32-1.1-1.65-1.64-.89-1.46-.38-2.51.7-3.67.57-.62.82-.29,1.25-1.17.66-1.34-1.51-6.31.85-6.38a.34.34,0,0,0,.14,0C48.69,44,48.61,47.67,48.67,51.29Zm.06-11.56h0a1.91,1.91,0,0,0-2.38,1.49,4,4,0,0,0,.11,2c.29,1.23.5,1.26,0,2.69-.72,2.21-.38.65-1.17,1.74-1.35,1.87-.86,5.75,1.87,6.15C46,55.86,44.93,58,44,60.08c.43-12.16-.12-24.4-.79-36.53,1.65-1.65,3.19-3.42,4.71-5.18.23,5.43.71,10.84.83,16.28C48.73,36.34,48.73,38,48.72,39.73Z"/></svg>