<svg id="Layer_1" data-name="Layer 1" xmlns="http://www.w3.org/2000/svg" viewBox="0 0 70 70"><defs><style>.cls-1{fill:#fff;}</style></defs><title>maiz</title><path id="_Compound_Path_" data-name="&lt;Compound Path&gt;" class="cls-1" d="M24.18,23.58c0-1-.05-1.94,0-2.91a16.4,16.4,0,0,1,.45-3.85,17,17,0,0,1,1.76-4.21A13,13,0,0,0,27.53,10a10.59,10.59,0,0,1,2.23-3.56A1.65,1.65,0,0,1,30.52,6c.88-.22,1.78-.42,2.68-.55a3.27,3.27,0,0,1,3.4,1.74,11.75,11.75,0,0,1,1.85,4.33,23.94,23.94,0,0,0,1.14,3.42c.27.8.53,1.61.78,2.43s.59,1.88.84,2.84a13.82,13.82,0,0,1,.16,1.45c.12.84.29,1.68.38,2.53s.12,1.72.18,2.69a1.7,1.7,0,0,0,.32-.34,14.83,14.83,0,0,1,3.22-4.59,3.25,3.25,0,0,1,1.12-.63c.87-.31,1.78-.54,2.66-.83a7.44,7.44,0,0,0,1-.46c1-.48,1.9-1,2.87-1.45A6.67,6.67,0,0,0,55.81,17a.71.71,0,0,1,1.23.37c.16,1.16.46,2.37-.4,3.41a3.1,3.1,0,0,1-.92.74c-.74.4-1.55.67-2.28,1.1a7.33,7.33,0,0,0-2.13,1.72,6.56,6.56,0,0,1-1.78,1.43,2,2,0,0,0-1.07,1.68,6.81,6.81,0,0,1-1.09,3.82,6.64,6.64,0,0,0-.57,1.85c-.41,1.37-.76,2.76-1.28,4.08-.32.82-1,1.51-1.37,2.31a9.61,9.61,0,0,0-.65,1.9A9.34,9.34,0,0,1,42,44.78a18.47,18.47,0,0,0-1.17,2.06c-.19.34-.36.68-.58,1a6.93,6.93,0,0,0-.66,3.05c-.18,1.21-.23,2.45-.44,3.66a5.82,5.82,0,0,1-1.1,2.36,16.33,16.33,0,0,1-2.61,2.24c-.28.26-.23.95-.21,1.44a4.18,4.18,0,0,0,.32,1.12,11.51,11.51,0,0,1,.53,1.58,2.45,2.45,0,0,1,0,1.56,1.13,1.13,0,0,1-1.57.31.48.48,0,0,0-.39,0,4.86,4.86,0,0,1-3-.12,1.2,1.2,0,0,1-.66-.89c-.12-1.28-.12-2.57-.15-3.85,0-.8-.24-1.06-1-1.2a6,6,0,0,1-2.83-1.52,4.25,4.25,0,0,1-1.08-2.44c-.29-1.13-.58-2.27-.79-3.42s-.42-2.55-.54-3.84c-.11-1.1-.08-2.21-.15-3.32,0-.67-.21-1.34-.23-2,0-.52.19-1,.16-1.56-.13-2.09-.24-4.18-.5-6.26a37.25,37.25,0,0,0-.91-4.41A27.49,27.49,0,0,0,21.37,27a4.23,4.23,0,0,0-1.7-2.1,15.55,15.55,0,0,0-2.28-1.35,6.05,6.05,0,0,0-2.19-.35c-.23,0-.53.47-.67.78a10.58,10.58,0,0,0-.6,1.77c-.1.41-.3.78-.71.67s-.71-.48-.72-.74a20.93,20.93,0,0,1,.18-2.52s0-.09,0-.13c-.17-1.57.9-2.6,1.63-3.78a1.42,1.42,0,0,1,1.82-.47,3.19,3.19,0,0,0,1.22.24,7.18,7.18,0,0,1,5.68,3.54,3.91,3.91,0,0,0,.4.57c.15.18.34.32.51.48ZM33.29,58l.33.06a15.65,15.65,0,0,0,.76-2.72,14.48,14.48,0,0,0-.22-2.72c-.14-1.53.6-2.83,1.13-4.18a6.43,6.43,0,0,1,.62-1.1,13.42,13.42,0,0,0,1.77-2.81,32.43,32.43,0,0,1,2.09-4.19A.86.86,0,0,1,41,40.06a.61.61,0,0,1,.14.4A3.71,3.71,0,0,0,39.94,42c-.33.58-.59,1.19-.87,1.79a12.88,12.88,0,0,1-.59,1.27c-.61,1-1.3,1.95-1.89,3a14.91,14.91,0,0,0-.94,2,5.1,5.1,0,0,0-.44,1.52c-.05.91.06,1.82,0,2.73a4.78,4.78,0,0,1-.56,2.92,1.57,1.57,0,0,0-.13.57c.4-.15.82-.32.92-.6a31.13,31.13,0,0,0,1-3.67c.27-1.31.41-2.64.56-4,.17-1.52,1-2.77,1.59-4.13a18.89,18.89,0,0,1,1.13-2c.3-.54.58-1.09.91-1.61.09-.15.34-.19.52-.28.06.15.2.33.15.43-.48,1-1,2-1.48,3.06-.26.54-.5,1.1-.75,1.64a.94.94,0,0,0,.49-.38c.1-.17.13-.37.22-.55a6.08,6.08,0,0,1,.53-.95,10.49,10.49,0,0,0,2-4.41,4,4,0,0,1,.75-1.75A13,13,0,0,0,45,34.77c.29-.77.43-1.59.65-2.38a5.58,5.58,0,0,1,.53-1.66,6.51,6.51,0,0,0,1-3.66,2.8,2.8,0,0,1,1.57-2.36,4.75,4.75,0,0,0,1.5-1.16,7.85,7.85,0,0,1,2.37-2,16.6,16.6,0,0,1,2.09-1c.9-.38,1.29-1,1-1.73-1,.45-2.1.88-3.14,1.35-.62.28-1.22.63-1.82.95a5.94,5.94,0,0,1-.85.43c-.7.23-1.44.37-2.12.64a4.81,4.81,0,0,0-1.7.93c-.68.7-1.15,1.58-1.76,2.35a13.12,13.12,0,0,0-2.28,4.78c-.38,1.38-.6,2.79-1.1,4.15a18.56,18.56,0,0,1-2.05,3.71c-.49.76-1.13,1.42-1.69,2.13s-.93,1.21-1.39,1.82c-.77,1-1.57,2-2.29,3.09-.47.69-.73,1.53-1.24,2.18a7.51,7.51,0,0,0-1.39,3.76,10.6,10.6,0,0,0,.29,4.44,26.22,26.22,0,0,1,.52,2.92h.59c0-.7,0-1.36-.11-2-.06-.44-.4-.84-.42-1.27-.12-2.06-.24-4.14.78-6.05.59-1.12,1.23-2.22,1.84-3.33.1-.17.13-.41.27-.52,1-.81,1.35-2.07,2.07-3.07A16,16,0,0,1,38,40.73a.7.7,0,0,1,.44-.13.28.28,0,0,1,.26.44c-.31.45-.65.87-.94,1.33q-1.53,2.4-3,4.81a4.93,4.93,0,0,1-.32.64,9.37,9.37,0,0,0-1.49,3.25,7.63,7.63,0,0,0-.22,1.76,5.49,5.49,0,0,0-.12,1.81C32.89,55.75,33.54,56.77,33.29,58Zm-2.67,0a10.76,10.76,0,0,1-.71-2.18,34.52,34.52,0,0,1-.23-5.36,13.29,13.29,0,0,1,1-3.15,2.8,2.8,0,0,0,.23-.94c-.06-1.48-.19-3-.24-4.43s0-2.66,0-4a1.77,1.77,0,0,0-.14-.56c-.28-.77-.61-1.53-.83-2.31a1.92,1.92,0,0,0-.66-1c-.55-.49-1.26-.85-1.5-1.63a4.22,4.22,0,0,0-1-2.23,3.77,3.77,0,0,1-.6-.82c-.22-.34-.41-.7-.64-1A6.28,6.28,0,0,1,24,26a1.66,1.66,0,0,0-.32-.67c-.59-.81-1.18-1.62-1.82-2.4a11.12,11.12,0,0,0-1.34-1.33,4.28,4.28,0,0,0-2.88-1.17c-.07,0-.14-.12-.22-.13a8.26,8.26,0,0,0-1.94-.23c-.25,0-.44.61-.67.93,0,0-.13.06-.16.11-.2.33-.4.67-.63,1.06a4.23,4.23,0,0,1,1.27-.35,7.88,7.88,0,0,1,2.36.42c.87.35,1.63,1,2.48,1.42A5.85,5.85,0,0,1,23,27.8a3.57,3.57,0,0,0,.19.84,16.12,16.12,0,0,1,1.23,4.45c.29,1.3.27,2.66.48,4a5.56,5.56,0,0,0,.7,2.72,8.49,8.49,0,0,1,1,3.09c.16.75.09,1.54.19,2.31.12,1,.4,2,.45,3,.08,1.85,0,3.71.06,5.56a8.62,8.62,0,0,0,.58,2,.43.43,0,0,0,.17-.39c-.12-.83-.31-1.65-.35-2.47A13,13,0,0,1,28,49.53,25.15,25.15,0,0,0,28.3,45,4.55,4.55,0,0,0,28,43.77a9,9,0,0,1-.36-1.16c-.18-1.36.34-2.81-.51-4.1-.08-.11.08-.38.13-.58.17.09.42.13.51.28a4.4,4.4,0,0,1,.8,2.55,7.63,7.63,0,0,0,.32,2.8,5,5,0,0,1,.39,2.34,29.79,29.79,0,0,1-.53,4.62,16.18,16.18,0,0,0,0,4.21,3.46,3.46,0,0,0,.13,1c.23.71.52,1.41.79,2.13Zm4.16,5.79-1-4.19H31.84v4.19Zm3.36-39.26-2.72.57.16,2,2.57-.3Zm-10,2.2,3,.75V25.47l-3-.33Zm3-4.09-2.93-.53a6,6,0,0,1,0,1.14.67.67,0,0,0,.58.84c.76.15,1.55.17,2.36.25Zm3.67,12.59a8.69,8.69,0,0,0,0-1.27c0-.18-.25-.47-.39-.46-.89,0-1.78.09-2.75.15l.14,1.59ZM25.33,41.2l-.27,0A60.34,60.34,0,0,0,26,50.67a13.17,13.17,0,0,0,.29-2.94c-.12-1.51-.43-3-.66-4.51Zm12.45-6.37a9.82,9.82,0,0,0,.32-1c.08-.35.1-.72.16-1.2l-2.46.7v1.84ZM34.54,27.3l-.15-1.84c-.61,0-1.18,0-1.74,0a.52.52,0,0,0-.35.36c0,.56,0,1.13,0,1.75Zm.13,3.7-2.75.18-.07,1.41h2.82Zm1.1,1.36c.77-.22,1.49-.42,2.2-.65a.45.45,0,0,0,.24-.32c0-.38,0-.77,0-1.25-.87.2-1.61.35-2.34.54a.43.43,0,0,0-.2.34C35.69,31.43,35.74,31.84,35.77,32.35ZM32,30.12,34.69,30l-.19-1.59c-.73.08-1.41.13-2.07.26a.74.74,0,0,0-.42.49A4.36,4.36,0,0,0,32,30.12Zm5.63-8.21c-.64.16-1.16.3-1.68.41s-.84.46-.64,1.07c.06.18.15.36.25.58l2.25-.36Zm-9-2.08c.05.39,0,1.14.19,1.23a14,14,0,0,0,2.44.6V20Zm5.76,4.47a10.18,10.18,0,0,0-.1-1.22.54.54,0,0,0-.37-.35c-.54,0-1.09,0-1.62,0C32.11,24.64,32.11,24.64,34.44,24.3ZM31,31.14,28.11,30c.23.65.43,1.22.64,1.78a.29.29,0,0,0,.19.15l1.9.26Zm-2.74-3.29c-.18.67-.17,1.14.56,1.27.11,0,.19.15.3.2l1.79.76c.17-1.48.17-1.46-1.08-1.74C29.28,28.22,28.76,28,28.23,27.85Zm7.45,1.81a11.59,11.59,0,0,1,1.51-.25c1,0,1.31-.64,1-1.48-.81.36-1.8-.18-2.54.51,0,.36,0,.7,0,1A1.19,1.19,0,0,0,35.67,29.66ZM31.9,36.35c0,.72.27,1.09.94,1.16.48,0,1,0,1.46.11s.57-.14.6-.51,0-.48,0-.75ZM29.2,17.4c-.12.26-.24.46-.32.67-.19.47,0,.79.51.8s1.27,0,1.91,0V17.59ZM27,26.6l.2-.17c0-.48,0-1,0-1.44a.55.55,0,0,0-.31-.36c-.53-.22-1.07-.41-1.75-.66a5.61,5.61,0,0,0,.52,1.68A4.94,4.94,0,0,0,27,26.6Zm5,12.8,2.52.58.13-1.34-2.76-.27ZM38.59,48l-.22,0L37,56a1.9,1.9,0,0,0,.64-.93c.27-1.64.46-3.29.68-4.93C38.37,49.42,38.49,48.73,38.59,48ZM29.3,16.37l1.87.15V14.93c-1.73-.16-1.73-.16-1.91,1.3A.77.77,0,0,0,29.3,16.37Zm-1.61,2.08A1.81,1.81,0,0,0,28,17.9c0-.27,0-.73-.08-.79a15.34,15.34,0,0,0-1.83-.65,6.05,6.05,0,0,0-.15,1.09.68.68,0,0,0,.36.49A14,14,0,0,0,27.69,18.45Zm-1.27-2.8a4.68,4.68,0,0,0,1.46.53c.76,0,.16-.89.59-1.19.06,0,0-.2.07-.3L27,14.18Zm12.46,7.6c1.25,0,1.72-.72.85-2.3l-1.17.56ZM32.45,20l-.1,1.65,1.73-.1L34,20Zm-4.84.61.09-1.08-1.87-.67c-.07.48-.3,1-.14,1.18A1.94,1.94,0,0,0,27.61,20.58Zm9.57,0c-.22-1.12-.23-1.17-1.61-.89-1,.2-.23,1-.56,1.57.49-.11.84-.18,1.17-.28S36.81,20.74,37.17,20.6Zm-11.63.89c-.14,1.48-.14,1.48,1.68,2.12V22.14Zm13.68,5.14c.47-.32,1-.49,1.12-.8a7.85,7.85,0,0,0,0-2l-1.26.56ZM35.67,14.74a5,5,0,0,0-1.46.51,1.27,1.27,0,0,0,.24,1.08,4.91,4.91,0,0,0,1.64.05Zm4.92,14.48c-.42.18-1,.25-1.23.58s-.13.95-.18,1.44C40.45,31.29,40.87,30.63,40.59,29.22ZM34.31,41.35l0-.42L32,40.47v1.63Zm.38-23.81c0,1.36.48,1.58,2,.9l-.44-1.12Zm3,18.36c-2.24.23-2.08.08-1.9,1.65a3,3,0,0,1,.8-.4C37.52,37,37.64,36.88,37.73,35.89Zm-4.17,6.87H32V45ZM36,8.56C34.7,6.83,34.7,6.83,33.87,6.82l.91,2Zm1.84,5.67c-.35.19-.83.28-.95.54a1.1,1.1,0,0,0,.19,1c.32.18.82,0,1.37,0Zm-8.94-.55.28-1.49c-.3,0-.75-.22-.87-.09a8.47,8.47,0,0,0-.9,1.4Zm7.84-4c-.37,0-.59,0-.81,0s-.47,0-.71,0c.21,1.4.41,1.57,1.52,1.23Zm-2.75,3,.11,1.37,1.51-.39-.49-1.22Zm5.34,14.85v1.26l1.35-.47V27.08Zm-1.57-9.36,1.45-.41-.44-1.07-1.49.34Zm-5.29.59h1.46l-.35-1.26H32.43Zm4.67-7c-.36.2-.87.34-.91.55a1.21,1.21,0,0,0,.38,1c.22.15.69-.08,1.09-.15Zm-7.27,2c.53,0,1.07.22,1.28,0s.19-.76.27-1.2l-1.12-.11Zm9.43,18.53-.16,2.08c.6-.08,1.09-1.09,1-2.09a1.69,1.69,0,0,0-.32,0C39.64,32.29,39.46,32.32,39.25,32.35Zm-2,6.06-.13-.17c-1.53-.05-1.67.08-1.51,1.65Zm2.41-18.58c-.13-.31-.27-.83-.36-.82a3.39,3.39,0,0,0-1.3.39c-.09.05.07.56.12.91Zm-7.5-4.06.08,0c0,.11,0,.24,0,.33s.2.44.37.52.52,0,.58-.09,0-.43,0-.66a1.1,1.1,0,0,0-.14-.55,2.21,2.21,0,0,0-.6-.35ZM30,10.18c-.3-.24-.45-.43-.64-.49s-.78.71-.71,1.18c0,.2.32.37.49.55Zm1.8-.06h-.86l-.45,1.41,1,.06Zm1.79,0c.14,1.65.14,1.65,1.08,1.33C34.38,10.09,34.24,9.91,33.57,10.15ZM31,7.31c-.65.23-1,.66-1.38,1.63.24,0,.54,0,.6-.09C30.52,8.38,30.74,7.86,31,7.31Zm1.94,5.45c-.76-.1-.61.46-.65.81s.25.52.65.47ZM26.28,27.38l-.16.2.91.57C27.24,27.22,26.48,27.67,26.28,27.38Z"/></svg>