<svg id="Layer_1" data-name="Layer 1" xmlns="http://www.w3.org/2000/svg" viewBox="0 0 70 70"><defs><style>.cls-1{fill:#fff;}</style></defs><title>manzana</title><g id="_Group_" data-name="&lt;Group&gt;"><path id="_Compound_Path_" data-name="&lt;Compound Path&gt;" class="cls-1" d="M35.77,16.32c1-1.83.9-3.59,1.15-5.27a33.13,33.13,0,0,0,.23-4c0-.54.16-1,.74-1s.68.49.68.95a49.88,49.88,0,0,1-.36,5.51,21.7,21.7,0,0,1-1.9,6.57,1.15,1.15,0,0,0-.17,1.1,20.46,20.46,0,0,1,4.53-1.81,22.9,22.9,0,0,1,7.86-.08,17.64,17.64,0,0,1,7,2.37,3.42,3.42,0,0,1,1.26,1.16c1.68,2.74,3.45,5.4,4.36,8.57a19.38,19.38,0,0,1-.51,11.35c-1.44,4.69-2.6,9.46-4.7,13.93a19.6,19.6,0,0,1-5.19,6.85c-3,2.49-5.32,2.49-8.94,0a9.73,9.73,0,0,0-6.72-2.09,1.92,1.92,0,0,0-1.21.4c-.94.9-2.13,1.47-3.14,2.28a5.91,5.91,0,0,1-5.29,1.08,15.93,15.93,0,0,1-7.93-5c-1-1-1.91-2.17-2.86-3.26-1.72-2-2.24-4.48-2.86-6.9a49.8,49.8,0,0,1-1.56-14.67,15.22,15.22,0,0,1,3.18-9.22c2.09-2.49,4.71-4.74,8.28-5.1a12.28,12.28,0,0,1,4,.45,16.55,16.55,0,0,1,4.4,1.7c.12.07.33.22.37.19,1.14-1,1.19.14,1.54.77.25.45.56.27.85,0a11.09,11.09,0,0,0,2.13-4.31c.12-.4-.17-.45-.45-.58a7,7,0,0,0-4.8-.52,26.18,26.18,0,0,1-12.43-.22,9.84,9.84,0,0,1-5.9-3.53,26.73,26.73,0,0,0-3-2.92c-.31-.31-.86-.55-.6-1.14s.74-.53,1.21-.54a18.38,18.38,0,0,0,5.12-.67c.44-.14,1-.07,1-.8,0-.07.21-.23.32-.22a7.33,7.33,0,0,0,3.84-1.44c.47-.27.92,0,1.37-.07a22.33,22.33,0,0,1,6,.43,8.6,8.6,0,0,1,3.94,1.94c.75.62,1.43,1.33,2.2,1.92C34.63,11.81,35.26,13.88,35.77,16.32ZM10.24,11.53l.17-.09s0,0,0-.06l-.16.14a8.89,8.89,0,0,1,2.52,2.31c1,1,1.81,1.23,3,.44A29.79,29.79,0,0,1,19.24,12a9.73,9.73,0,0,0-1.86-.21,23.43,23.43,0,0,1-4.62,0C11.92,11.68,11.11,11.19,10.24,11.53Zm50.2,23.92a18.94,18.94,0,0,0-1.37-6.72,42.38,42.38,0,0,0-2.88-5.14,5.24,5.24,0,0,0-2.44-2.31,21.64,21.64,0,0,0-13.22-1.33,12.87,12.87,0,0,0-4.1,1.84,31,31,0,0,0-2.5,2.36c-1.39,1.12-1.43,1.14-3,.18-2.71-1.66-5.69-3-8.83-2.74-3.74.31-6.53,2.67-8.43,5.89a17.65,17.65,0,0,0-2.08,9.69,50.13,50.13,0,0,0,1.82,12.33,13.78,13.78,0,0,0,1.31,4C17,56.88,19.67,60,23.42,61.89c2.39,1.21,4.63,1.64,7.1-.48a9.07,9.07,0,0,1,3.69-2.34c3.21-.73,5.92.41,8.49,2.23,3.06,2.17,4.89,2.08,7.23,0a20.08,20.08,0,0,0,5.81-8.74c1.26-3.72,2.43-7.48,3.48-11.27C59.74,39.42,60.52,37.52,60.44,35.45ZM25,12.88c-1.75.12-3.38-1.13-5.16-.2-1.54.81-2.78,2-4.34,2.88a11.34,11.34,0,0,0,1.42.68c1.56.49,3.06.83,4.63-.2C22.81,15.17,23.7,13.87,25,12.88Zm8.25,3.2a34.32,34.32,0,0,0-3.92-2.36,3.67,3.67,0,0,0-4.05.31,23.9,23.9,0,0,1-3.34,2.88,1.45,1.45,0,0,0,1.14.2,41.29,41.29,0,0,0,5.79-.65A10.84,10.84,0,0,1,33.2,16.08ZM29,12.21c-.12-.89-.24-1.63-.32-2.38a1.86,1.86,0,0,0-1.43-1.7,20.09,20.09,0,0,0-5.92-.77c1,1.12,1.84,2.19,2.82,3.12s2.19,2.26,4,1.47C28.35,11.83,28.59,12,29,12.21Zm-5.19-.58L20.32,7.94c-.26-.28-.46-.65-1-.43s-1.36.47-2,.73c-.51.21-.51.45-.09.84a7.56,7.56,0,0,0,2.6,1.74C21.13,11.31,22.53,11.08,23.78,11.62Zm6-1.89c0,3,1,4.28,4.12,5.18C33.61,12.31,31.42,11.29,29.81,9.73Zm-12.11,1.1c-.89-.68-1.22-1.73-2.27-1.48a17.15,17.15,0,0,1-4.65.89C12.94,11.09,15.17,10.89,17.71,10.83Z"/><path id="_Path_" data-name="&lt;Path&gt;" class="cls-1" d="M10.24,11.53l.16-.14s0,.06,0,.06l-.17.09Z"/></g></svg>