<svg id="Layer_1" data-name="Layer 1" xmlns="http://www.w3.org/2000/svg" viewBox="0 0 70 70"><defs><style>.cls-1{fill:#fff;}</style></defs><title>naranja</title><path class="cls-1" d="M26.22,64.24c-4.2.44-8.47-.68-12.8-1.25-1.36-.18-2.34-1.25-3.39-2.07-2.11-1.65-2.13-2-.5-4.14a18.85,18.85,0,0,0,2.14-3.84A17,17,0,0,1,14,49.71c1.21-1.57,2.17-3.29,3.24-4.93,2-3.12,4.27-6.09,6.14-9.32a21,21,0,0,1,4.36-5.52,3.73,3.73,0,0,0,.83-1.21,8.79,8.79,0,0,1,2.51-3.07c1.17-.9,1.58-2.4,2.47-3.53,2.15-2.75,2.91-6.22,4.79-9.11.63-1,1.21-2,1.74-3a4.6,4.6,0,0,0,.73-3c-.11-.68.63-1.09,1.46-.89a6.75,6.75,0,0,1,2.18,1.23c2.21,1.5,4.67,2.68,6.25,5,1.47,2.11,3,4.19,4.36,6.37A36.21,36.21,0,0,1,60,30.48a27.85,27.85,0,0,1-.4,12.72,11.14,11.14,0,0,1-2.18,4.74,2.57,2.57,0,0,0-.39.62c-2.07,4.61-5.6,7.92-9.56,10.89a24.13,24.13,0,0,1-13,4.51A54.22,54.22,0,0,1,26.22,64.24ZM47.08,11.66c.08.18.2.43.39.26s-.13-.27-.23-.41-.24-.37-.5-.2ZM34.57,24.39a13.93,13.93,0,0,0,4-5.64,20.64,20.64,0,0,1,2.17-3.6,7.05,7.05,0,0,1,1.75-1.52,1.19,1.19,0,0,1,1.38,0,5.25,5.25,0,0,1,2.86,4.09,13.32,13.32,0,0,0,2,5c.7,1.17.19,2.31-.52,3.34s-1.45.74-2.28.48c-2-.63-4-.19-5.93.15a16.48,16.48,0,0,1-4.69.46c-.9-.1-1.57-.38-1.68-1.28A15.23,15.23,0,0,0,29.44,31a1,1,0,0,1-.29.31A18.36,18.36,0,0,0,25,36.45c-1.91,3.34-4.24,6.37-6.34,9.56-.77,1.18-1.35,2.46-2.23,3.58a32.75,32.75,0,0,0-4.78,7.66c3.82,1.39,7.82,1.37,11.78,1.49a30.87,30.87,0,0,0,6-.37,29,29,0,0,0,6.89-1.84A30.45,30.45,0,0,0,45,51.05c.29-.26.53-.55.79-.84,1.65-1.77,2.52-4.07,4.06-5.89s2-4,2.58-6.14c.72-2.5-.07-5,.07-7.56a12.65,12.65,0,0,0-1.28-5.8c-.88-2-1.74-4-2.45-6.13a22.41,22.41,0,0,0-6.33-9.22c-.91,2.22-2.35,4-3.31,6-1.42,3-2.65,6.1-4.67,8.79,0,.08-.06.22,0,.24S34.56,24.48,34.57,24.39ZM10.51,58.58c.07.53.43.66.68.88a8.31,8.31,0,0,0,4.85,2,79,79,0,0,0,8.16.89A65.06,65.06,0,0,0,37,61.72,20.73,20.73,0,0,0,46.22,58a55,55,0,0,0,5.27-4.71c2.39-2.38,3.72-5.41,5.38-8.24,1.18-2,1.22-4.31,1.65-6.5a10.7,10.7,0,0,0,.09-4.62,14.65,14.65,0,0,1-.42-2.7,16.45,16.45,0,0,0-1.52-5.55,37.79,37.79,0,0,0-4.26-7.62c-1.08-1.48-2.06-3-3.13-4.51a4.27,4.27,0,0,0-1.81-1.66,1.25,1.25,0,0,0,.36.88A23.83,23.83,0,0,1,51,19.51,24.76,24.76,0,0,0,52.45,23c1,2.23,2.1,4.47,1.89,7a10.68,10.68,0,0,0,0,2.95c.68,3.32-.15,6.4-1.25,9.46-.67,1.88-2.21,3.25-3.06,5a20.73,20.73,0,0,1-6.23,7.13,27.4,27.4,0,0,1-8,4.21,39.77,39.77,0,0,1-16.54,1.59A26.56,26.56,0,0,1,10.51,58.58ZM36.7,25.26c1.15-.08,2.22-.43,3.31-.59a14.34,14.34,0,0,1,5.69.07c.4.11.94.43,1.35-.13s.16-1-.16-1.52a9.43,9.43,0,0,1-1.77-4.44,4.83,4.83,0,0,0-1-2.62c-.37-.49-.74-.77-1.37-.19a11.1,11.1,0,0,0-2.29,3.36c-1,1.94-1.72,4-3.45,5.4A.62.62,0,0,0,36.7,25.26Z"/><path class="cls-1" d="M47.08,11.66l-.34-.35c.26-.16.37.06.5.2Z"/><path class="cls-1" d="M47.24,11.51c.1.13.45.2.23.41s-.31-.08-.39-.26Z"/><path class="cls-1" d="M34.57,24.39c0,.09,0,.19-.16.12s0-.16,0-.24Z"/><path class="cls-1" d="M40.65,28.55c1.23-.24,2.78.2,4.22-.51a.73.73,0,0,1,.62,0c1.43,1.07,3.4,1.38,4.26,3.24a7.34,7.34,0,0,1,.69,5.17c-.41,1.62-.8,3.13-2.07,4.25a23.15,23.15,0,0,0-5.07,7c-.69,1.31-2.24,1.63-3.63,1.75A4.13,4.13,0,0,1,35.3,47a6,6,0,0,0-3.2-2.58,8.62,8.62,0,0,1-4.31-3.54c-.32-.5-.63-1-1.44-1a.86.86,0,0,1-.48-1.5c.59-.59.94-1.42,1.77-1.77.33-.14.41-.5.48-.79.33-1.31,1.25-2.35,1.66-3.62a1.35,1.35,0,0,1,.65-.81c1.18-.41,2.09-1.46,3.39-1.49s2.62-1,4.06-1.08C38.72,28.68,39.55,28.54,40.65,28.55Zm8.27,6.11c-.22-1.54-.61-3-2.28-3.9a3.72,3.72,0,0,0-3-.5,7.92,7.92,0,0,1-1.9.07,28,28,0,0,0-3.26.18c-1.41.19-2.6,1.07-4,1.11a3.77,3.77,0,0,0-3.69,2.72,20.79,20.79,0,0,1-1.36,3.07c-.83,1.44-.87,1.4.06,2.8a5.93,5.93,0,0,0,2.62,2.21,10,10,0,0,1,5.24,4.31,2,2,0,0,0,2.23.85c.93-.13,1.93-.25,2.41-1.33a16,16,0,0,1,4.24-6C48.06,38.72,48.51,36.81,48.92,34.66Z"/><path class="cls-1" d="M26,55.91a6.93,6.93,0,0,1-.74,0c-1.3-.14-2.56-.39-3.68.7a1.65,1.65,0,0,1-1.9,0c-.89-.46-2-.5-2.77-1.22a1.48,1.48,0,0,1-.6-.94c-.12-2.07-.34-4.21,1.46-5.78a21.48,21.48,0,0,0,4.41-6c1.11-2,2.64-1.62,4-.66a42.21,42.21,0,0,0,5.86,3.48,5.55,5.55,0,0,1,2.7,6.2,3.18,3.18,0,0,1-2.71,2.13A2.28,2.28,0,0,0,29.59,55a1.65,1.65,0,0,1-1.43.78L26,55.95Zm.26-1.79c.55-.2,1.52.43,1.94-.32.84-1.49,2.15-1.67,3.59-1.68a1.17,1.17,0,0,0,1.22-1.07,3.64,3.64,0,0,0-2.43-4.17,11.72,11.72,0,0,1-2.23-1.19,27.26,27.26,0,0,1-3.35-2.18c-.45-.4-.84-.38-1.29.2a17.32,17.32,0,0,0-1.14,2.12c-1,1.73-2.58,3-3.79,4.53a7.26,7.26,0,0,0-1.24,2.21c-.19.59-.09,1.5.66,1.69,1.06.28,2.11,1.44,3.28.3a2,2,0,0,1,2.09-.65A9.09,9.09,0,0,0,26.31,54.12Z"/></svg>