<svg id="Layer_1" data-name="Layer 1" xmlns="http://www.w3.org/2000/svg" viewBox="0 0 70 70"><defs><style>.cls-1{fill:#fff;}.cls-2{fill:none;stroke:#fff;stroke-miterlimit:10;stroke-width:5px;}</style></defs><title>no_carne</title><path class="cls-1" d="M12.57,36.32a11.57,11.57,0,0,1,.61-3.8,2.85,2.85,0,0,1,1.55-1.93c2.12-1.08,4.24-2.09,5.9-4.07,2.46-2.94,5.88-3.7,9.46-3.57,2.46.09,4.9.39,7.36.55a14.2,14.2,0,0,0,4.93-.84,17.19,17.19,0,0,1,7.86-.33A8.71,8.71,0,0,1,54,23.54a10.2,10.2,0,0,1,3.59,4.59c.17.42.51.67.64,1.15.41,1.58-.06,3.09-.19,4.62a14.54,14.54,0,0,1-2,5.91A3.66,3.66,0,0,1,53.32,42c-2.68.31-4.86,1.78-7,3.32a31,31,0,0,1-5.07,3.06,10.18,10.18,0,0,1-6.23.54,24,24,0,0,1-7.39-2.59,41,41,0,0,1-6.26-3.83,17.74,17.74,0,0,0-3.48-2.23,3.3,3.3,0,0,0-2.09-.07,1.44,1.44,0,0,1-1.62-.46c-.49-.58-.93-1.19-1.41-1.78S12.62,36.85,12.57,36.32Zm44-1.45a10.74,10.74,0,0,1-5.84,4.22c-1.08.26-2.15.57-3.24.74-2.36.38-4.06,2.11-6.06,3.21a10.33,10.33,0,0,1-2.91,1.07,14,14,0,0,1-4.85-.24A20.08,20.08,0,0,1,27,41.24C25.27,40.32,23.78,39,22.08,38a8.35,8.35,0,0,0-5.44-1.41c-1.61.21-1.69.32-1.44,2.06.09.61.31.73.79.65a5.21,5.21,0,0,1,3.86,1.1c1.64,1.12,3.2,2.34,4.92,3.33C28,45.58,31.26,47.33,35,47.94c1.73.28,3.44.63,5.16-.1a21,21,0,0,0,5.21-2.92,23.93,23.93,0,0,1,5.4-3.23c.35-.16.4-.63.93-.61a3.52,3.52,0,0,0,3.14-1.57A14.09,14.09,0,0,0,56.7,35a.19.19,0,0,0,.07-.29ZM29.32,23.74a9.83,9.83,0,0,0-3.49.6,9,9,0,0,0-2.95,1.19,19.11,19.11,0,0,0-2.61,2.53,4,4,0,0,1-1.5,1.34c-1.4.54-2.55,1.59-4,2.09-.35.12-.44.33-.36.73.21,1,.38,2.1.52,3.15.07.55.29.7.8.58a8,8,0,0,1,3.16-.16,15.36,15.36,0,0,1,4.92,2.36c1.68,1,3.18,2.27,5,3.13a23.08,23.08,0,0,0,5.75,1.92,9.59,9.59,0,0,0,5.68-.47,7.68,7.68,0,0,0,2.23-1.24,13.21,13.21,0,0,1,6.93-2.93,10,10,0,0,0,6.27-3.83A6.88,6.88,0,0,0,57.09,29a8.09,8.09,0,0,0-2.33-3.82,6.83,6.83,0,0,0-4.44-2,18.14,18.14,0,0,0-8.67.56,14.16,14.16,0,0,1-5.89.5Zm-15,14.86A16.3,16.3,0,0,0,13.77,33C13.69,34.88,12.41,36.88,14.31,38.6Z"/><path class="cls-1" d="M14.31,38.6c-1.9-1.72-.62-3.72-.53-5.59A16.3,16.3,0,0,1,14.31,38.6Z"/><path class="cls-1" d="M37.29,32.8c-2.07.29-4.19-.19-6.24.5-1,.32-1.89.71-2.88,1a13.89,13.89,0,0,1-5.41-.1A10.39,10.39,0,0,0,20,34a9.33,9.33,0,0,1-3.17-.19c-.56-.12-1.12-.21-1.07-1A1,1,0,0,1,17.09,32a1.69,1.69,0,0,0,1.64-.35,40.93,40.93,0,0,0,6-5.55,5.21,5.21,0,0,1,3.55-1.6,25.34,25.34,0,0,1,6.61.5c2.75.37,5.51.72,8.26-.25,1.48-.53,2.33.27,2.3,1.91a5.67,5.67,0,0,1-2.91,5.09,5,5,0,0,1-1.75.54C39.65,32.46,38.53,33.09,37.29,32.8Zm-19.84.1c.17.32.4.25.61.24a27,27,0,0,1,6.41.35,9.58,9.58,0,0,0,5.67-.77,9.42,9.42,0,0,1,4.21-.7,6.11,6.11,0,0,0,1.12.07,29.21,29.21,0,0,0,4.83-.54c1.3-.39,2.58-.66,3.44-2a6.18,6.18,0,0,0,.91-2.37c.29-1.53-.18-2.09-1.54-1.57-2.58,1-5.19.54-7.77.25-2.24-.25-4.45-.87-6.73-.67a4.52,4.52,0,0,0-3.09,1.25A51.28,51.28,0,0,1,20.73,31C19.77,31.88,18.83,32.83,17.44,32.9Z"/><path class="cls-1" d="M36.91,42.47a7.12,7.12,0,0,1-3.12-.85,13.41,13.41,0,0,1-3-1.63,2.46,2.46,0,0,0-1.31-.51,5.37,5.37,0,0,1-3.35-1.61,4.74,4.74,0,0,0-2.74-1.24,19.11,19.11,0,0,1-3.82-1.47.41.41,0,0,1-.28-.47c0-.22.19-.29.4-.34a9.45,9.45,0,0,1,5.34.56,9.63,9.63,0,0,0,6.23.13,26.4,26.4,0,0,1,7.64-1.32,7.92,7.92,0,0,1,2.82.63,3,3,0,0,1,1.05,5.21c-.81.76-1.67,1.47-2.54,2.15A5.33,5.33,0,0,1,36.91,42.47ZM21.45,35a4.89,4.89,0,0,0,1.83.71,6.42,6.42,0,0,1,3.57,1.63,4,4,0,0,0,2.38,1.22,5,5,0,0,1,2.18.8A13.93,13.93,0,0,0,36,41.45a4.42,4.42,0,0,0,3.57-.39,16.66,16.66,0,0,0,3-2.6,1.67,1.67,0,0,0,0-2.5,4.69,4.69,0,0,0-3.76-1.4,24.77,24.77,0,0,0-7.37,1.28,9.66,9.66,0,0,1-6.72-.2A17,17,0,0,0,21.45,35Z"/><path class="cls-1" d="M49,24a1.74,1.74,0,0,1,1.08.29,8.62,8.62,0,0,1,3.76,3.12c.59,1,1.51,1.76,1.86,2.95A3.21,3.21,0,0,1,55,33.64a7.39,7.39,0,0,1-2.73,1.8l-3.81,1.51c-1.69.66-2.83.17-3.6-1.55A5.58,5.58,0,0,0,44,34c-.21-.24-.39-.66-.66-.06A.18.18,0,0,1,43,34a1.41,1.41,0,0,1-.29-1c0-.36.24-.5.56-.55A3.39,3.39,0,0,0,44.79,32a2.59,2.59,0,0,0,1.37-2.74,12.54,12.54,0,0,1,.16-2.9A2.67,2.67,0,0,1,49,24Zm6,7.21c0-.07,0-.19-.06-.31-.52-1.92-2-3.17-3.13-4.6-.51-.63-1.48-.83-2.18-1.32-.89-.63-2.55.41-2.58,1.45s-.27,2.19-.19,3.27a2.62,2.62,0,0,1-1.24,2.55,3.26,3.26,0,0,1-1,.6c-.21.05-.33.14-.15.34a15,15,0,0,1,1.47,2.44,1.4,1.4,0,0,0,1.82.66q2.51-1,5-2a8,8,0,0,0,1.47-1A2.5,2.5,0,0,0,55,31.22Z"/><path class="cls-1" d="M17.44,32.9c1.39-.07,2.33-1,3.28-1.85a51.28,51.28,0,0,0,4.76-4.57,4.52,4.52,0,0,1,3.09-1.25c2.28-.2,4.49.42,6.73.67,2.58.29,5.18.73,7.77-.25,1.36-.52,1.83,0,1.54,1.57a6.18,6.18,0,0,1-.91,2.37c-.86,1.3-2.14,1.56-3.44,2a29.21,29.21,0,0,1-4.83.54A6.11,6.11,0,0,1,34.34,32a9.42,9.42,0,0,0-4.21.7,9.58,9.58,0,0,1-5.67.77,27,27,0,0,0-6.41-.35C17.84,33.15,17.62,33.22,17.44,32.9Z"/><path class="cls-1" d="M21.45,35a17,17,0,0,1,3.31.66,9.66,9.66,0,0,0,6.72.2,24.77,24.77,0,0,1,7.37-1.28A4.69,4.69,0,0,1,42.61,36a1.67,1.67,0,0,1,0,2.5,16.66,16.66,0,0,1-3,2.6,4.42,4.42,0,0,1-3.57.39,13.93,13.93,0,0,1-4.63-2.09,5,5,0,0,0-2.18-.8,4,4,0,0,1-2.38-1.22,6.42,6.42,0,0,0-3.57-1.63A4.89,4.89,0,0,1,21.45,35Z"/><path class="cls-1" d="M55,31.22a2.5,2.5,0,0,1-.85,2,8,8,0,0,1-1.47,1q-2.46,1.09-5,2a1.4,1.4,0,0,1-1.82-.66,15,15,0,0,0-1.47-2.44c-.18-.19-.06-.29.15-.34a3.26,3.26,0,0,0,1-.6,2.62,2.62,0,0,0,1.24-2.55c-.08-1.08.17-2.18.19-3.27s1.69-2.08,2.58-1.45c.7.49,1.67.69,2.18,1.32C53,27.73,54.45,29,55,30.91,55,31,55,31.15,55,31.22Z"/><circle class="cls-2" cx="34.75" cy="34.92" r="31.89"/><line class="cls-2" x1="11.74" y1="12.83" x2="57.75" y2="59.3"/></svg>