<svg id="Layer_1" data-name="Layer 1" xmlns="http://www.w3.org/2000/svg" viewBox="0 0 70 70"><defs><style>.cls-1{fill:#fff;}</style></defs><title>papas</title><g id="_Group_" data-name="&lt;Group&gt;"><path id="_Compound_Path_" data-name="&lt;Compound Path&gt;" class="cls-1" d="M15.16,45.5c-2.2,0-4.32.11-6.43,0-2.49-.16-4.06-1.82-5.08-3.89a12,12,0,0,1-.7-8.3,21.09,21.09,0,0,1,2.28-5.55c.7-1.27,1.9-1.7,3-2.34,2.24-1.32,4.5-2.63,6.82-3.8,1.14-.57,2.47-.77,3.68-1.23,2.66-1,5.28-2.13,7.94-3.13.73-.28,1.58-.24,2.33-.49a25.19,25.19,0,0,1,9.9-1.18A53.36,53.36,0,0,1,49.08,17.5a19.18,19.18,0,0,1,6.58,3.41c2,1.49,3.8,3.49,4.29,5.77a5.47,5.47,0,0,0,2.32,3.41c3.35,2.75,4.35,6.55,4.68,10.65.24,3.05-1.64,5-3.55,6.91a14.74,14.74,0,0,1-9.09,4.44c-3.28.33-6.57.55-9.86.77-2.16.14-4.52-.32-6.45.4-2.69,1-5.3.53-7.94.64a12.06,12.06,0,0,1-3-.66l-1.69-.36c-2.93-.57-5.67-1.42-7.43-4.15a19.87,19.87,0,0,0-2.17-2.33A6.71,6.71,0,0,1,15.16,45.5ZM43.06,27.12v.15c-1.69,0-3.38,0-5.07,0a11.38,11.38,0,0,0-2.77.32,57.67,57.67,0,0,0-5.64,1.87c-1.85.74-3.74,1.39-5.2,2.94a12.73,12.73,0,0,0-2.21,3.22A46.39,46.39,0,0,1,18.64,41,3.94,3.94,0,0,0,19,45.75,8.28,8.28,0,0,1,20.11,47,6.25,6.25,0,0,0,24,49.68c.75.22,1.56.26,2.32.44a15.66,15.66,0,0,0,3.51.86c3.69,0,7.38-.28,11.07-.51.88-.06,1.74-.56,2.62-.6,2.43-.12,4.87-.12,7.3-.14a15.18,15.18,0,0,0,10-3.59c2-1.72,3.87-3.48,3.15-6.74-.77-3.53-1.72-6.69-5.41-8.2-.87-.35-1.66-.9-2.53-1.26a36,36,0,0,0-6.1-2.34A46,46,0,0,0,43.06,27.12Zm.38-8.2c-2.28-.24-4.66-.59-7-.69a15,15,0,0,0-3.85.53,35.4,35.4,0,0,0-6.44,1.71,44.53,44.53,0,0,1-8.4,3.09,12.37,12.37,0,0,0-3.26,1.21c-1.52.83-2.93,1.87-4.42,2.77-.73.44-1.82.57-2.23,1.18a15.44,15.44,0,0,0-2,4.26,12.48,12.48,0,0,0-.4,4.21c.14,2.29.56,4.58,3.26,5.33a7.79,7.79,0,0,0,3,.43c1.57-.21,3.64.12,3.91-2.36,0-.07.13-.12.17-.19,1.5-2.48,2.87-5,4.54-7.39a16.78,16.78,0,0,1,3.92-3.84,21.43,21.43,0,0,1,4.74-2.29c2.22-.85,4.47-2,6.78-2.19a110.33,110.33,0,0,1,13.43-.24c1.7.06,3.38.9,5,1.46.94.32,1.82.8,2.85,1.26a10.88,10.88,0,0,0-5.33-5.7c-2-1.12-4.31-1.6-6.35-2.31l-1.2,2Z"/><path id="_Path_" data-name="&lt;Path&gt;" class="cls-1" d="M42.58,33.64a2.56,2.56,0,0,1-2.75,2.17c-1.45-.06-2.64-1-2.61-2.13a2.6,2.6,0,0,1,2.9-2.36A2.29,2.29,0,0,1,42.58,33.64Z"/><path id="_Path_2" data-name="&lt;Path&gt;" class="cls-1" d="M25.49,43.17c0,1-1.2,2.33-2,2.31a2.45,2.45,0,0,1-2-1.93,2.41,2.41,0,0,1,2-2.48A1.81,1.81,0,0,1,25.49,43.17Z"/><path id="_Path_3" data-name="&lt;Path&gt;" class="cls-1" d="M32.05,42.11a1.61,1.61,0,0,1,1.69,1.62c.08.88-1.68,2.64-2.47,2.45a1.67,1.67,0,0,1-1.48-1.81C29.89,42.88,30.67,42,32.05,42.11Z"/><path id="_Path_4" data-name="&lt;Path&gt;" class="cls-1" d="M40.7,46.68a2.81,2.81,0,0,1,2.09-2.29c.56,0,1.59,1,1.58,1.64a3,3,0,0,1-2,2.31A1.94,1.94,0,0,1,40.7,46.68Z"/><path id="_Path_5" data-name="&lt;Path&gt;" class="cls-1" d="M52.64,43.8c0-1.12.24-1.81,1.28-1.79s1.44.81,1.44,1.79-.31,1.78-1.42,1.8C52.54,45.63,52.78,44.45,52.64,43.8Z"/><path id="_Path_6" data-name="&lt;Path&gt;" class="cls-1" d="M61,37c-.32,1.22-.36,2.17-1.81,2.09-1.06-.05-1.21-.7-1.22-1.5,0-1.07,1-2.18,1.84-1.93C60.27,35.79,60.58,36.52,61,37Z"/><path id="_Path_7" data-name="&lt;Path&gt;" class="cls-1" d="M51.54,35.56c.24.38,1,1,.89,1.53-.13.72-.35,1.84-1.53,1.81s-1.4-.73-1.38-1.68S50,35.57,51.54,35.56Z"/><path id="_Path_8" data-name="&lt;Path&gt;" class="cls-1" d="M28.14,33.1c.41-.43.82-1.21,1.24-1.21.88,0,1.38.69,1.45,1.64A1.17,1.17,0,0,1,29.52,35C28.45,35,28.41,34.15,28.14,33.1Z"/><path id="_Path_9" data-name="&lt;Path&gt;" class="cls-1" d="M50.36,30.93c-.47.4-.86.86-1,.8a3.9,3.9,0,0,1-.92-.87c.25-.25.52-.7.75-.68S49.84,30.57,50.36,30.93Z"/><path id="_Path_10" data-name="&lt;Path&gt;" class="cls-1" d="M10.64,32.42c0,.83-.59,1.31-1.53,1.36s-1.77-1-1.71-2.5c0-.77.07-1.66,1.15-1.75C9.29,29.47,10.64,31.24,10.64,32.42Z"/><path id="_Path_11" data-name="&lt;Path&gt;" class="cls-1" d="M8.53,40.41a15.7,15.7,0,0,1,1.73-2.68c.29-.29,1.54,1.43,1.58,2.35,0,1.08-.78,1.4-1.56,1.37C9.76,41.42,9.26,40.86,8.53,40.41Z"/><path id="_Path_12" data-name="&lt;Path&gt;" class="cls-1" d="M21.18,26c.21-1,1.55-2.58,2-2.32A2.55,2.55,0,0,1,24.4,25c.2.78-.93,2.09-1.6,1.94A5.85,5.85,0,0,1,21.18,26Z"/><path id="_Path_13" data-name="&lt;Path&gt;" class="cls-1" d="M34.11,22.74c-1.07-.31-2.08-.09-2-1.5,0-1,.67-1.38,1.53-1.41a1.91,1.91,0,0,1,1.66,2C35.17,22.2,34.51,22.44,34.11,22.74Z"/><path id="_Path_14" data-name="&lt;Path&gt;" class="cls-1" d="M17,32.15l1.2,1.1a14.91,14.91,0,0,1-1.79,1.62c-.12.08-.7-.52-1.07-.81Z"/></g></svg>