<svg id="Layer_1" data-name="Layer 1" xmlns="http://www.w3.org/2000/svg" viewBox="0 0 70 70"><defs><style>.cls-1{fill:#fff;}</style></defs><title>pavo</title><path class="cls-1" d="M61.08,35c1.67,5.78.54,5.18-2.14,7.67.17.33.51.28.8.36,1.37.36,2.82,1.78,2.64,2.58-.61,2.74-1.65,3.81-3.68,3.65a11.11,11.11,0,0,0-2.77,0,60.05,60.05,0,0,0-10.68,3.34A16.93,16.93,0,0,1,35,53.23c-1.2-.3-2.47-.4-3.31-1.44-.32-.39-.55-.07-.77,0a16,16,0,0,1-5.28,1.06,22.94,22.94,0,0,1-6.16.22c-4.16-.76-8.49-.86-12.14-3.52a5.61,5.61,0,0,1-2.7-5,1.08,1.08,0,0,0-.14-.76c-1.17-1.61-1.24-3.64-2-5.41a2.69,2.69,0,0,1-.05-2.19c1.07-2.47,1.64-5.15,3.39-7.31a16.33,16.33,0,0,0,2.8-4.76c.63-1.76,3.29-3,5.72-2.64a3.42,3.42,0,0,0,2.16-.29c1.72-1,3.63-1.57,5.38-2.52a21.81,21.81,0,0,1,6.88-2.49,1.48,1.48,0,0,1,1.91,1.32c.08.63.32.64.82.68a28,28,0,0,1,7.12,1.27,29.92,29.92,0,0,0,3.45.83,1.87,1.87,0,0,0,1.37-.24,9.34,9.34,0,0,1,9.78-.19,15.64,15.64,0,0,1,5.05,5.49c1.44,2.29,3.16,4.45,6.2,4.86a4,4,0,0,1,1.77.85c1.56,1.21.23,3-1.17,3.59A7.16,7.16,0,0,1,61.08,35Zm-5.6,6.89c-.48-1.68-.45-1.7,1.33-1.54a6.15,6.15,0,0,0,1.72-.09c1.76-.35,2.08-.86,1.63-2.58-.28-1-.85-2.09-1-3.08a9,9,0,0,0-2.61-4.7c-3.3-3.64-7.78-5.58-12.24-7.22a50.91,50.91,0,0,0-11.6-2.81,16,16,0,0,0-4.22-.16,55.52,55.52,0,0,0-6,1.52,10.12,10.12,0,0,0-3.92,1.76,12.78,12.78,0,0,1-3.5,2.1c-1.54.61-2.35,2.13-3.7,3A23.91,23.91,0,0,0,5,34C4.23,35,3.38,36.22,3.9,37.58c.72,1.9.65,4.12,2.24,5.67.24.23.43.58.93.52A6,6,0,0,0,7,42.89a6.12,6.12,0,0,1,3.13-6.75,27.16,27.16,0,0,1,5.81-2.08c2.91-.66,5.64-1.92,8.46-2.83a56.29,56.29,0,0,0,9-3.63,2,2,0,0,1,2.44.35,1.93,1.93,0,0,1,.66,2.38c-.52.88-.75,2.21-2.2,2.33-.4,0-.54.54-.74.88s-.32.82-.62,1c-1.94,1.05-3.44,2.74-5.45,3.72-1.47.72-3.1,1.06-4.63,2,2.27,1.88,5.09,2.77,6.94,5.19.1-.34.14-.46.16-.57.6-4.09,2.16-7.46,5.86-9.87s10.62-2.09,13.66,1.89a21.63,21.63,0,0,0,2.8,2.84C53.23,40.54,54,41.68,55.48,41.84ZM41.75,35c-3.06,0-3.38.19-4.69,1.86a1.78,1.78,0,0,1-1.64.94,1,1,0,0,0-1.14.5c-.33.94-1.23,1.52-1.57,2.33-1,2.51-2.11,5.09-.51,7.82a2.55,2.55,0,0,1,.35,1.38,1.42,1.42,0,0,0,1.17,1.55,16.73,16.73,0,0,0,10.48,0C49,49.63,53.68,47.28,59,47.63A1.36,1.36,0,0,0,60.47,46a2.2,2.2,0,0,0-2.28-1.72,7.47,7.47,0,0,1-3.8-.85,24.39,24.39,0,0,1-4.83-4.3C47.35,36.65,44.93,34.57,41.75,35ZM26.39,36.51c-.53-1-.12-1.32.82-1.3a13.47,13.47,0,0,0,1.85,0c.43-.05.92-.28.28-.81-.2-.17-.46-.36-.34-.65s.48-.27.79-.28c.62,0,1.49.16,1.8-.17A42.39,42.39,0,0,1,35,30c.28-.24.14-.66-.13-1A.59.59,0,0,0,34,29c-1.72,1.18-3.8,1.56-5.61,2.53-1.57.84-3.46.72-5,1.59-2.57,1.46-5.5,1.78-8.23,2.71-2.31.78-4.88,1.11-6.23,3.69a4,4,0,0,0,1.46,5.57c.84.48,1.73.85,2.58,1.32,2,1.13,4.5,1.1,6.52,2.35-4.5.6-8.58-.86-12.63-2.58,1.31.67,1.88,2.25,3.29,2.61a66.35,66.35,0,0,1,7.24,2.37,5.93,5.93,0,0,0,4.15.17c1-.38,1.81-.9,2.89-.16.35.24,1,0,1.53-.09,1.14-.15,2.12-1.39,3.47-.4.54.4,1.27-.53,1-1.28-.77-2.64-2.75-4.24-4.94-5.61a23.5,23.5,0,0,1-3.62-2.44c-.55-.51-1-1.06-.46-1.84s-.07-.73-.5-.75-.68.48-.8-.16c-.08-.43.35-.55.63-.75a1.5,1.5,0,0,1,1.4-.09,4.47,4.47,0,0,0,2.1.1c-.35-.41-.65-.7-1.07-.61s-.64.1-.66-.33.23-.54.59-.59a2.42,2.42,0,0,1,1.44.08A2.92,2.92,0,0,0,26.39,36.51ZM44.67,21.05c1.13,0,1.72,1,2.69,1.35,5.57,1.92,10.25,5,13,10.44.11.21.13.56.48.56,1.14,0,2.29.38,3.41-.09.41-.17,1-.4,1-.81s-.64-.65-1.1-.7c-3.22-.38-5.08-2.75-6.86-5-1.07-1.35-2-2.84-3.11-4.2C51.88,19.78,47.75,19.76,44.67,21.05Zm-29.29,2.1c-5.19-.33-5,.66-6.63,4.61C11.39,26.84,12.71,24,15.38,23.16Z"/><path class="cls-1" d="M25.39,24.1c-.54.09-1.1.08-1-.71a1.51,1.51,0,0,1,1.57-1.44c.78-.05,1.15.35,1.08,1.12C26.93,24.07,26.24,24.2,25.39,24.1Z"/><path class="cls-1" d="M37.95,22.88c-.37.43-.17,1.47-1.16,1.42A1.14,1.14,0,0,1,35.73,23,1.26,1.26,0,0,1,37,21.72C37.58,21.71,37.93,22.15,37.95,22.88Z"/><path class="cls-1" d="M47.63,24.86a1.15,1.15,0,0,1,1.14,1.23,1,1,0,0,1-1.12,1,1.29,1.29,0,0,1-1.13-1.26C46.45,25.21,47.07,24.94,47.63,24.86Z"/><path class="cls-1" d="M40.9,25.23a1.14,1.14,0,0,1,1.26-1.14,1,1,0,0,1,1.07,1c0,1.06-1,.92-1.68,1.12S41,25.73,40.9,25.23Z"/><path class="cls-1" d="M26.64,27.47c-.46-.13-.85-.35-.79-.9A1.24,1.24,0,0,1,27.2,25.4c.46,0,.63.22.6.65A1.48,1.48,0,0,1,26.64,27.47Z"/><path class="cls-1" d="M32.58,22.23a1,1,0,0,1-1.19.79c-.57,0-.92-.31-.89-.89s.6-.77,1.13-.77S32.45,21.75,32.58,22.23Z"/><path class="cls-1" d="M20.3,27.09c-.74,0-.75-.53-.79-1a.82.82,0,0,1,.88-.93.69.69,0,0,1,.79.81A1.25,1.25,0,0,1,20.3,27.09Z"/><path class="cls-1" d="M50.44,29c0,.57-.29.84-.63.85-.58,0-.83-.47-.89-1S49,28,49.5,28C50.14,28,50,28.9,50.44,29Z"/><path class="cls-1" d="M53.87,30.3c.55.11.74.57.87,1s-.3.47-.58.51-.8,0-.78-.58C53.38,30.86,53.33,30.45,53.87,30.3Z"/><path class="cls-1" d="M36.12,44.83c.76-.11,1.18.44,1.24,1.12s-.54,1.18-1.24,1.27c-.88.11-1.25-.74-1.37-1.25C34.58,45.25,35.24,44.83,36.12,44.83Z"/><path class="cls-1" d="M41.86,47.49c-.74,0-1.18-.18-1-.78s0-1.72,1.27-1.62a1,1,0,0,1,.94,1.17A1.37,1.37,0,0,1,41.86,47.49Z"/><path class="cls-1" d="M49.61,46.74c-.47.35-.21,1.44-1,1.43-.48,0-1.48-.31-1.5-1S48,46,48.7,45.84C49.2,45.71,49.44,46.19,49.61,46.74Z"/><path class="cls-1" d="M49.93,42.81A1.4,1.4,0,0,1,48.65,44c-.49,0-1.14-.11-1.11-.82s.33-1.35,1.3-1.29C49.44,41.93,49.88,42,49.93,42.81Z"/><path class="cls-1" d="M38.57,42.25c-.57,0-1-.27-.85-.81a1.53,1.53,0,0,1,1.54-1.22c.51,0,.89.21.86.77C40.09,42,39.22,42,38.57,42.25Z"/><path class="cls-1" d="M42.74,38.8c-.1.43-.21,1.08-.78.94A1.55,1.55,0,0,1,40.9,38.2c0-.38,0-.93.56-.83A1.36,1.36,0,0,1,42.74,38.8Z"/><path class="cls-1" d="M45.85,39.45a.85.85,0,0,1,.87,1c0,.78-.73.87-1.2,1s-.75-.41-.74-.88A1,1,0,0,1,45.85,39.45Z"/></svg>