<svg id="Layer_1" data-name="Layer 1" xmlns="http://www.w3.org/2000/svg" viewBox="0 0 70 70"><defs><style>.cls-1{fill:#fff;}</style></defs><title>pescado</title><path class="cls-1" d="M57.38,15.08c.52-.06,1-1,1.35.08.06.2.33,0,.5,0a13,13,0,0,0,3.62-.72,9.86,9.86,0,0,1,2-.58c.65-.08,1.53-.58,1.95.24s-.44,1.4-1,1.93a17.76,17.76,0,0,1-5.08,3c-2.83,1.36-4.44,3.76-6,6.29C52.46,29,50.47,33,48,36.61a2,2,0,0,1-.26.37c-2.66,2.45-3.84,5.9-5.83,8.8a22,22,0,0,1-1.55,1.77c-.11.13-.4.3-.45.26-.92-.71-1.37.2-1.92.59-.95.67-1.82,1.45-2.75,2.15-.53.4-1.12.67-.8,1.56.16.44-.32.79-.72,1a33.82,33.82,0,0,1-7.33,3.81,17,17,0,0,0-4,2.16,13.52,13.52,0,0,1-6,1.88,26.53,26.53,0,0,0-7.62,1.67,8,8,0,0,1-2.8.75,1.93,1.93,0,0,1-2.13-1.73,8.12,8.12,0,0,1,.42-4.29c1.5-3.66,3.13-7.28,4.55-11,1.71-4.44,4.35-8.41,7-12.35,1.66-2.5,4.36-3.68,7.11-4.65,1.79-.63,3.6-1.19,5.38-1.87a19.83,19.83,0,0,1,6-1.62c.89,0,1.31-.95,2.13-1.15.47-.12.89-.63,1.39,0,.07.08.35,0,.52,0a28.15,28.15,0,0,0,8.43-4c2.48-1.57,3.83-4.05,5.53-6.27a3.08,3.08,0,0,0,.42-1.15c.58-2.43,2-4.45,3-6.69A.85.85,0,0,1,56.52,6c.47,0,.7.37.85.79a10.62,10.62,0,0,1,.3,4.45C57.59,12.51,57.48,13.77,57.38,15.08ZM54.9,17.67c.93-.72,1.58-1.53.9-2.76l-1,2.63c-.12,0-.21.11-.12.22S54.83,17.76,54.9,17.67Zm3.41,1,5.57-2.8c-2.55.07-4.11,1.38-5.7,2.64l-.39.1C57.94,18.84,58.13,18.7,58.31,18.63ZM14.7,38A11.57,11.57,0,0,1,19,34.16c2.14-1,3.84-2.62,5.76-3.94l.18-.16s-.07,0-.1,0-.14.12-.06.21a12.79,12.79,0,0,0-10.19,7.65c-.21,0-.29.19-.35.36a.27.27,0,0,0,.15.09C14.66,38.34,14.63,38.11,14.7,38ZM5.12,60.67c.06.35-.11.7.2.89s.54-.13.8-.24c.47-.21.88-1,1.29-.78,1.36.74,2.49-.08,3.71-.31A28.91,28.91,0,0,0,17,58.35a83.48,83.48,0,0,0,13.6-7.53,22.1,22.1,0,0,0,3-1.88c4-3.69,7.94-7.44,11.68-11.4a20.57,20.57,0,0,0,3.12-4.23c1-1.87,2-3.76,3.19-5.54s2.11-3.88,3.51-5.6c.17-.21.39-.51,0-.76a16.49,16.49,0,0,1-3.29-2.87c-.12-.13-.41-.57-.7-.08a11.42,11.42,0,0,1-3.41,3.22,24.62,24.62,0,0,1-5.38,3.2c-3.25,1.26-6.66,2-9.92,3.29a38.35,38.35,0,0,0-8.69,4.54,30.43,30.43,0,0,1-4.6,3,5.41,5.41,0,0,0-2.21,1.71c-2.09,3.06-4.58,5.84-6.3,9.14-.69,1.32-1.06,1.26.62,2,3.16,1.38,4.66,4,5.74,7.07.19.52.13.87-.34,1.13s-.67-.29-.94-.52c-.12-.1-.13-.33-.19-.5-1-2.59-2.29-4.87-5-6-.46-.19-.66-.23-1,.23A8.11,8.11,0,0,0,8,55.08c0,.36-.16.55-.42.46-.5-.17-.6.16-.85.45C5.53,57.38,5.54,59.12,5.12,60.67ZM54,13.9c1.39-.22,2.6-2.68,2.29-4.65C54.86,10.48,54.61,12.28,54,13.9Zm4.94,2.92c-1.24-.44-1.95.29-2.65,1-.39.4-.8.78-1.17,1.2-.14.15-.53.26-.24.59s.53.08.72-.14A14.19,14.19,0,0,1,58.92,16.81Zm-6.16-.58c-1.07,1.38-1.07,1.38.68,2.3,0-.45.38-.8.19-1.28C52.23,17.89,52.9,16.78,52.75,16.23Z"/><path class="cls-1" d="M14.7,38c-.08.15,0,.38-.3.38a.27.27,0,0,1-.15-.09c.07-.17.14-.33.35-.36Z"/><path class="cls-1" d="M24.8,30.24c-.08-.1-.06-.17.06-.21s.07,0,.1,0l-.18.16Z"/><path class="cls-1" d="M54.9,17.67c-.06.09-.15.2-.24.09s0-.19.12-.22Z"/><path class="cls-1" d="M20.37,48.45A14.49,14.49,0,0,0,17.86,51c-.27.32-.51,1.05-1.06.64s.11-.8.32-1.14a12.6,12.6,0,0,1,2.68-3c.71-.61,1.19-.48,1.54.39A13.77,13.77,0,0,0,22.19,50c.28.47.06.86-.27,1.2a9.24,9.24,0,0,1-3.95,2c-.4.13-.64-.15-.79-.47a.59.59,0,0,1,.39-.81c.74-.33,1.53-.56,2.27-.88,1.39-.59,1.39-.6.85-1.94C20.61,48.87,20.49,48.68,20.37,48.45Z"/><path class="cls-1" d="M11.91,54.48a1.82,1.82,0,0,1-1.84,1.94c-1,0-1.3-.62-1.31-2.18,0-.83.63-1.34,1.61-1.3A1.47,1.47,0,0,1,11.91,54.48Z"/><path class="cls-1" d="M36.73,37.52c-.27.18-.49.15-.63-.15a.37.37,0,0,1,.16-.48,1.53,1.53,0,0,1,1.58-.13c.66.26,1.24.59,1.37,1.32s-.4.91-.8,1.24c-.19.15-.38.26-.59.07s-.13-.36,0-.59C38.11,37.94,37.71,37.46,36.73,37.52Z"/><path class="cls-1" d="M20,41.88a7.76,7.76,0,0,1-.28.83.37.37,0,0,1-.45.23.39.39,0,0,1-.24-.46c.22-1.45-.65-.94-1.34-.74a3.11,3.11,0,0,1-.62.21c-.32,0-.58-.26-.35-.48a2.43,2.43,0,0,1,2.11-.8A1.45,1.45,0,0,1,20,41.88Z"/><path class="cls-1" d="M25.56,35.15a2.26,2.26,0,0,1,1.77,1.56c.1.29.23.59-.19.72a.52.52,0,0,1-.72-.34c-.4-1.08-1-1.53-2-.65a.26.26,0,0,1-.39,0,.57.57,0,0,1-.08-.63C24.18,35.24,24.7,35.15,25.56,35.15Z"/><path class="cls-1" d="M35.24,32.49c-.07.2-.15.48-.26.75s-.23.34-.43.28a.37.37,0,0,1-.28-.43c.18-1-.4-1-1.11-1-.34,0-.87.17-.89-.37s.54-.4.88-.45C34.6,31.11,35.28,31.48,35.24,32.49Z"/><path class="cls-1" d="M41.26,29.89c0,.31.14.76-.34.82s-.55-.29-.57-.67c-.05-1.08-.78-.45-1.22-.44s-.69.32-.83-.16.31-.52.6-.65C40.36,28.14,41.27,28.57,41.26,29.89Z"/><path class="cls-1" d="M45.33,25.62c-.58.07-1,.25-1.09-.22s.42-.53.72-.55c.8-.05,1.63-.28,2.3.47.34.38.44.66.07,1s-.61,0-.79-.28C46.19,25.47,45.61,25.63,45.33,25.62Z"/><path class="cls-1" d="M31.62,41.13c0,.42-.08.94-.54,1s-.37-.46-.4-.81c-.06-.71-.61-.95-1.18-1.14-.23-.07-.44-.18-.41-.44s.34-.33.6-.33A2.25,2.25,0,0,1,31.62,41.13Z"/><path class="cls-1" d="M27.89,49.5a1.29,1.29,0,0,1-1.16,1.09.43.43,0,0,1-.36-.17.43.43,0,0,1,.11-.39c.76-.65.69-1-.35-1.09-.29,0-.54-.13-.48-.47s.3-.39.6-.38C27,48.12,27.91,48.9,27.89,49.5Z"/><path class="cls-1" d="M32.89,46.84a.49.49,0,0,1-.35.52A.42.42,0,0,1,32,47c-.14-.59-.42-1-1.14-1-.26,0-.44-.1-.44-.38s.24-.37.45-.43A1.92,1.92,0,0,1,32.89,46.84Z"/><path class="cls-1" d="M49,22.27a1.9,1.9,0,0,1,1.55,1.07c.16.28.35.55,0,.73a.54.54,0,0,1-.78-.17c-.28-.54-.63-.88-1.31-.74a.36.36,0,0,1-.38-.44C48.2,22.29,48.63,22.32,49,22.27Z"/><path class="cls-1" d="M44.86,32.57c0-.45-.41-.45-.65-.64s-.42-.35-.22-.64.38-.14.59-.08c1.19.36,1.58,1.28.83,2-.17.16-.35.47-.64.32s-.19-.44-.09-.69A1.87,1.87,0,0,1,44.86,32.57Z"/><path class="cls-1" d="M22.67,45.9c.09-.31-.19-.44-.61-.5a.32.32,0,0,1-.25-.42c0-.21.19-.28.4-.3a1,1,0,0,1,1,.48c.22.33.48.64.23,1.11-.15.28-.27.56-.62.5S22.48,46.39,22.67,45.9Z"/></svg>