<svg id="Layer_1" data-name="Layer 1" xmlns="http://www.w3.org/2000/svg" viewBox="0 0 70 70"><defs><style>.cls-1{fill:#fff;}</style></defs><title>pina</title><path class="cls-1" d="M59.52,33.6c.16.85.82,1.65.22,2.59-.11.18.25.35.39.51a2.17,2.17,0,0,1,.11,3.3c-.18.23-.36.43-.67.33a.48.48,0,0,1-.33-.65c1-2-.73-2.57-1.87-3.43-.37-.28-.77-.51-1.32-.87a13.73,13.73,0,0,1-.62,8.33c-.18.53-.26,1.24-1,1.09s-.75-.81-.71-1.39A8.93,8.93,0,0,0,52.91,39a2.81,2.81,0,0,0-1-1.4c-.3.88-.56,1.73-.86,2.56A28.2,28.2,0,0,1,45.48,49a14.72,14.72,0,0,1-8.85,4.71,3.87,3.87,0,0,0-1.4.73c-2.24,1.51-4.76,1.82-7.35,2-3.7.28-6.95-1-10.11-2.69a54.82,54.82,0,0,1-6.11-3.63,13.49,13.49,0,0,1-5-7.45A16.58,16.58,0,0,1,6.45,34a18.38,18.38,0,0,1,4-7.33c3.28-4,7.84-5.41,12.49-6.74a31.39,31.39,0,0,1,5.57-.76,37.48,37.48,0,0,1,11.73.56A13.1,13.1,0,0,1,43.81,21c.45.25.63.21.67-.36a4.62,4.62,0,0,0-2-4.35c-.38-.28-.83-.55-.65-1.12s.71-.56,1.16-.64a3.45,3.45,0,0,1,3.07.87,11,11,0,0,1,2.67,2.86,4.7,4.7,0,0,1,.65,1.8,4,4,0,0,0-.52-3.79c-.24-.36-.76-.67-.37-1.22s1-.26,1.45-.07c2.41,1,3.69,2.88,4.2,5.58a9.21,9.21,0,0,1,2.12-2.15c.33-.26.7-.49,1.09-.21s.33.7.19,1.1l-1,2.75A12.51,12.51,0,0,1,60.33,21c1-.06,1.4.44,1,1.33a8.84,8.84,0,0,1-1.83,2.87c-.38.36-.76.76-1.4.55s-.61.42-1,.59a27.92,27.92,0,0,1,3.37.73,5.13,5.13,0,0,1,2.22,1.32c.22.22.51.49.28.88a.85.85,0,0,1-.83.45c-.8,0-1.6,0-2.69,0,1.56.87,2.88,1.6,4.19,2.35.39.23.94.44.77,1s-.73.67-1.31.68a17.28,17.28,0,0,1-3.41-.28l-.22-.08Zm-4-12.54c.06-.16.16-.33,0-.46l-.13.33a4.87,4.87,0,0,0-1.92,3.3c.54-.15,1.19-.12.81-1-.05-.12.11-.41.25-.52A5,5,0,0,0,55.52,21.05ZM44.25,47.85c-.16.07-.3.23-.19.36s.24-.05.33-.15a7.44,7.44,0,0,0,1.77-2c.4-.61-.18-1.63.75-2.12a1.13,1.13,0,0,0-.15-.44,2.4,2.4,0,0,0-.8-.83c-.29.77-.54,1.49-.84,2.2A5.59,5.59,0,0,0,44.25,47.85Zm4.44-21.4c0,.23.07.64,0,.67-1.12.46-.34,1.27-.32,1.88a7.17,7.17,0,0,1,0,2,.76.76,0,0,0,.31.8L51,33.58a12.35,12.35,0,0,0-2.17-7.23l-.12-.23a12.18,12.18,0,0,0-2.78-2.6,23.76,23.76,0,0,0-11.2-3.15,23.82,23.82,0,0,0-5.15.19c1.12,2.23,3.18,1,4.78,1.53a1.57,1.57,0,0,0-.31-.57c-.21-.27-.52-.6-.16-.86s.47.25.71.41c.54.38.78,1.19,1.53,1.24a29.65,29.65,0,0,1,3.6.59c-.16-.27-.27-.44-.35-.61s-.63-.53-.24-.84.65.15.91.39a1.79,1.79,0,0,1,.47.53,2.46,2.46,0,0,0,2,1.38,16.68,16.68,0,0,1,4.35,1.74,5.3,5.3,0,0,0,1.61.79Zm.51,12.79c-1,.18-1.07-1.08-1.85-1.27a10.64,10.64,0,0,1-.53,1.72,2.15,2.15,0,0,0,.75,3.07l.15,0a18.09,18.09,0,0,0,1.65-3.39c.44-1,.95-1.89,1.29-2.89.18-.53.39-1.59.11-1.67-1-.3-1.48-1.34-2.48-1.55-.28.44-.08.91-.23,1.31A2.62,2.62,0,0,0,48.93,38,.81.81,0,0,1,49.19,39.24Zm-6.34-9.59a3.41,3.41,0,0,0,0,1.09c.28.76-.16,1.7.44,2.3.84.85,1.83,1.56,2.75,2.35.35.3.55.17.61-.22.15-.92.28-1.85.41-2.77a.48.48,0,0,0-.19-.53,13.46,13.46,0,0,0-4.06-2.21v-.13l-.08,0ZM20.78,24.26c0,.41.46.69.18,1s-.69,0-1-.07a3.1,3.1,0,0,0-1.58-.09,8.61,8.61,0,0,0-3.05,1.22c-.22.14-.55.38-.71.31-1-.48-1.5.32-2.08.85-.3.27-.55.6-.85.86-3.5,3.11-4.45,7-3.61,11.49a18.91,18.91,0,0,0,5,9.11,7.77,7.77,0,0,0,2.1,1.87,44.7,44.7,0,0,0,6.23,2.91,11.69,11.69,0,0,0,3.2.79,21.72,21.72,0,0,0,10-1.79A8.55,8.55,0,0,0,37.88,50a25.83,25.83,0,0,0,2.73-4.78,10,10,0,0,0,1-5.18c-.11-1.2.1-2.61-1.08-3.54a.39.39,0,0,1-.08-.37c.49-.65-.07-1.12-.28-1.62-.68-1.66-2-2.86-3.07-4.25a14.11,14.11,0,0,0-5-4A18.14,18.14,0,0,0,20.78,24.26Zm27.6-.71-.16.29a4.69,4.69,0,0,0,.82.57c.61.25.54,1.4,1.41,1.17.7-.19,1-.92,1.46-1.47a5.37,5.37,0,0,0-1.3-7.27,7.42,7.42,0,0,1-.72,5.71C49.6,23.16,49.31,23.81,48.37,23.55Zm-6.56,1.33c.17.93.3,1.71.47,2.49a.94.94,0,0,0,.51.7c1.45.74,2.88,1.52,4.39,2.33a9.42,9.42,0,0,0-.42-3.24.88.88,0,0,0-.44-.52A16,16,0,0,0,41.81,24.89ZM52,30.12a9.65,9.65,0,0,1,.46,2.65c0,.37.13.53.53.54A7.9,7.9,0,0,1,57.9,35c.14.11.3.41.58.18s0-.44,0-.64c-.44-1.9-2.22-2.64-3.47-3.79A3.53,3.53,0,0,0,52,30.12Zm-3.91-6.76c.64-4.49-.74-5.55-3.77-7.54a.76.76,0,0,0,0,.3,2.83,2.83,0,0,0,.29.4,5.06,5.06,0,0,1,1.13,3.93c-.17,1-.07,1.67,1.05,2A5,5,0,0,1,48.05,23.36Zm6.83,17.19a7.37,7.37,0,0,0,.3-3c-.07-2.1-.78-3-2.78-3.53a8.26,8.26,0,0,1-.14,1c-.19.73-.19,1.3.64,1.71A2.51,2.51,0,0,1,54,38.22C54.26,39,54.58,39.76,54.89,40.55Zm-11.09,8c-1.38-.62-1.38-.65-1-2,.12-.43-.1-.74-.53-1-.34,2.61-2.08,4.34-3.61,6.22C40.68,51.12,42.57,50.39,43.79,48.57Zm-7.3-25a9.08,9.08,0,0,1,.9,2.12.58.58,0,0,0,.53.51,12.09,12.09,0,0,1,3.08,1,14.33,14.33,0,0,1-.32-1.52,1.57,1.57,0,0,0-1.43-1.57C38.4,24,37.55,23.78,36.49,23.61ZM22.7,21.42a2.57,2.57,0,0,0,1.22.64c1.13.17,2.25.38,3.37.55a3.08,3.08,0,0,0,1.64-.35c.12,0,.42-.08.27-.3-.37-.53-.72-1.38-1.37-1.31A19.21,19.21,0,0,0,22.7,21.42ZM43.5,34.71c-.13,2.64.32,3.83,1.95,5.23.24-.88.46-1.75.72-2.61.08-.27.19-.48-.11-.69C45.2,36,44.37,35.36,43.5,34.71Zm13.64-10a2.2,2.2,0,0,0-1.33.1,12.07,12.07,0,0,0-4.16,2.08c-.24.18-.86.1-.59.68s.49.81,1.16.59C54.18,27.52,55.3,25.79,57.14,24.69ZM41.62,32.07c0-1.16.28-2.5-.48-3.26a5.2,5.2,0,0,0-3.35-1.21A17.47,17.47,0,0,0,41.62,32.07Zm2.11,7.56c-.38,1.76-1.73,3.46-.13,5.19C45.08,42.69,45.12,41.32,43.73,39.63Zm-12-16.43c1.15,1.65,2.93,2,4.47,3.27a9.85,9.85,0,0,0-.88-2.73.52.52,0,0,0-.45-.34Zm29.75,9.1c-.82-.63-1.75-1-2.13-1.71-.55-1-1.27-.86-2.08-.83a7.09,7.09,0,0,0-.86.13C57.67,31.61,59.42,32.16,61.52,32.3Zm-7-3.56a32.32,32.32,0,0,1,5.81-.32C58,27.39,55.25,27.49,54.49,28.74Zm5.36-6.39c-1.43.09-2.59.93-4,.9,1,.22,2-.06,2.9.43.29.16.36-.07.45-.21C59.45,23.13,59.62,22.78,59.85,22.35Zm-39.48-.2c.74,0,1.26.1,1.71-.25,0,0,0-.23-.1-.25C21.42,21.5,21,21.86,20.37,22.15Z"/><path class="cls-1" d="M16.68,34.42a20.17,20.17,0,0,0-4.57-2.19,3.58,3.58,0,0,1-1.63-.94c-.14-.17-.45-.37-.19-.69s.44-.15.71-.07c1.85.55,3.6,1.37,5.43,2.11-1-1.31-1.61-2.88-2.64-4.16-.31-.38-.73-.75-.22-1.18s.9,0,1.19.35.71,1.06,1.06,1.59.66.59,1,0,.59-.13.82.08A8.64,8.64,0,0,1,19.57,32c.05.11,0,.46.32.33s.11-.32,0-.49l-.65-1.22c-.68-1.24-.55-2.64-.77-4-.09-.53.25-.88.85-.87a3.34,3.34,0,0,1,2,.6c-.06.1-.09.19-.12.19-1.56.16-1.59.17-1.22,1.69a19.34,19.34,0,0,0,1,3.64A3.27,3.27,0,0,0,20.8,30a7.12,7.12,0,0,0-.39-1.23c-.14-.38-.31-.94,0-1.09.51-.23.7.35.88.73a5.32,5.32,0,0,1,.46,2.24c0,.13-.15.38.15.31.11,0,.44,0,.31-.36-.33-.83.05-1.65.08-2.47,0-.42.14-.69.61-.76.25,0,.46-.24.72,0s0,.59-.06.89c-.18.67-.32,1.36-.48,2.09.46.19.88-.23,1.33-.14.2,0,.3-.07.24-.29-.19-.67.14-1.33.06-2a1.7,1.7,0,0,1,.59-1.51c.23-.23.39-.46.72-.26s.33.45.25.78c-.2.81-.37,1.63-.54,2.45-.08.41-.06.71.53.65a4.37,4.37,0,0,1,1,.2c.32,0,.57.55.88.29a1.68,1.68,0,0,0,.73-1.27c0-.27,0-.63.34-.62s.49.44.48.76c0,.64-.48,1.08-.84,1.56.45.46.73.52,1.11-.13a5.13,5.13,0,0,1,2.63-2.53c.35-.12.76-.33,1,.1s-.27.59-.56.73a6.78,6.78,0,0,0-2.3,2.21c-.21.28-.38.55.11.77.31.14.59.52.87,0s.74-.88.85-1.47c.05-.29.17-.57.49-.52s.64.58.53.74c-.34.49-.07,1-.22,1.49l-.22.27c.17.09.29.07.37-.12l1.24-.38a.66.66,0,0,1,.92.52c.14.5-.29.53-.58.63-.6.2-1.21.37-1.81.56-.27.08-.51.16-.29.54s.25.39.59.2.93-.36,1.38-.57c1-.46,1.88,0,2.81.2.23,0,.35.3.38.55s-.32.36-.48.54c-.94,1-2.37.73-3.68,1.36a19.28,19.28,0,0,1,3.09.25c.4.13.87.22.81.72-.12,1.08-.52,1.42-1.32,1.23a12.52,12.52,0,0,0-2.71-.12.7.7,0,0,0-.76.56c1,.41,2.14.17,3.17.46a2.7,2.7,0,0,1,1.7,1c.18.27.36.52.17.82s-.5.15-.79.06a15.57,15.57,0,0,0-3.69-.89,3.59,3.59,0,0,0-1.08.15,7.41,7.41,0,0,1,2.7.5c.57.29,1.64.17,1,1.5-.41.81-.16.93-1.11.71l-3.41-.77c0,.45.24.53.56.61.8.21,1.6.45,2.39.72.33.11.61.38.42.78s-.49.17-.77.07-.51-.15-.77-.22c-.06-.16-.24-.2-.32-.11s.1.17.15.27l1.29,1.42a3.18,3.18,0,0,1,.81,1.59c.07.38,0,.9-.41,1s-.58-.32-.71-.67c-.54-1.41-1.77-1.91-3.08-2.3l0,0c.17-.25-.33-.8.41-.82.29,0,0-.23,0-.32-.19-.28-.41-.54-.63-.83a15.07,15.07,0,0,1-1.43,1.34c-.46.34-.13.59,0,.85a28.48,28.48,0,0,1,1.54,3.37,19.79,19.79,0,0,1,.48,2.25c.09.41.11.89-.35,1s-.73-.37-.78-.73c-.28-1.92-1.78-3.23-2.44-5-.11-.29-.24-.6-.7-.36s0,.51,0,.69A12.66,12.66,0,0,0,28,48.78c.1.17.23.37,0,.54s-.47.06-.6-.14a14.6,14.6,0,0,1-.89-1.46c-.22-.42-.37-1-1-.71s-.11.76,0,1.08a27.56,27.56,0,0,1,.47,3.18c.06.48.07.93-.48,1s-.61-.39-.73-.77c-.44-1.36-1.06-2.7-.52-4.2.06-.16.14-.5-.24-.54s-.86-.4-1.25-.18-.1.55,0,.83.19.5.27.75.44.55,0,.77-.55-.18-.71-.41a6.26,6.26,0,0,1-.41-.94,21.15,21.15,0,0,1-.87,2.45,3.09,3.09,0,0,1-.92,1c-.2.13-.41.28-.63,0s-.3-.4-.13-.63a7.61,7.61,0,0,0,1.19-4c0-.3.18-.62-.23-.75s-.45.18-.56.43c-.19.43-.4.85-.59,1.28a.46.46,0,0,1-.73.26c-.34-.2-.32-.41,0-.72a10.47,10.47,0,0,0,.75-1.18c.22-.33.21-.53-.13-.82-.92-.79-1.56-.56-1.89.77-.11.46-.05,1.07-.81.51-.22-.16-.3.17-.43.28a12,12,0,0,1-1,.87.73.73,0,0,1-1-.15,1.13,1.13,0,0,1-.2-1.13c.13-.47.43-.3.71-.15a.25.25,0,0,0,.35-.06,32.48,32.48,0,0,0,2.22-2.63c-.7.15-1,.73-1.38,1.18-.26.3-.53.61-.91.26s.14-.51.31-.72a11.31,11.31,0,0,1,1.08-1.19c.35-.32.07-.49-.18-.93L14,44.3c-.31.34-.65.39-.92,0s.16-.47.36-.66c.37-.36.91-.55.75-1.32-.06-.26.65-.68,1-1s.7-.49.42-1c-.81.52-1.61,1.06-2.43,1.57a4.13,4.13,0,0,1-.82.38.9.9,0,0,1-1-.35.64.64,0,0,1-.1-.75c.24-.55.74,0,1.06-.24-.69-.63-.69-.63.35-1.11a.59.59,0,0,0-.14-.09c-.54-.14-1.47.13-1.46-.61,0-.54.91-.21,1.41-.28s1-.08,1.51-.09c1.47,0,1.47,0,1.43-1.61l-1.69.5a1.55,1.55,0,0,1-1.09,0c-.27-.12-.56-.35-.55-.66s.34-.33.62-.4c.81-.19,1.6-.42,2.6-.69-1-.43-1.84-.79-2.67-1.11a2.15,2.15,0,0,1-.84-.54c-.08-.09-.19-.22-.07-.35s.28-.22.3-.19c.95.85,2.11,0,3.11.39.46.2.94.35,1.41.52.08,0,.21,0,.24,0S16.77,34.45,16.68,34.42Zm15.48,2.32a3.61,3.61,0,0,0-1.22-2.89,15.89,15.89,0,0,0-4.33-2.46c-.31-.14-.82-.3-1,.08-.26.54-.47.45-.76.1s-.49-.14-.74-.1c-2.75.49-6.9,4.48-6.92,7.64,0,.18.08.36-.1.55a2.08,2.08,0,0,0,.18,3.16c2.52,2.42,5.69,2.75,8.94,2.82a1.32,1.32,0,0,0,.86-.24c.94-.73,2.11-1.22,2.77-2.24A16.11,16.11,0,0,0,32.16,36.74Zm0,5.26c1.08,0,2.1.51,3.18.46A5.56,5.56,0,0,0,32.14,42Z"/><path class="cls-1" d="M23.9,44.87c-2.95.38-6-3.55-5.14-5.76a7.47,7.47,0,0,1,5.72-4.78c.29-.06.64,0,.81-.28.25-.5.69-.36,1.05-.29,1.26.23,2.07,1.18,3,1.92.13.1.25.47.18.54-.62.66,0,1.14.19,1.68a3.39,3.39,0,0,1,.1,2.45A6,6,0,0,1,23.9,44.87Zm.36-9.55a3.86,3.86,0,0,0-3.6,2.3,2.57,2.57,0,0,0,1.17,3.75,10.32,10.32,0,0,0,3.06,1.22c.16,0,.42.06.45.14.33,1,1,.32,1.21.09a8.2,8.2,0,0,0,2-2.74,2.26,2.26,0,0,0,0-1.49A5.41,5.41,0,0,0,24.26,35.32Z"/></svg>