<svg id="Layer_1" data-name="Layer 1" xmlns="http://www.w3.org/2000/svg" viewBox="0 0 70 70"><defs><style>.cls-1{fill:#fff;}</style></defs><title>pollo</title><path class="cls-1" d="M63.54,18.57c-.22,6.31-2.18,11.51-6.59,15.9-2.5,2.49-5.76,4.14-8.61,6.22C44.57,43.44,40,44.82,36,47.29a5.81,5.81,0,0,1-4.89.81,1,1,0,0,0-.88.09c-4,2.87-7,6.19-6.92,11a7.26,7.26,0,0,1-1.73,5.45,5.85,5.85,0,0,1-5.54,2.14,3.2,3.2,0,0,1-1.9-1A9,9,0,0,1,12.77,64a8.84,8.84,0,0,0-3.65-3.52c-3.06-1.91-4.33-5.37-.74-8.25a20,20,0,0,1,5.11-2.85c2-.8,3.38-2.3,4.88-3.66a.93.93,0,0,0,.12-1.11,4.46,4.46,0,0,1,.2-3.33c1.16-2.71,1.19-5.55,1.42-8.37a8.82,8.82,0,0,1,.61-2.73c1.2-2.84,1.18-5.89,2.07-8.77,1.08-3.48,1.89-7,4.26-10.15A26.23,26.23,0,0,1,37.44,3.14,11.15,11.15,0,0,1,45.68,3c1.08.38,2.39.31,3.26.82A50.64,50.64,0,0,0,54.37,6a5.59,5.59,0,0,1,2.42,2.13A5.32,5.32,0,0,0,59,10.38a2.43,2.43,0,0,0,1,.31c1.74.09,2.4.52,2.69,2C63.07,14.84,63.31,17,63.54,18.57Zm-7.22-8c0,.13.1.24.22.14s0-.18-.13-.24a5.73,5.73,0,0,0-3.79-3.59,44.35,44.35,0,0,1,3.11,3.51A.6.6,0,0,0,56.32,10.53ZM45.63,40.15c.65.2,1-.24,1.48-.49,1.15-.65,2.22-1.44,3.43-2A9.87,9.87,0,0,0,54,35.17a8.51,8.51,0,0,1,1-1.06C58.93,31,60.76,27,61.68,22.54c.6-2.9.13-5.74-.26-8.6-.28-2-.45-2.17-2.71-1.62a4.11,4.11,0,0,1-2.66-.24c-1.82-.74-2.85-2.16-4-3.46a12.29,12.29,0,0,0-5.27-3.75A14.77,14.77,0,0,0,38,4.63,6,6,0,0,0,35.09,6a21.67,21.67,0,0,1-4.7,3.75,1.89,1.89,0,0,0-.6.45C27.45,13.58,25.34,17,24.87,21a51,51,0,0,1-.93,5.3c-.63,2.76-1.46,5.48-2.27,8.2-.57,1.93,0,4-.77,6a4.56,4.56,0,0,0-.26,2.62,2,2,0,0,0,2.07,1.66,17.37,17.37,0,0,1,7.18,1.29,5.73,5.73,0,0,0,5.28-.3,89.07,89.07,0,0,1,8.43-4c.81-.37,1.92-.54,2.06-1.61ZM12.34,60.73c.68,1,1.24,1.88,1.76,2.72,1.63,2.62,4.05,3,6.06.35.17-.23.37-.44.56-.65s.32-.32.2-.52c-.66-1.07-.22-2.26-.44-3.38-.25-1.3-.62-2.71.19-4a42.9,42.9,0,0,1,5.57-7.6c.37-.38.58-.67-.24-.84a9.31,9.31,0,0,0-6.45.51c-2.36,1.25-4.39,2.93-6.92,4a22.63,22.63,0,0,0-2.68,1.49c-1.78,1-2.55,2.91-1.83,4.45,1,2.08,2,2.47,4.64,2.19,1.81-.19,3.7-.4,5.12,1.12.34.36.76.61.71,1.14a.72.72,0,0,1-.69.62,1.49,1.49,0,0,1-1.27-.72c-.32-.39-.5-.91-1.26-.86C14.41,60.77,13.45,60.73,12.34,60.73Z"/><path class="cls-1" d="M56.32,10.53a.6.6,0,0,1-.59-.18,44.35,44.35,0,0,0-3.11-3.51,5.73,5.73,0,0,1,3.79,3.59Z"/><path class="cls-1" d="M56.41,10.44c.11.06.26.14.13.24s-.21,0-.22-.14Z"/><path class="cls-1" d="M51.64,32.78c.37-.06.77.27.86.84S51.46,35,50.65,35c-.62,0-1-.27-1-.86C49.74,33.29,50.32,32.87,51.64,32.78Z"/><path class="cls-1" d="M53.11,17.33c-.35-.14-.6-.38-.42-.71a4.47,4.47,0,0,1,2.56-2.18.59.59,0,0,1,.76.25.53.53,0,0,1-.06.74c-.78.71-2,.89-2.59,1.86C53.34,17.32,53.21,17.31,53.11,17.33Z"/><path class="cls-1" d="M54.2,25.83c0,.66-1.5,1.66-2.31,1.6-.54,0-.8-.31-.78-.75s1.65-1.6,2.21-1.61S54.22,25.29,54.2,25.83Z"/><path class="cls-1" d="M58.62,27.58c-1.46,0-1.47-.93-1.44-1.46.06-1,1.32-.46,2-.8.37-.19.73.28.66.75A1.83,1.83,0,0,1,58.62,27.58Z"/><path class="cls-1" d="M56.36,27.42a1.14,1.14,0,0,1,1,1.18c0,1-.83,1.2-1.66,1.34-.55.09-.86-.28-.71-.72C55.24,28.52,55.25,27.64,56.36,27.42Z"/><path class="cls-1" d="M56.15,19c-.7,0-1.47-.06-1.35-.7a1.48,1.48,0,0,1,1.38-1.34A1.11,1.11,0,0,1,57.36,18C57.37,18.73,56.79,19,56.15,19Z"/><path class="cls-1" d="M46.12,27.22c.59-.05,1,.25,1.28-.22a.61.61,0,0,1,1-.19.74.74,0,0,1,.12,1.06,1.29,1.29,0,0,1-1.25.71c-.72-.11-1.69-.2-1.94-.76C44.94,27,45.87,27.26,46.12,27.22Z"/><path class="cls-1" d="M43.2,37.44c-.19.52-.41,1.05-1.21,1s-1-.6-1-1.14a.84.84,0,0,1,.91-1C42.66,36.33,43,36.84,43.2,37.44Z"/><path class="cls-1" d="M45.66,40.13c-1.74-.48-2-.78-1.25-1.65.21-.25.39-.54.82-.47a.84.84,0,0,1,.71.74,1.68,1.68,0,0,1-.32,1.41Z"/><path class="cls-1" d="M51.28,29.66c-.1.51-.27,1-1.08,1.05-.5,0-.93-.06-.88-.6a1.45,1.45,0,0,1,1.2-1.25C51,28.75,51.26,29.16,51.28,29.66Z"/><path class="cls-1" d="M53.34,22.28c-.53-.05-.84-.34-.65-.7s.11-1.26,1-1.12c.3,0,1.12,0,1,.55A1.55,1.55,0,0,1,53.34,22.28Z"/><path class="cls-1" d="M48.11,33.46a1,1,0,0,1-1.1,1c-.54,0-.83-.33-.76-.74a1.24,1.24,0,0,1,1.25-1.13C48.05,32.62,48.15,33,48.11,33.46Z"/><path class="cls-1" d="M38.41,42.45a.83.83,0,0,1-.94-.86c-.05-.61.61-.77,1.1-.75s1,.36.87.83A.92.92,0,0,1,38.41,42.45Z"/><path class="cls-1" d="M60.33,16.48c.07.55-.26.86-.87.9s-.85-.29-.78-.8-.1-1.11.73-1.14S60.33,15.9,60.33,16.48Z"/><path class="cls-1" d="M57.24,22.49c-.36,0-.59,0-.63-.34s1.13-1.34,1.48-1.29.64.3.61.63C58.62,22.31,57.76,22.25,57.24,22.49Z"/><path class="cls-1" d="M36.85,38.27c.37.09.68.35.55.65-.2.48-.4,1.08-1.12,1.15a.56.56,0,0,1-.61-.61A1.76,1.76,0,0,1,36.85,38.27Z"/><path class="cls-1" d="M34,43.62a1,1,0,0,1-1,.72c-.51,0-.76-.32-.73-.67a.83.83,0,0,1,1-.75A.73.73,0,0,1,34,43.62Z"/><path class="cls-1" d="M49.05,23a.5.5,0,0,1-.55-.55,1.67,1.67,0,0,1,1.21-1.13c.38-.13.5.2.48.51A1.59,1.59,0,0,1,49.05,23Z"/><path class="cls-1" d="M53.42,32.61c-.39,0-.66-.09-.68-.4,0-.49.39-.64.83-.72s.62.14.56.32S54,32.62,53.42,32.61Z"/></svg>