<svg id="Layer_1" data-name="Layer 1" xmlns="http://www.w3.org/2000/svg" viewBox="0 0 70 70"><defs><style>.cls-1{fill:#fff;}</style></defs><title>queso</title><path class="cls-1" d="M59.86,46.26C59.08,39.63,58.6,33,58.34,26.31a2.1,2.1,0,0,1-.07-.41,18.38,18.38,0,0,0-6-7.56.36.36,0,0,0-.34-.1,7.69,7.69,0,0,1-1.95.38,10.39,10.39,0,0,0-.43-3.78.17.17,0,0,0-.31-.05.36.36,0,0,0,0-.24c-.59-1.26-2-2.28-3.1-3.16a11.67,11.67,0,0,0-2.91-2.05A.51.51,0,0,0,42.37,9c-10.9,8.8-22,17.72-32.26,27.23a.24.24,0,0,0-.06.08.38.38,0,0,0-.06.17v.12a.25.25,0,0,0,0,.46,74.16,74.16,0,0,0-.1,8.67.48.48,0,0,0,.84.31c1.69,1.44,3.49,3.29,2.32,5.65a.38.38,0,0,0,0,.08,8.7,8.7,0,0,1-1.5-.19.23.23,0,0,0-.41,0,.37.37,0,0,0-.18.63l.06,0a38.69,38.69,0,0,0-.14,7.59.45.45,0,0,0,.61.41.3.3,0,0,0,.27.5A187.62,187.62,0,0,0,34,55.88a.4.4,0,0,0,.28-.26.33.33,0,0,0,.22-.31,4.82,4.82,0,0,1,1.16-3.14,11.38,11.38,0,0,1,3.26.46,18.14,18.14,0,0,1,3.24,1.72.35.35,0,0,0,.49-.26.32.32,0,0,0,.16,0,19,19,0,0,0,4.56-.46c.33-.11.6-.08.81-.42.31-.5-.15-1.05-.16-1.57a2.32,2.32,0,0,1,.38-1.32,3.4,3.4,0,0,1,2,.41c.69.38.93,1,1.49,1.48a.37.37,0,0,0,.46,0,.36.36,0,0,0,.33.07c1.59-.38,6.24-.53,7.27-2C60.66,49.23,60,47.45,59.86,46.26Zm-10.75-31a.31.31,0,0,0,.09-.09,24.5,24.5,0,0,1,.17,3.32,1.71,1.71,0,0,1-.71-.48A1.91,1.91,0,0,1,49.11,15.3ZM11.33,45.86a3.44,3.44,0,0,1,2.12-.25,3.39,3.39,0,0,1,2.36,2.75,2.87,2.87,0,0,1-2,3.3C14.81,49.4,13.05,47.31,11.33,45.86Zm24.81,5.82a3.42,3.42,0,0,1,1.9-.75,4.1,4.1,0,0,1,3.78,2.21A7.55,7.55,0,0,0,36.14,51.68ZM50.65,50a3.58,3.58,0,0,0-1.57-.33,1.93,1.93,0,0,1,1.36-.21A2.33,2.33,0,0,1,52,51,4,4,0,0,0,50.65,50Zm7.59-.47a3.37,3.37,0,0,1-2.11,1c-1,.38-2.1.65-3.15.93a3.05,3.05,0,0,0-4.54-2.59,3.36,3.36,0,0,0-1.52,2.61c0,.28.06.56.05.84a1.28,1.28,0,0,0,0,.28l-.18.07a15.39,15.39,0,0,1-3.75.66c-.5-2.36-3.33-3.87-5.62-3.37A4.86,4.86,0,0,0,33.74,55h0c-7.42,1.32-14.89,3.2-22.17,5.16l-.07,0a.46.46,0,0,0,.25-.38,38,38,0,0,0-.1-7.15,4,4,0,0,0,3.26-.33,3.91,3.91,0,0,0,2-3.43,4.5,4.5,0,0,0-1.8-3.58,4,4,0,0,0-2.24-.75,3.45,3.45,0,0,0-1.17.19,9.38,9.38,0,0,0-.83.46,75.83,75.83,0,0,0-.11-8.13c7.28-.1,15-2.57,21.88-4.56,8-2.3,15.85-4.6,24.1-5.71.65-.09.69-1.1,0-1.05C49,26.33,41.55,28.7,34.16,30.9,30.44,32,26.7,33.08,22.92,34c-4,.95-8.17,1.38-12.14,2.43,11-8.34,21.61-17.51,32.06-26.56a22.12,22.12,0,0,0,2.7,2.4,21.82,21.82,0,0,0,2.93,2.64,2.57,2.57,0,0,0-.74,3.66c.87,1.24,3.24,1.69,4.34.5a23.38,23.38,0,0,1,5.27,7.18.46.46,0,0,0,0,.08q.23,7.33.91,14.64c.18,2,.92,4.61.7,6.63Q59.71,49,58.24,49.53Z"/><path class="cls-1" d="M28.43,47.61c-.15-1.58-1.67-3.14-3.27-2.88a.16.16,0,0,0-.19-.07c-1.87.57-3.57,2.13-3.52,4.22a3.16,3.16,0,0,0,3.45,3.21A4.25,4.25,0,0,0,28.43,47.61Zm-1,.85a3.57,3.57,0,0,1-1.28,2.06,3.41,3.41,0,0,0-.24-3.08c-.79-1.12-2.68-1.52-3.24,0,0,.12.14.19.2.08.86-1.46,2.54-.09,2.73,1.07a2.25,2.25,0,0,1-.12,1.21,7.31,7.31,0,0,0-.48.93.32.32,0,0,0,.08.29A2.23,2.23,0,0,1,24,51a2.5,2.5,0,0,1-1.45-3.35,4.92,4.92,0,0,1,2-2.34.34.34,0,0,0,.21.11C26.39,45.62,27.81,46.62,27.45,48.46Z"/><path class="cls-1" d="M44.17,36.8c-.53-1.57-2.51-2.89-4.16-2.24a.36.36,0,0,0-.23.32A3.92,3.92,0,0,0,38,39.37,3.09,3.09,0,0,0,42.1,41,3.45,3.45,0,0,0,44.17,36.8Zm-5.32,2.56a2.92,2.92,0,0,1-.13-2,.25.25,0,0,0,.36-.06,1.74,1.74,0,0,1,2.56-.21,2.07,2.07,0,0,1,.54,1.49A10.82,10.82,0,0,1,41.86,40a.34.34,0,0,0,0,.08A2.28,2.28,0,0,1,38.85,39.37Zm4.14-.2a3.62,3.62,0,0,0,.05-1,2.7,2.7,0,0,0-1.06-2,2.27,2.27,0,0,0-3,.27,3.57,3.57,0,0,1,1.08-1.28,3.12,3.12,0,0,1,3,1.36A2.37,2.37,0,0,1,43,39.17Z"/><path class="cls-1" d="M47.51,39.18c-1.27-.52-2.15,1.12-2.3,2.21a2.29,2.29,0,0,0,2.34,2.69A2.68,2.68,0,0,0,50,41.25C49.94,40.07,48.78,38.62,47.51,39.18Zm.08.47a.14.14,0,0,0,.08,0,1.68,1.68,0,0,1,1.47,1.43,1.78,1.78,0,0,1,0,.38,2.64,2.64,0,0,0-.7-1.11,1.8,1.8,0,0,0-2-.23A1,1,0,0,1,47.59,39.66Zm.28,3.54c-1.69.47-2.1-1.17-1.76-2.39a.18.18,0,0,0,.11,0,1.39,1.39,0,0,1,2,.42,2.12,2.12,0,0,1,.3,1c0,.23,0,.46,0,.69A1.55,1.55,0,0,1,47.87,43.19Z"/><path class="cls-1" d="M55.6,31a2,2,0,0,0-2-1.68.22.22,0,0,0-.25-.11,2.24,2.24,0,0,0-1.82,2.41A2.05,2.05,0,0,0,55.6,31Zm-3.35.39a1.35,1.35,0,0,1,0-.43.1.1,0,0,0,.14-.1c0-.37.66-.2.84-.12a1.35,1.35,0,0,1,.68.63,1.33,1.33,0,0,1,0,1.11l-.17.05A1.33,1.33,0,0,1,52.25,31.38Zm2.48.29A1.91,1.91,0,0,0,54,30.43a1.68,1.68,0,0,0-1.26-.3,2.06,2.06,0,0,1,.41-.32s0,0,.05,0a1.79,1.79,0,0,1,1.54,1A1.21,1.21,0,0,1,54.73,31.67Z"/><path class="cls-1" d="M44.33,21.08c-1.13-.93-3.82-1-4.16.74a3.09,3.09,0,0,0-.17,4,3.27,3.27,0,0,0,4.77.06A3.36,3.36,0,0,0,44.33,21.08Zm-3.74,4.22a2.28,2.28,0,0,1-.5-1.08c.08,0,.16,0,.15-.12A1.4,1.4,0,0,1,41,22.71a1.25,1.25,0,0,1,1.57.53,4.84,4.84,0,0,1,.69,1.24,1.28,1.28,0,0,1,.12.77c-.05.19-.15.26-.17.46a.18.18,0,0,0,0,.12A2.32,2.32,0,0,1,40.59,25.29Zm3.45,0a2.63,2.63,0,0,0-.35-1.45,3.56,3.56,0,0,0-1.46-1.76,1.59,1.59,0,0,0-1.35,0,2,2,0,0,1,3,0A2.4,2.4,0,0,1,44,25.28Z"/><path class="cls-1" d="M36.16,21.09c-.38-.7-1.5-1.59-2.37-1.3a.18.18,0,0,0-.28,0,2.86,2.86,0,0,0-.43,3.36,1.85,1.85,0,0,0,2.59.58A2.13,2.13,0,0,0,36.16,21.09Zm-2.52-.72c.58.23,1.12.16,1.6.67a1.62,1.62,0,0,1,.4,1.5,3.65,3.65,0,0,0-.1-.39,1.69,1.69,0,0,0-.63-.9,1.13,1.13,0,0,0-1.59.26A3.76,3.76,0,0,1,33.64,20.37Zm-.18,2.12a1.83,1.83,0,0,1-.15-.85c0,.11.18.18.27.07a.76.76,0,0,1,1.18.12,1.65,1.65,0,0,1,.28.8c0,.2,0,.42.05.62A1.28,1.28,0,0,1,33.46,22.49Z"/><path class="cls-1" d="M29.13,28.59a2.1,2.1,0,0,0-2.55-1.77.18.18,0,0,0-.09.07c-.87-.13-1.41,1.06-1.43,1.85a2.18,2.18,0,0,0,2.24,2.43,2,2,0,0,0,1-.45.26.26,0,0,0,.43,0,1.79,1.79,0,0,0,.14-.69A2.35,2.35,0,0,0,29.13,28.59Zm-3.29.78c-.19-.61-.08-2.28.92-2.1a.14.14,0,0,0,.12,0,1.92,1.92,0,0,1,1.41,1,1.42,1.42,0,0,1,.09.26,1.88,1.88,0,0,0-.7-.61A1.3,1.3,0,0,0,25.78,29a.17.17,0,0,0,.33,0c.06-1,1.33-.8,1.76-.19a1.7,1.7,0,0,1,.28.93,1.57,1.57,0,0,1-.3.35A1.24,1.24,0,0,1,25.84,29.37Z"/><path class="cls-1" d="M31.68,38.63a1.94,1.94,0,0,0-2.77-.41c-1.25-.08-1.77,2.57-1.45,3.42a2.38,2.38,0,0,0,3.43,1A2.9,2.9,0,0,0,31.68,38.63Zm-3.39,3.05A1.87,1.87,0,0,1,28.11,40h0a1.15,1.15,0,0,1,2.08-.32c.58.77.2,1.56.12,2.41a.26.26,0,0,0,0,0A1.67,1.67,0,0,1,28.29,41.68Zm2.95-.61a2.45,2.45,0,0,0-1.17-2.33,1.53,1.53,0,0,0-.59-.15,1.29,1.29,0,0,1,1.73.72A2.24,2.24,0,0,1,31.23,41.07Z"/></svg>