<svg id="Layer_1" data-name="Layer 1" xmlns="http://www.w3.org/2000/svg" viewBox="0 0 70 70"><defs><style>.cls-1{fill:#fff;}</style></defs><title>quinoa</title><path class="cls-1" d="M45.33,37.19A5.7,5.7,0,0,1,44.18,37a7.71,7.71,0,0,0-3.29-.55,1.39,1.39,0,0,1-1.46-1c-.15-.34-.49-.59-.64-.92a1.61,1.61,0,0,1-.15-1,7.51,7.51,0,0,1,.56-1.12,2.48,2.48,0,0,1,2-1.39,18.05,18.05,0,0,1,5.31-.11,11.81,11.81,0,0,1,3.76.93c.5.22,1.07.27,1.59.45a1.82,1.82,0,0,1,1.45,2,2.5,2.5,0,0,1-1.6,2.09,5.13,5.13,0,0,1-1.37.21,13.12,13.12,0,0,0-4,.47A7.46,7.46,0,0,1,45.33,37.19Zm-5.63-3.3a6.69,6.69,0,0,1,.57,1,.71.71,0,0,0,.74.51c.88.06,1.76.2,2.63.34a6.62,6.62,0,0,0,2.16.34,22.7,22.7,0,0,1,4.92-.54,1.47,1.47,0,0,0,1.5-1,4.12,4.12,0,0,0-3.89-.19.5.5,0,0,1-.42,0,4.43,4.43,0,0,0-2.83-.43,4,4,0,0,1-1.62-.07,2.18,2.18,0,0,0-1.5-.1,11.37,11.37,0,0,1-1.2.09C40.44,33.79,40.11,33.84,39.71,33.89Zm10-1.17a17,17,0,0,0-1.91-.63c-.66-.14-1.35-.09-2-.21a11.23,11.23,0,0,0-4.6.2c-.34.08-.81.11-.9.8.81-.15,1.52-.31,2.24-.39a3.21,3.21,0,0,1,1,.13c.56.12,1.12.31,1.68.4s1.27.13,1.91.17a3.92,3.92,0,0,0,1,0C48.64,33.08,49.14,32.89,49.67,32.72Z"/><path class="cls-1" d="M12.4,36.5l-1.67-.3a3.13,3.13,0,0,0-.76-.06,5.59,5.59,0,0,1-4.79-1.79A6.73,6.73,0,0,1,3.3,31.06a2,2,0,0,1,1.38-2.6c.49-.19.95-.49,1.45-.64a3.13,3.13,0,0,1,1.46-.17,26.64,26.64,0,0,1,6.53,2.75,4.27,4.27,0,0,1,1.46,4.75,2.88,2.88,0,0,1-2.2,1.21,4.49,4.49,0,0,1-1,0ZM4.17,30.74a4.79,4.79,0,0,0,1.51,2.67c.25.18.42.48.67.67a3.5,3.5,0,0,0,1.14.75,19.71,19.71,0,0,0,2.36.33c.46.06.91.15,1.37.16.75,0,1.51,0,2.27,0l.08-.2c-.44-.35-.85-.72-1.31-1a31.33,31.33,0,0,1-2.62-1.77,3.38,3.38,0,0,0-2.74-.68c-.46,0-.78,0-1-.36C5.52,30.49,4.9,30.56,4.17,30.74ZM14.9,34.31c-.07-1.32-.35-2.44-1.36-3a44.47,44.47,0,0,0-4.29-2c-.42-.19-.93-.18-1.33-.39a1.78,1.78,0,0,0-2.14.38c.22.18.4.35.6.49.46.32.95.6,1.4.93s.6.49,1.08.37a1.19,1.19,0,0,1,.76.19,10.48,10.48,0,0,1,2.56,1.45c.07.07.2.07.29.11a14,14,0,0,1,1.28.65A13.65,13.65,0,0,1,14.9,34.31Z"/><path class="cls-1" d="M35.58,48A7.81,7.81,0,0,1,30.85,46a8.26,8.26,0,0,1-3.14-4.28A1.54,1.54,0,0,1,27.95,40a.31.31,0,0,0,.07-.1c.21-.55.32-1.26,1-1.4a6.89,6.89,0,0,1,2.61-.21,9.7,9.7,0,0,1,6.57,4.87,5,5,0,0,1,.61,2.18c.12,1.57-.92,2.51-2.7,2.6ZM29.07,40.3a2,2,0,0,1,2.09,1.25l.91-.19a4.29,4.29,0,0,0,2.57,2.31c.43.15,1,.45,1.14.8.27,1,1.31,1,1.85,1.67A3.63,3.63,0,0,0,37,43.25a10.08,10.08,0,0,0-3.3-3,6.17,6.17,0,0,0-3-1C29.7,39.16,29.27,39.42,29.07,40.3Zm-.38,1.17c.34,2.44,5.22,6.4,8,5.31-.41-.17-.73-.28-1-.43a2.68,2.68,0,0,1-.57-.36c-.24-.2-.43-.45-.67-.64q-.69-.55-1.42-1.06c-.82-.58-1.66-1.13-2.48-1.71a1.19,1.19,0,0,1-.4-.46C29.85,41.38,29.56,41.24,28.7,41.47Z"/><path class="cls-1" d="M29,34c-2.59.24-5.24.46-7.88.73a1.33,1.33,0,0,1-1.24-.46,3,3,0,0,1,.53-4.42,6.09,6.09,0,0,1,3.37-1.35,2.74,2.74,0,0,1,1,.16,2.21,2.21,0,0,0,1.78.1,8.09,8.09,0,0,1,4.56-.2c.83.15,1.1.49,1.34,1.31A2.77,2.77,0,0,1,31.4,33.1,2.84,2.84,0,0,1,29,34Zm2.34-2.39-.08-.19c-.25,0-.49,0-.74,0a19.59,19.59,0,0,1-3.09.22,14.27,14.27,0,0,0-4.74.68,4.22,4.22,0,0,1-1.49-.08,8,8,0,0,1-1-.25c.05.34.09.67.15,1,.1.58.46.76,1,.63a10.43,10.43,0,0,1,1.56-.3c2-.13,4-.28,6-.29C30.13,33.08,30.64,32.23,31.38,31.65Zm.33-1.44c0-.67-.14-.79-.92-.84a12,12,0,0,0-4.08.44,3.49,3.49,0,0,1-1.84-.06,4,4,0,0,0-3.94,1.08,2,2,0,0,0,2.12.38,4.32,4.32,0,0,1,1.19-.06c.72,0,1.44,0,2.15-.12C28.14,30.79,29.89,30.5,31.71,30.21Z"/><path class="cls-1" d="M42.56,23.31A3,3,0,0,1,45.5,24.7a1.92,1.92,0,0,1,.14.95c0,.16-.1.32-.09.47a3.58,3.58,0,0,1-2.46,3.69,14,14,0,0,1-4.51,1.43c-.67,0-1.35.14-2,.13a2,2,0,0,1-1.93-3,26.84,26.84,0,0,1,1.9-3.21,2.68,2.68,0,0,1,1.38-1c1.52-.43,3.08-.73,4.63-1.08Zm-5,4.5c.36.11.67.31.87.24a7.62,7.62,0,0,0,3.63-2,1.12,1.12,0,0,1,.77-.38,1.72,1.72,0,0,0,1.52-.76,1.81,1.81,0,0,0-1.66-.64c-1.07.11-2.13.31-3.19.5a4.86,4.86,0,0,0-3.82,3.81c.35,0,.72-.05,1.07-.12a1.27,1.27,0,0,0,.58-.25A1.17,1.17,0,0,0,37.56,27.82Zm6.95-1.35a12,12,0,0,1-1.78.22,1.47,1.47,0,0,0-1.35.65c-.43.61-.93,1.08-1.71.64-.51.68-.51.68-1.27.81a.4.4,0,0,0-.24.17,1.22,1.22,0,0,1-1.8.53l-.39.84c.75,0,1.36,0,2,0a15.57,15.57,0,0,0,4.71-1.4A2.79,2.79,0,0,0,44.5,26.46Z"/><path class="cls-1" d="M61.8,39.79a12.62,12.62,0,0,1-2.06-.33,3.28,3.28,0,0,1-1.22-.86,10.36,10.36,0,0,1-1.37-1.69,1.24,1.24,0,0,1-.07-1,9.1,9.1,0,0,1,1.31-2.21,6.23,6.23,0,0,1,4.16-2.11c2.27-.2,4,.81,4.41,3.22a2,2,0,0,1-.22,1.27,21.44,21.44,0,0,1-2,2.75C63.94,39.66,62.77,39.54,61.8,39.79Zm-2.7-2.15a2.78,2.78,0,0,0,2.63,1.07,3.37,3.37,0,0,0,3.13-1.56c.27-.43.56-.85.85-1.26A1.43,1.43,0,0,0,65.59,34Zm5.67-4.54c-1.76-1.5-6,.46-6.66,2.82.29.07.64.29.87.19A19.33,19.33,0,0,0,61,35c.2-.11.37-.29.57-.39C62.61,34.12,63.69,33.61,64.77,33.09Z"/><path class="cls-1" d="M12.43,44.73s0,.08,0,.13c0,2-1.35,3.07-3.28,2.39A8.33,8.33,0,0,1,6.9,46,15.93,15.93,0,0,1,4.45,43.7a5.26,5.26,0,0,1-.81-1.88,3.91,3.91,0,0,1-.13-1.44,1.54,1.54,0,0,1,.43-.86,3.54,3.54,0,0,1,2.73-.79,5.53,5.53,0,0,1,5.76,6Zm-1.94,1.64a19,19,0,0,1-2-2.82c-.57-1.21-1.68-1.67-2.64-2.35a1.16,1.16,0,0,0-1,0c-.14.08-.1.62,0,.93a1.94,1.94,0,0,0,.47.88,25.32,25.32,0,0,0,2.33,2.15,11.28,11.28,0,0,0,2,1.13A2.84,2.84,0,0,0,10.49,46.38Zm.9-1c.62-4.22-2.82-6-5.16-5.55A6.86,6.86,0,0,1,8.5,42.63a1.74,1.74,0,0,0,.53.61C9.82,44,10.61,44.65,11.39,45.35Z"/><path class="cls-1" d="M20.34,43.62a7.57,7.57,0,0,0-.93,0,1.72,1.72,0,0,0-.91.19,2,2,0,0,1-2.42,0c-.46-.26-.94-.48-1.4-.74-.72-.4-.89-.91-.37-1.55A22.1,22.1,0,0,1,16.61,39a4.88,4.88,0,0,1,4.57-1.12,7.43,7.43,0,0,1,3.49,1.71A2.07,2.07,0,0,1,25.17,42a2.14,2.14,0,0,1-2,1.45C22.27,43.52,21.38,43.57,20.34,43.62ZM24.14,42l-.07-.18L21,40.69a3.19,3.19,0,0,0-2.11-.13c-.74.22-1.52.34-2.25.61-.51.19-1.17.24-1.42.91.57.29,1.1.54,1.62.83a1.09,1.09,0,0,0,1.06,0,5.12,5.12,0,0,1,1.64-.37c1.24-.07,2.5,0,3.74-.11A2.65,2.65,0,0,0,24.14,42ZM17,39.94h.45c1.59,0,3.18,0,4.76.14a9.1,9.1,0,0,1,1.89.55C22.67,38.83,19.18,37.95,17,39.94Z"/><path class="cls-1" d="M46.92,45.45a2.88,2.88,0,0,1-3.09-3.36,2.07,2.07,0,0,1,.75-1.32,10.49,10.49,0,0,1,4.81-2,3.44,3.44,0,0,1,2.21.4,5.32,5.32,0,0,1,2.92,3.23,1,1,0,0,1-.11.78,3.9,3.9,0,0,1-2.3,1.58l-.75.13-4.41.78ZM45.08,43.1a1.29,1.29,0,0,0,1.32,1.29,18.08,18.08,0,0,0,4.83-.59,4.84,4.84,0,0,0,2-.88,2.19,2.19,0,0,0,.31-.49L53,42.24c-.44-.15-.87-.33-1.32-.45-.91-.23-1.79-.81-2.75-.05a6.57,6.57,0,0,1-1.84,1.05A10.61,10.61,0,0,1,45.08,43.1Zm7.35-2a3.1,3.1,0,0,0-2.78-1.37A9.87,9.87,0,0,0,45,41.61c-.1.07-.15.22-.23.36A5.69,5.69,0,0,0,48,41.38,4.72,4.72,0,0,1,51.45,41,7,7,0,0,0,52.43,41.1Z"/><path class="cls-1" d="M27.26,21.66a6.65,6.65,0,0,1,4.07,1.26,4.28,4.28,0,0,1,1.29,2c.25.74-.43,1.21-1,1.61a6.62,6.62,0,0,1-5,1,28.39,28.39,0,0,1-3.35-.64c-1.06-.29-1.29-.79-1-1.86a7.06,7.06,0,0,1,.64-1.94,2.44,2.44,0,0,1,1.33-.95A28.58,28.58,0,0,1,27.26,21.66ZM31,24.06l.1-.17a17.6,17.6,0,0,0-2.2-1,9.46,9.46,0,0,0-4.7.25c-.6.13-.77.69-1,1.12a36.27,36.27,0,0,0,3.9.28A36.47,36.47,0,0,0,31,24.06Zm.43,1.28c-2.8-.33-7.66-.12-8.31.35C24.9,27,30.1,26.85,31.48,25.34Z"/><path class="cls-1" d="M12.92,24.66s0-.12,0-.25c0-1.61.38-2.09,1.72-2.5a2.73,2.73,0,0,1,3,1.1,23.12,23.12,0,0,1,1.48,3.49,8.8,8.8,0,0,1,.39,2c.2,1.7-.95,2.14-2.1,2.29a2.42,2.42,0,0,1-2.88-1.43,10.4,10.4,0,0,0-.88-1.47A4.9,4.9,0,0,1,12.92,24.66Zm1.74-1.57c1.22,2.15,3,3.93,3.64,6.35a1.94,1.94,0,0,0,.14-1.8C18,26.4,17.57,25.16,17,24A1.71,1.71,0,0,0,14.65,23.09ZM14,24.18a4.24,4.24,0,0,0,.43,3c.39.63.79,1.26,1.12,1.92s.86.77,1.6.73C16.68,27.57,15.22,25.95,14,24.18Z"/><path class="cls-1" d="M53.48,25.14l1.62.17a3.56,3.56,0,0,1,2.47,1.82,1.84,1.84,0,0,1-.25,2,5.19,5.19,0,0,1-3.4,1.65,15.44,15.44,0,0,1-4-.19,2,2,0,0,1-1-.64c-.2-.22-.15-.67-.62-.68,0,0-.13-.47,0-.61a8.31,8.31,0,0,1,3.78-3.34A6.5,6.5,0,0,1,53.48,25.14Zm-3.64,4.34c2.3.62,5.8.48,6.37-.88A3.54,3.54,0,0,0,54,28c-.9.14-1.81.18-2.72.24A1.43,1.43,0,0,0,49.84,29.48Zm6.43-2.14c-.75-1.46-3.87-1.64-5.15-.27a1.24,1.24,0,0,0,1.36.52c.79-.09,1.58-.18,2.38-.24C55.32,27.31,55.78,27.34,56.28,27.34Z"/></svg>