<svg id="Layer_1" data-name="Layer 1" xmlns="http://www.w3.org/2000/svg" viewBox="0 0 70 70"><defs><style>.cls-1{fill:#fff;}</style></defs><title>res</title><path class="cls-1" d="M2.9,37a16.2,16.2,0,0,1,.85-5.32,4,4,0,0,1,2.17-2.7c3-1.51,5.94-2.93,8.26-5.69,3.45-4.12,8.23-5.18,13.24-5,3.44.12,6.87.54,10.3.77a19.88,19.88,0,0,0,6.91-1.17,24.07,24.07,0,0,1,11-.46c1.86.32,3.72.53,5.35,1.69a14.28,14.28,0,0,1,5,6.43c.24.59.71.93.89,1.61.58,2.22-.09,4.33-.27,6.47a20.37,20.37,0,0,1-2.76,8.28,5.13,5.13,0,0,1-3.91,3c-3.75.43-6.81,2.49-9.79,4.65a43.4,43.4,0,0,1-7.1,4.28c-2.88,1.34-5.74,1.25-8.73.75A33.6,33.6,0,0,1,24,50.93a57.41,57.41,0,0,1-8.77-5.37,24.84,24.84,0,0,0-4.87-3.13,4.62,4.62,0,0,0-2.93-.1,2,2,0,0,1-2.27-.65c-.69-.81-1.3-1.67-2-2.49C2.65,38.56,3,37.72,2.9,37Zm61.64-2c-2.19,2.8-4.73,5.06-8.18,5.91-1.51.37-3,.79-4.54,1-3.3.53-5.68,3-8.49,4.5a14.47,14.47,0,0,1-4.08,1.49c-2.29.47-4.52,0-6.79-.33-3.43-.48-6.39-2.07-9.37-3.67-2.41-1.3-4.5-3.14-6.87-4.53s-4.81-2.35-7.61-2c-2.25.3-2.37.45-2,2.88.13.86.43,1,1.11.92a7.29,7.29,0,0,1,5.4,1.54C15.4,44.26,17.59,46,20,47.36c4.52,2.59,9.08,5,14.25,5.89,2.42.4,4.82.88,7.23-.14A29.47,29.47,0,0,0,48.78,49a33.51,33.51,0,0,1,7.56-4.52c.5-.22.56-.89,1.3-.86A4.92,4.92,0,0,0,62,41.43a19.73,19.73,0,0,0,2.68-6.32.27.27,0,0,0,.1-.41ZM26.36,19.36a13.77,13.77,0,0,0-4.88.85c-1.4.49-2.93.69-4.13,1.67a26.77,26.77,0,0,0-3.65,3.54,5.61,5.61,0,0,1-2.1,1.88C9.64,28,8,29.53,6.05,30.23c-.49.17-.62.46-.51,1,.29,1.46.53,2.94.72,4.42.1.77.41,1,1.12.82a11.14,11.14,0,0,1,4.43-.23c2.57.46,4.68,2,6.89,3.31s4.45,3.18,6.94,4.39a32.32,32.32,0,0,0,8.05,2.68,13.43,13.43,0,0,0,8-.66,10.76,10.76,0,0,0,3.12-1.74c2.81-2.56,6.2-3.48,9.7-4.11a14,14,0,0,0,8.78-5.36,9.64,9.64,0,0,0,2-8c-.4-2.21-1.87-3.79-3.27-5.35-1.67-1.88-3.86-2.47-6.22-2.81a25.4,25.4,0,0,0-12.14.79,19.82,19.82,0,0,1-8.24.7Zm-21,20.81a22.83,22.83,0,0,0-.75-7.83C4.47,35,2.68,37.76,5.33,40.17Z"/><path class="cls-1" d="M5.33,40.17c-2.66-2.41-.86-5.21-.75-7.83A22.83,22.83,0,0,1,5.33,40.17Z"/><path class="cls-1" d="M37.52,32c-2.9.41-5.87-.26-8.74.7-1.34.45-2.64,1-4,1.35-2.57.65-5.06.2-7.58-.14a14.56,14.56,0,0,0-3.93-.27,13.06,13.06,0,0,1-4.44-.26C8,33.24,7.23,33.12,7.3,32A1.44,1.44,0,0,1,9.24,30.9a2.36,2.36,0,0,0,2.3-.49A57.32,57.32,0,0,0,20,22.64a7.29,7.29,0,0,1,5-2.24c3.12-.4,6.18.29,9.26.71,3.86.52,7.72,1,11.57-.36C47.86,20,49,21.12,49,23.42a7.94,7.94,0,0,1-4.08,7.13,7,7,0,0,1-2.45.76C40.82,31.56,39.26,32.45,37.52,32Zm-27.79.14c.24.45.56.35.85.34a37.74,37.74,0,0,1,9,.49,13.42,13.42,0,0,0,7.94-1.08,13.2,13.2,0,0,1,5.9-1,8.56,8.56,0,0,0,1.56.09c2.25-.3,4.53-.08,6.76-.76,1.82-.55,3.61-.92,4.82-2.74a8.65,8.65,0,0,0,1.27-3.31c.4-2.14-.25-2.93-2.16-2.2-3.62,1.38-7.27.76-10.88.36-3.14-.35-6.24-1.22-9.43-.94A6.32,6.32,0,0,0,21,23.18a71.81,71.81,0,0,1-6.67,6.41C13,30.76,11.67,32.09,9.73,32.18Z"/><path class="cls-1" d="M37,45.59a10,10,0,0,1-4.37-1.19,18.79,18.79,0,0,1-4.2-2.29,3.45,3.45,0,0,0-1.83-.71,7.52,7.52,0,0,1-4.68-2.26,6.64,6.64,0,0,0-3.84-1.74c-1.93-.32-3.58-1.36-5.36-2.06a.57.57,0,0,1-.39-.65c.06-.3.27-.41.57-.48,2.58-.64,5.07,0,7.48.79a13.48,13.48,0,0,0,8.72.18,37,37,0,0,1,10.7-1.85,11.09,11.09,0,0,1,3.95.88c3.42,1.25,4.16,4.79,1.47,7.3-1.14,1.06-2.33,2.06-3.56,3S38.89,45.54,37,45.59ZM15.34,35.11a6.85,6.85,0,0,0,2.56,1,9,9,0,0,1,5,2.29,5.64,5.64,0,0,0,3.33,1.71,7,7,0,0,1,3,1.13,19.51,19.51,0,0,0,6.49,2.93,6.19,6.19,0,0,0,5-.55A23.34,23.34,0,0,0,45,40a2.34,2.34,0,0,0,0-3.5,6.57,6.57,0,0,0-5.27-2,34.69,34.69,0,0,0-10.32,1.79A13.53,13.53,0,0,1,20,36,23.82,23.82,0,0,0,15.34,35.11Z"/><path class="cls-1" d="M53.9,19.74a2.44,2.44,0,0,1,1.51.4c2,1.09,4,2.18,5.26,4.36.82,1.39,2.12,2.46,2.61,4.13a4.49,4.49,0,0,1-1,4.6,10.35,10.35,0,0,1-3.83,2.52c-1.78.69-3.56,1.41-5.34,2.11-2.36.93-4,.24-5-2.17a7.82,7.82,0,0,0-1.13-1.95c-.29-.34-.54-.92-.93-.08a.26.26,0,0,1-.43.05,2,2,0,0,1-.4-1.45c0-.5.33-.7.78-.77A4.74,4.74,0,0,0,48,30.9c1.33-.92,2.22-2,1.92-3.84A17.56,17.56,0,0,1,50.16,23,3.73,3.73,0,0,1,53.9,19.74Zm8.47,10.09c0-.1,0-.27-.09-.44-.73-2.69-2.76-4.44-4.38-6.44-.72-.89-2.08-1.16-3.06-1.85-1.24-.88-3.58.57-3.61,2s-.38,3.07-.27,4.58a3.66,3.66,0,0,1-1.74,3.57,4.57,4.57,0,0,1-1.46.85c-.29.07-.47.2-.21.47A21,21,0,0,1,49.61,36a2,2,0,0,0,2.55.93q3.51-1.33,7-2.85a11.27,11.27,0,0,0,2.06-1.43A3.5,3.5,0,0,0,62.37,29.83Z"/><path class="cls-1" d="M9.73,32.18c1.94-.09,3.26-1.43,4.6-2.6A71.81,71.81,0,0,0,21,23.18a6.32,6.32,0,0,1,4.33-1.74c3.19-.28,6.29.59,9.43.94,3.61.4,7.26,1,10.88-.36,1.91-.73,2.56.06,2.16,2.2a8.65,8.65,0,0,1-1.27,3.31c-1.21,1.82-3,2.19-4.82,2.74-2.23.68-4.51.46-6.76.76a8.56,8.56,0,0,1-1.56-.09,13.2,13.2,0,0,0-5.9,1A13.42,13.42,0,0,1,19.55,33a37.74,37.74,0,0,0-9-.49C10.28,32.53,10,32.63,9.73,32.18Z"/><path class="cls-1" d="M15.34,35.11A23.82,23.82,0,0,1,20,36a13.53,13.53,0,0,0,9.41.27A34.69,34.69,0,0,1,39.7,34.51a6.57,6.57,0,0,1,5.27,2A2.34,2.34,0,0,1,45,40a23.34,23.34,0,0,1-4.2,3.64,6.19,6.19,0,0,1-5,.55,19.51,19.51,0,0,1-6.49-2.93,7,7,0,0,0-3-1.13A5.64,5.64,0,0,1,22.9,38.4a9,9,0,0,0-5-2.29A6.85,6.85,0,0,1,15.34,35.11Z"/><path class="cls-1" d="M62.37,29.83a3.5,3.5,0,0,1-1.19,2.83,11.27,11.27,0,0,1-2.06,1.43q-3.44,1.52-7,2.85A2,2,0,0,1,49.61,36a21,21,0,0,0-2.06-3.41c-.26-.27-.08-.4.21-.47a4.57,4.57,0,0,0,1.46-.85A3.66,3.66,0,0,0,51,27.71c-.11-1.51.23-3.05.27-4.58s2.37-2.91,3.61-2c1,.69,2.34,1,3.06,1.85,1.62,2,3.65,3.75,4.38,6.44C62.33,29.56,62.35,29.73,62.37,29.83Z"/></svg>