<svg id="Layer_1" data-name="Layer 1" xmlns="http://www.w3.org/2000/svg" viewBox="0 0 70 70"><defs><style>.cls-1{fill:#fff;}</style></defs><title>torta</title><path class="cls-1" d="M51.57,20.16a16.77,16.77,0,0,1,1.25-1.77,1.05,1.05,0,0,1,1-.51c.41,0,.56.38.69.69s.19.74-.44.85a2.32,2.32,0,0,0-1.64,1.51,2.85,2.85,0,0,0,2.5-.51c.24-.12.46-.57.75-.27s-.12.58-.29.81a3.82,3.82,0,0,1-1.41,1.2c-.17.08-.54,0-.45.39s.11.68.55.78a6.44,6.44,0,0,0,1.47.08c.21,0,.46-.09.55.19s-.12.39-.28.52a2.5,2.5,0,0,1-1.08.53c-.15,0-.39,0-.28.29a2.48,2.48,0,0,1-.62,2.72s0,.12-.07.21a13.68,13.68,0,0,1,4.9,2.68c.39.34.74.71,1.1,1.08a10.55,10.55,0,0,0,1.5,1.31,2.36,2.36,0,0,1,1,3c-.17.57-.16,1.17-.27,1.74a31.14,31.14,0,0,0-.09,5c-.06,1.59-.13,3.18-.32,4.77a1.92,1.92,0,0,1-1.42,1.56,6,6,0,0,1-2.07.41c-2.28.08-4.45.84-6.71,1a35.54,35.54,0,0,1-5.79.1,31.6,31.6,0,0,0-7,.53l-5.74.75c-2.55.33-5.12.42-7.66.84a44.32,44.32,0,0,1-5.08.22c-2.3.12-4.59.27-6.89.21a33.93,33.93,0,0,1-3.83-.39c-.52-.07-.69-.33-.7-.87,0-1.17-.29-2.33-.23-3.51a.31.31,0,0,0-.1-.29,3.57,3.57,0,0,1-1.06-2.85,17,17,0,0,1-.06-3.44,4.85,4.85,0,0,1,.9-1.82c1.44-2.16,3.59-3.35,5.88-4.39a45.58,45.58,0,0,0,5.25-2.66,6.72,6.72,0,0,1,2.87-1,10.4,10.4,0,0,0,1.21-.33c1.48-.33,2.54-1.5,4-1.9a1.42,1.42,0,0,0,.5-.29A5,5,0,0,1,30,28.2c.79-.17,1.35-.83,2.16-.94,2.35-.33,4.59-1.16,6.91-1.66A16.5,16.5,0,0,0,40.88,25c.12,0,.25-.13.36-.12.94.11,1.08-.58,1.29-1.24a7,7,0,0,1,3.08-4.19,5.91,5.91,0,0,1,3.63-.49c.38,0,.42-.08.47-.34a2.63,2.63,0,0,1,.7-1.35c.14-.15.28-.35.54-.21s.24.34.14.6a5.06,5.06,0,0,0-.2.94A1.34,1.34,0,0,0,51.57,20.16Zm1.55-1,.58-.24c.1,0,.39.09.22-.25s-.3-.25-.45-.13a2.82,2.82,0,0,0-.42.53c0,.06-.18.09-.11.17S53.09,19.25,53.12,19.14Zm4.54,18.55a5.07,5.07,0,0,0,3-.77,2,2,0,0,0,.22-3.49,10.31,10.31,0,0,1-1.54-1.37,13.11,13.11,0,0,0-5.48-3.55.87.87,0,0,0-.77,0A19.2,19.2,0,0,1,49.71,30a21.56,21.56,0,0,0-3.56,1.21,21.92,21.92,0,0,1-2.82,1.18A3,3,0,0,1,40.76,32a.8.8,0,0,1-.36-1c.69-1.65.88-3.43,1.41-5.12.19-.59-.08-.58-.47-.45-.65.21-1.28.56-1.91.7-2.09.44-4.07,1.33-6.21,1.52a10.74,10.74,0,0,0-2.73,1,6.93,6.93,0,0,0-1.54.58c-1.54,1.05-3.31,1.68-4.85,2.73a3,3,0,0,1-2,.66,3.28,3.28,0,0,0-2.15.48c-2.05,1.2-4.2,2.18-6.35,3.18a11.36,11.36,0,0,0-5,4.13A8.71,8.71,0,0,0,7.66,43a3.39,3.39,0,0,0,.11,1c.05.81.09,1.63.13,2.45a.45.45,0,0,0,.28.46.32.32,0,0,0,.43-.18A6.69,6.69,0,0,0,9,45.4c.14-.85.29-1,1.17-1.06.33,0,.66-.08.77-.37a1.21,1.21,0,0,1,1.18-.78,8.7,8.7,0,0,1,2.55.18,21.57,21.57,0,0,0,3.61.75,14.85,14.85,0,0,0,4.81-.23c1.45-.3,2.87-.47,4,.86.76.89,1.81.8,2.84.66a2,2,0,0,0,1.39-1A5.1,5.1,0,0,1,34,42.38a11.34,11.34,0,0,1,4.18-.51,9.57,9.57,0,0,0,4.42-.9,1.51,1.51,0,0,1,1.64.13,4.4,4.4,0,0,1,1.15,1.5c.24.43.43,1.05,1.14.94a1.52,1.52,0,0,0,1.29-1.38,6.45,6.45,0,0,1,.4-1.81.55.55,0,0,1,.38-.4c.59-.18,1.18-.37,1.78-.51a1.39,1.39,0,0,1,1.73,1.8,33.58,33.58,0,0,0-.88,3.47c-.39,1.37.54,2,1.57,1.94A4.89,4.89,0,0,0,56,44.92a.61.61,0,0,0,.1-.42,9.36,9.36,0,0,0-.89-3.65,2.89,2.89,0,0,1,.09-2.27c.32-1,1.18-.87,2-.88Zm3.53,8.52A21.82,21.82,0,0,1,57.3,47a52.82,52.82,0,0,1-7,1,20.69,20.69,0,0,0-2.5.08,12.53,12.53,0,0,1-3.5.41,27.09,27.09,0,0,0-5.34.2c-3.24.37-6.48.66-9.72,1-1.92.19-3.84.33-5.76.54a70.7,70.7,0,0,1-7.39.48,47.5,47.5,0,0,0-6.36,0c-.34,0-.59,0-.51.49s-.18.82.52.94c3.51.57,7,.24,10.54.07,1,0,2,.08,3,0,1.3-.16,2.6-.32,3.9-.42,1.52-.13,3-.3,4.55-.42,1.87-.16,3.73-.49,5.6-.74q2.45-.33,4.91-.62a13.38,13.38,0,0,1,3.21-.09,30.55,30.55,0,0,0,6.36-.14c1.3-.12,2.57-.45,3.85-.67s2.34-.25,3.51-.42a3.34,3.34,0,0,0,1.32-.46C61.17,47.69,60.94,47,61.19,46.21ZM48.09,19.47a4.49,4.49,0,0,0-4.28,2.68c-1.46,2.87-2,6-2.73,9.12-.06.25.16.25.29.34a2.66,2.66,0,0,0,2.69-.11c1.92-.83,3.85-1.57,5.84-2.22,1.29-.42,2.76-.71,3.59-2.12a2.08,2.08,0,0,0,.2-2.48,7.33,7.33,0,0,1-.61-1.41c-.12-.42-.11-1-.71-1.11a.2.2,0,0,1-.1-.32c.14-.18,0-.28-.1-.37-.67-.53-1.33-1.06-2-1.57A3.68,3.68,0,0,0,48.09,19.47Zm3.23,22.09-2.58.53c-.19,0-.26.12-.29.33-.17,1-1,1.47-1.86,1.72s-1.14-.42-1.57-.88a.94.94,0,0,1-.15-.21c-.13-.26-.31-.31-.62-.3-.88,0-1.72.32-2.59.42-2.72.31-5.45.6-8.17.92a2.07,2.07,0,0,0-1.59.71,3.59,3.59,0,0,1-5.23.46.86.86,0,0,0-.75-.26,20.44,20.44,0,0,1-2.37.14c-2.47.29-5,.43-7.43.65-.84.07-1.68,0-2.5.14a17.63,17.63,0,0,1-4.14.36c-.39,0-.61.15-.6.48,0,.63.12,1.27.19,1.92a6.53,6.53,0,0,1,2.28-.53A19.31,19.31,0,0,0,14.17,48a23.64,23.64,0,0,1,5.1-.51c1.18,0,2.37,0,3.54-.13a42.78,42.78,0,0,1,6.35-.4,1.58,1.58,0,0,0,.45,0A48.06,48.06,0,0,1,36.16,46a29.14,29.14,0,0,1,3.28,0,64.85,64.85,0,0,0,7.37-.51l3.51-.36c.21,0,.32,0,.36-.32A19.81,19.81,0,0,1,51.31,41.56Zm.61,5.68c-.34-.32-.82-.37-.87-.74-.13-.81-.63-.81-1.24-.68a5.74,5.74,0,0,1-.58,0c-2.22.23-4.43.48-6.65.69-2,.18-3.94,0-5.91,0-.67,0-1.31.23-2,.21a15.55,15.55,0,0,0-2.86.31,17.58,17.58,0,0,1-3.56.46,12.45,12.45,0,0,0-2.64.07,38.92,38.92,0,0,1-5.51.42,37.17,37.17,0,0,0-6.25.56c-1.27.27-2.57,0-3.85.23C9,49,9,49,9.06,50c0,.37.07.5.47.36A6.33,6.33,0,0,1,11.41,50c2.68-.08,5.36.1,8-.09,2.44-.17,4.86-.52,7.3-.64,1.28-.06,2.55-.34,3.84-.41,2.08-.12,4.14-.37,6.21-.59a59.78,59.78,0,0,1,6.79-.47A13.9,13.9,0,0,0,46,47.72a11.54,11.54,0,0,1,3.49-.38A23.42,23.42,0,0,0,51.92,47.24Zm4-6.23a8.06,8.06,0,0,1,.68,2.52c0,.23.1.36.36.3a39.4,39.4,0,0,1,4.09-.75c.17,0,.26-.08.26-.28,0-1,0-2,0-3.09A46.2,46.2,0,0,1,55.94,41Zm-1.12,5.78A12.93,12.93,0,0,0,57,46.4a27.83,27.83,0,0,0,2.8-.39c1.36-.41,1.34-.41,1.42-1.86,0-.44-.12-.52-.49-.46l-3.15.57c-.56.1-1,.25-1.23.91a1.86,1.86,0,0,1-.78.92A2.72,2.72,0,0,0,54.82,46.78Zm6.54-9.45c-.1,0-.23,0-.31,0a5.9,5.9,0,0,1-3.91.89c-1.1,0-1.15,0-1.43,1.11s-.09,1.11.88.92c1.13-.22,2.23-.53,3.33-.86,1.52-.45,1.53-.45,1.47-2A.3.3,0,0,0,61.36,37.33Zm-42,7.56c-.77,0-1.47-.34-2.25-.26a2.56,2.56,0,0,1-1.42-.32A6.12,6.12,0,0,0,12.17,44a1.1,1.1,0,0,0-.75.31,1.5,1.5,0,0,1-1.27.49,1,1,0,0,0-.89.51c-.14.2-.14.41.22.4a9.38,9.38,0,0,0,1.22,0c2.22-.37,4.46-.52,6.7-.68A6.46,6.46,0,0,0,19.35,44.89Zm24.91-2.83c-.41-.63-.85-.79-1.46-.5a10.52,10.52,0,0,1-5.37.91,8.45,8.45,0,0,0-4.14.94A100.94,100.94,0,0,0,44.26,42.06Zm4.21-.63s.06,0,.08,0L51,41c.22,0,.57.08.58-.32s-.29-.55-.63-.59a4.63,4.63,0,0,0-2,.46C48.58,40.65,48.72,41.16,48.47,41.43Zm4.5-20c.24.51.36.51.84,0Z"/><path class="cls-1" d="M61.19,46.21c-.25.74,0,1.48-.72,1.92a3.34,3.34,0,0,1-1.32.46c-1.17.17-2.35.22-3.51.42s-2.55.56-3.85.67a30.55,30.55,0,0,1-6.36.14,13.38,13.38,0,0,0-3.21.09q-2.46.3-4.91.62c-1.87.25-3.72.59-5.6.74-1.52.13-3,.3-4.55.42-1.3.11-2.6.26-3.9.42-1,.12-2,0-3,0-3.51.17-7,.5-10.54-.07-.71-.11-.46-.56-.52-.94s.17-.44.51-.49a47.5,47.5,0,0,1,6.36,0,70.7,70.7,0,0,0,7.39-.48c1.92-.21,3.84-.36,5.76-.54,3.24-.32,6.48-.61,9.72-1a27.09,27.09,0,0,1,5.34-.2,12.53,12.53,0,0,0,3.5-.41,20.69,20.69,0,0,1,2.5-.08,52.82,52.82,0,0,0,7-1A21.82,21.82,0,0,0,61.19,46.21Z"/><path class="cls-1" d="M51.31,41.56a19.81,19.81,0,0,0-.64,3.26c0,.27-.15.3-.36.32l-3.51.36a64.85,64.85,0,0,1-7.37.51,29.14,29.14,0,0,0-3.28,0,48.06,48.06,0,0,0-6.54.88,1.58,1.58,0,0,1-.45,0,42.78,42.78,0,0,0-6.35.4c-1.17.11-2.36.13-3.54.13a23.64,23.64,0,0,0-5.1.51,19.31,19.31,0,0,1-2.82.18,6.53,6.53,0,0,0-2.28.53C9,48,8.89,47.39,8.87,46.75c0-.33.22-.52.6-.48a17.63,17.63,0,0,0,4.14-.36c.83-.12,1.67-.06,2.5-.14,2.47-.22,5-.36,7.43-.65A20.44,20.44,0,0,0,25.91,45a.86.86,0,0,1,.75.26,3.59,3.59,0,0,0,5.23-.46,2.07,2.07,0,0,1,1.59-.71c2.72-.32,5.45-.61,8.17-.92.87-.1,1.71-.38,2.59-.42.31,0,.49,0,.62.3a.94.94,0,0,0,.15.21c.43.46.78,1.1,1.57.88s1.7-.67,1.86-1.72c0-.21.1-.29.29-.33Z"/><path class="cls-1" d="M55.94,41a46.2,46.2,0,0,0,5.39-1.31c0,1.06,0,2.08,0,3.09,0,.2-.09.25-.26.28a39.4,39.4,0,0,0-4.09.75c-.26.07-.35-.07-.36-.3A8.06,8.06,0,0,0,55.94,41Z"/><path class="cls-1" d="M53,19.05a2.82,2.82,0,0,1,.42-.53c.15-.12.32-.12.45.13s-.12.2-.22.25l-.58.24Z"/><path class="cls-1" d="M53,21.44l.84,0C53.34,21.95,53.21,21.95,53,21.44Z"/><path class="cls-1" d="M53.12,19.14c0,.11-.13.15-.18.08s.07-.11.11-.17Z"/><path class="cls-1" d="M49.76,22.22c.33,0,.52.17.51.51S49.44,24,49,24a.49.49,0,0,1-.49-.56A1.43,1.43,0,0,1,49.76,22.22Z"/><path class="cls-1" d="M51,26.64c-.66.06-.44-.66-.41-.85.08-.55.66-.59,1.12-.69.31-.07.57,0,.58.41S51.66,26.61,51,26.64Z"/><path class="cls-1" d="M47,20.69c.32,0,.44.14.29.41a13.86,13.86,0,0,1-.8,1.29.4.4,0,0,1-.52.11.4.4,0,0,1-.24-.4A1.6,1.6,0,0,1,47,20.69Z"/><path class="cls-1" d="M47.31,24a2,2,0,0,1-1,1.27c-.45.09-.56-.19-.43-.52a6.41,6.41,0,0,1,.57-1.06.43.43,0,0,1,.54-.23C47.18,23.54,47.37,23.72,47.31,24Z"/><path class="cls-1" d="M42.53,29.26c-.16,0-.31,0-.35-.21A2.08,2.08,0,0,1,43,27.58c.38-.14.58,0,.64.39A1.47,1.47,0,0,1,42.53,29.26Z"/><path class="cls-1" d="M45.61,28.7c.18,0,.36,0,.42.21a.57.57,0,0,1-.2.68,5.26,5.26,0,0,1-1.61.53.21.21,0,0,1-.27-.19c0-.11,0-.27.12-.27.55,0,.75-.5,1.09-.79A.58.58,0,0,1,45.61,28.7Z"/><path class="cls-1" d="M44.33,24.86c.05.32-.17.48-.36.65s-.5.27-.4.64a.17.17,0,0,1-.17.22c-.12,0-.18-.06-.23-.17a2.27,2.27,0,0,1,.57-1.94c.12-.08.24-.12.35,0A.67.67,0,0,1,44.33,24.86Z"/><path class="cls-1" d="M46.86,27c-.18.08-.27.07-.3,0s0-.2,0-.23c.37-.26.57-.7,1-.91.22-.11.46-.35.67-.05a.62.62,0,0,1-.14.86A2,2,0,0,1,46.86,27Z"/><path class="cls-1" d="M47.67,28.49c0-.43,1.21-1.08,1.6-.87a.37.37,0,0,1,.15.58,2.85,2.85,0,0,1-1.64.49A.18.18,0,0,1,47.67,28.49Z"/></svg>