<svg id="Layer_1" data-name="Layer 1" xmlns="http://www.w3.org/2000/svg" viewBox="0 0 70 70"><defs><style>.cls-1{fill:#fff;}</style></defs><title>yogur</title><path class="cls-1" d="M38.18,11.12a37.8,37.8,0,0,1,8.89.36c3.77.62,4.45,2.06,4.1,5.46C51,18.45,51,20,51.87,21a3.52,3.52,0,0,1,.81,2.57c.11,3.95.13,7.9.1,11.84,0,3.76,0,7.54-.16,11.31-.07,2.37-.25,4.73-.43,7.09-.15,2-.48,2.22-2.31,2.93a45.62,45.62,0,0,1-6,2c-4,1-8,2.42-12.22,1.61-3.89-.76-8-.85-11.56-3a24.43,24.43,0,0,1-2.28-1.58,1.85,1.85,0,0,1-.77-1.67c.57-6.91,0-13.81-.12-20.71-.06-3.1-.2-6.19,0-9.29a11.64,11.64,0,0,1,1.66-4.85c.26-.48.52-.83.21-1.36a2.3,2.3,0,0,1-.12-.62c-.75-3.31.47-5.07,3.84-5.65a56.79,56.79,0,0,1,7.6-.59C32.82,11,35.5,11.12,38.18,11.12Zm13.24,24a1.18,1.18,0,0,1-1.06.62,31.46,31.46,0,0,0-3.45.64,18.33,18.33,0,0,1-5.28.23c-1.58,0-3-.79-4.61-.59a32.49,32.49,0,0,1-6.57.43,42.69,42.69,0,0,1-6.79-.85c-1.57-.38-3.32-.73-4.48-2.12-.17-.2-.37-.42-.64-.26s-.07.45-.07.68c.09,4.66.2,9.32.28,14,0,1.65.08,3.31,0,4.95-.13,2-.06,2.1,1.67,3.11,3.87,2.26,8.28,2.42,12.52,3.15,3.48.6,6.79-.86,10.16-1.55a54.85,54.85,0,0,0,6.78-2.25,1.08,1.08,0,0,0,.82-1C51.58,48,50.82,41.68,51.41,35.12Zm-.34-1.88a21.05,21.05,0,0,0,.15-2.87c-.08-2.68.37-5.38-.53-8-.41-1.2-.48-1.7-2.15-1.51-5.24.59-10.49,1.29-15.8.91a81.71,81.71,0,0,1-12-1.45c-.39-.09-.65-.12-.88.2a5.87,5.87,0,0,0-1.15,1.94c-.8,3.06-.43,6.14-.34,9.22,0,.75.47.51.88.39.76-.21,1.47-.73,2.31-.36,1.83.79,3.76.48,5.66.52,1.36,0,2.77-.72,4-.2,2.07.86,4,.12,5.91-.24A24.8,24.8,0,0,1,44.21,31a3.45,3.45,0,0,1,1.6.31C47.4,32.48,49.6,31.73,51.08,33.24ZM40.66,19.45c2.77-.49,5.63-.28,8.42-.84.2,0,.39,0,.52-.25a3.74,3.74,0,0,0-2.67-5.45,111.73,111.73,0,0,0-18-.22,26.29,26.29,0,0,0-7,.75c-1.86.6-2.36,2-1.74,3.85a2.2,2.2,0,0,0,2.35,1.59c1.36,0,2.7.22,4.06.25C31.24,19.24,35.94,18.91,40.66,19.45Zm9.28,14.91c-.77-.05-1-1.11-2-.95a2.59,2.59,0,0,1-2.56-.76c-.28-.32-.71-.21-1.08-.26-3.38-.49-6.55.84-9.85,1.14a7,7,0,0,1-3.11-.11,3.69,3.69,0,0,0-2.09-.07,10.06,10.06,0,0,1-3.49.25c-1.22-.2-2.4-.07-3.75-.19,1.36,1.19,2.89,1,4.31,1.16,2.34.25,4.64.88,7,.46a13.35,13.35,0,0,1,5-.25A23.93,23.93,0,0,0,49.93,34.36Z"/></svg>